<svg xmlns="http://www.w3.org/2000/svg" width="1600" height="900" viewBox="0 0 1600 900"><defs><style>.cls-1{fill:#bababa;}.cls-2{fill:#1c1c1c;}.cls-3{fill:#494949;}.cls-4{fill:#878787;}.cls-5{fill:#545354;}.cls-6{fill:#b7b7b7;}.cls-7{fill:#383838;}.cls-8{fill:#7f7f7f;}.cls-9{fill:#353535;}.cls-10{fill:#fff;}.cls-11{fill:#caadea;}.cls-12{fill:#957ca5;}.cls-13{fill:#6917aa;}.cls-14{fill:#490972;}.cls-15{fill:#6f3091;}.cls-16{fill:#e5e5e5;}.cls-17{fill:#172827;}.cls-18{fill:#855ebc;}.cls-19{fill:#9c8bd1;}.cls-20{fill:#4d1d91;}.cls-21{fill:#ff9d00;}.cls-22{fill:#262626;}.cls-23{fill:#b2b2b2;}.cls-24{fill:#4c4b4c;}.cls-25{fill:#686868;}.cls-26{fill:#4c4c4c;}.cls-27{fill:#7c7c7c;}.cls-28{fill:#e5d400;}.cls-29{fill:#ea3303;}.cls-30{fill:#2f71a8;}.cls-31{fill:#079b11;}.cls-32{fill:#6933a3;}.cls-33{fill:#e2870e;}.cls-34{fill:none;}</style></defs><title>Artboard 1</title><g id="Layer_3" data-name="Layer 3"><rect class="cls-1" x="433.46" y="442.94" width="17.05" height="126.57" transform="translate(861.88 1030.93) rotate(-177.54)"/><rect class="cls-1" x="425.36" y="564.07" width="17.05" height="81.82" transform="translate(766.9 1270.83) rotate(-170.92)"/><circle class="cls-1" cx="423.13" cy="657.08" r="25.03"/><path class="cls-1" d="M443.29,673.77c3.5,6.91,7.92,10.43,1.95,18.56-6.41,8.24-16.14,2.83-15.65-8.68.23-10.45.23-19.71,2.86-23.11C435.8,657,440,666.12,443.29,673.77Z"/><path class="cls-1" d="M423.19,685.35c1.43,5.14-3.91,17.62-11.22,17.43-7.21-1-5-11.73-2.57-20,1.85-9,3.89-16.14,7.67-13C420.4,673.47,422.17,680.29,423.19,685.35Z"/><path class="cls-1" d="M406.54,673.86c-4.16,10.21-19,15.72-20.52,9.55-.79-5.19,7.89-14.31,11-23,3.8-8.9,9.15-8.43,11.34-3.79C409.93,661.08,410.77,664.28,406.54,673.86Z"/><path class="cls-1" d="M392.47,656c11.55-3.63,11.57-7.91,9.75-10a11.28,11.28,0,0,0-11.62-4.64c-5.25,1.36-8,6.47-13.06,10.41C371.73,655.9,380.12,659.3,392.47,656Z"/><path d="M225.87,463.47l50.94-2.4a4.37,4.37,0,0,0,3.93-5.78l-9.24-27a4.38,4.38,0,0,0-6.66-2.16l-41.69,29.37A4.37,4.37,0,0,0,225.87,463.47Z"/><path d="M487.18,452.59l-50.94-2.4a4.38,4.38,0,0,1-3.94-5.79l9.25-27a4.38,4.38,0,0,1,6.66-2.16l41.69,29.36A4.38,4.38,0,0,1,487.18,452.59Z"/><rect class="cls-2" x="466.88" y="272.04" width="21.02" height="257.96" transform="translate(-57.28 80.33) rotate(-9.08)"/><rect x="430.98" y="235.04" width="21.02" height="257.96" transform="translate(-51.9 74.2) rotate(-9.08)"/><rect x="380.68" y="235.94" width="21.02" height="213.09" transform="translate(111.69 -95.93) rotate(16.28)"/><rect class="cls-3" x="463.22" y="308.41" width="21.02" height="140.01" transform="translate(84.18 -86.21) rotate(11.41)"/><rect class="cls-2" x="424.94" y="275.13" width="21.02" height="164.98" transform="translate(101.11 -95.95) rotate(14.21)"/><rect class="cls-4" x="276.59" y="456.1" width="17.05" height="130.61" transform="translate(606 1021.59) rotate(175.99)"/><rect class="cls-4" x="315.58" y="557.28" width="17.05" height="87.31" transform="translate(1006.86 605.19) rotate(118.7)"/><rect class="cls-2" x="235.43" y="275.3" width="21.02" height="257.96" transform="translate(425.03 842.3) rotate(-170.92)"/><rect x="271.34" y="238.31" width="21.02" height="257.96" transform="translate(502.23 774.44) rotate(-170.92)"/><rect x="321.64" y="239.21" width="21.02" height="213.09" transform="translate(747.9 584.53) rotate(163.72)"/><rect class="cls-3" x="244.18" y="318.02" width="21.02" height="140.01" transform="translate(581.08 718.04) rotate(168.59)"/><rect class="cls-2" x="277.38" y="278.4" width="21.02" height="164.98" transform="translate(655.56 640.07) rotate(165.79)"/><path class="cls-3" d="M378.74,291.46l108.7,184a18.3,18.3,0,0,1-15.77,27.61L254,503a18.3,18.3,0,0,1-15.74-27.63L347.23,291.44A18.3,18.3,0,0,1,378.74,291.46Z"/><circle class="cls-2" cx="365.57" cy="530.29" r="46.79"/><path class="cls-2" d="M534,549.43,483,547a4.38,4.38,0,0,1-3.94-5.79l9.25-27a4.38,4.38,0,0,1,6.66-2.15l41.69,29.36A4.37,4.37,0,0,1,534,549.43Z"/><polygon class="cls-2" points="406.92 429.92 380.85 467.61 343.97 467.61 317.9 429.92 317.9 376.63 343.97 338.94 380.85 338.94 406.92 376.63 406.92 429.92"/><polygon class="cls-5" points="380.31 339.05 357.99 411.38 406.92 377.5 380.31 339.05"/><polygon class="cls-6" points="344.35 339.05 366.66 411.38 317.73 377.5 344.35 339.05"/><polygon class="cls-7" points="380.31 469.05 357.99 396.72 406.92 430.6 380.31 469.05"/><polygon class="cls-8" points="344.35 467.96 366.66 395.63 317.73 429.51 344.35 467.96"/><path class="cls-3" d="M569.87,571.2l-50.94-2.4A4.38,4.38,0,0,1,515,563l9.25-27a4.37,4.37,0,0,1,6.65-2.16l41.7,29.36A4.38,4.38,0,0,1,569.87,571.2Z"/><path class="cls-2" d="M193.23,549.43,244.17,547a4.38,4.38,0,0,0,3.93-5.79l-9.25-27a4.37,4.37,0,0,0-6.65-2.15l-41.7,29.36A4.37,4.37,0,0,0,193.23,549.43Z"/><path class="cls-3" d="M157.32,575.55l50.94-2.4a4.37,4.37,0,0,0,3.93-5.79l-9.25-27a4.37,4.37,0,0,0-6.65-2.16L154.6,567.6A4.38,4.38,0,0,0,157.32,575.55Z"/><rect class="cls-3" x="497.35" y="302.51" width="21.02" height="257.96" transform="translate(-61.71 85.51) rotate(-9.08)"/><rect class="cls-3" x="207.91" y="313.39" width="21.02" height="257.96" transform="translate(364.32 913.65) rotate(-170.92)"/><circle class="cls-4" cx="366.15" cy="621.7" r="25.03"/><path class="cls-4" d="M362.66,647.78c-2.48,10.06-1.44,22.94,6.76,20.26,8-3.92,10.25-16.52,7.93-21.5-1.92-5.55-4.16-15.76-7.93-17.68C365.45,627.51,364.42,637.44,362.66,647.78Z"/><path class="cls-4" d="M382.19,647.79c.89,9.46,12.41,9.7,16.6,2.42,3.83-6.7-1.38-8.76-4.5-15.46-3.16-7-7.88-12.2-10.34-7.73C382.36,631.2,381.44,639.26,382.19,647.79Z"/><path class="cls-4" d="M389,628.69c9.39,4,23.48-1.85,20.11-4.58-3.24-2.3-10.94-6-15.85-11.27-5.9-4.81-11.71-4-11.32.24C382.68,616.89,380.48,624.49,389,628.69Z"/><path class="cls-4" d="M393.57,607.88c-10.83,4.56-22.57,2.28-17.1-1.93,5.14-3.9,9.75-9.75,14.25-12.3,5.42-2.39,10.32.73,11.26,3.24C403,599.08,403.62,603.07,393.57,607.88Z"/><polygon class="cls-9" points="386.64 417.45 372.56 437.8 352.65 437.8 338.57 417.45 338.57 388.67 352.65 368.32 372.56 368.32 386.64 388.67 386.64 417.45"/><circle class="cls-10" cx="338.91" cy="415.49" r="3.81"/></g><g id="Layer_2" data-name="Layer 2"><rect class="cls-11" x="1344.4" y="287.16" width="18.26" height="24.83"/><path class="cls-12" d="M1517.81,149.34H1426a66,66,0,0,0,45.89,113.39c1.19,0,2.37,0,3.54-.1l9.23-18.21,5.71,15.67a66,66,0,0,0,27.4-110.75Z"/><path class="cls-11" d="M1473.65,459.46a46.43,46.43,0,0,1-13.6-14.28c-4.92-8.36-8.31-21.73,3.54-37.9,17.54-23.93-2.76-37.92-5.25-39.5-4.12-1.88-30.42-15.39-8.29-46.28,6.73-9.4,8.79-17.25,6.15-23.34-3-6.88-11.26-9.32-11.34-9.34l4.35-7.54c.51.14,12.51,3.54,16.94,13.73,3.59,8.24,1.22,18.26-7,29.79-18.64,26,4.25,35.64,5.23,36l.36.15.34.19c.3.19,30.29,18.48,7.56,49.48-7.73,10.55-8.72,20.88-2.94,30.7a38.66,38.66,0,0,0,11.11,11.77Z"/><path class="cls-11" d="M1391.43,459.71A46.31,46.31,0,0,0,1404,444.76c4.4-8.6,7.11-22.12-5-37.64-17.9-23,1.1-38,3.43-39.71,3.9-2.08,28.69-16.92,6.09-46.62-6.88-9-9.2-16.76-6.89-23,2.6-7,10.46-9.87,10.54-9.9l-4.51-7.31c-.48.17-11.91,4.18-15.76,14.58-3.12,8.41-.42,18.29,8,29.37,19,25-2.63,35.79-3.56,36.24l-.34.16-.32.22c-.28.19-28.43,20-5.25,49.78,7.89,10.13,9.27,20.38,4.1,30.48a38.7,38.7,0,0,1-10.22,12.32Z"/><path class="cls-12" d="M1397.61,288.76,1348.77,204c-14-24.31,3.54-54.68,31.6-54.68H1478c28.06,0,45.61,30.37,31.6,54.68l-48.83,84.74C1446.77,313.1,1411.64,313.1,1397.61,288.76Z"/><circle class="cls-11" cx="1429.47" cy="119.75" r="33.39"/><ellipse class="cls-13" cx="1561.82" cy="160.47" rx="10.18" ry="11.4"/><rect class="cls-13" x="1374.08" y="93.69" width="21.18" height="19.55"/><rect class="cls-13" x="1463.68" y="91.24" width="30.14" height="21.99"/><polygon class="cls-13" points="1554.32 148.46 1562.23 77.16 1562.23 31.79 1530.46 31.79 1530.46 106.95 1549.69 171.87 1562.23 171.87 1562.23 149.34 1554.32 148.46"/><path class="cls-13" d="M1376.12,113.23c-9.67,0-17.51-6.38-17.51-14.25s7.84-14.25,17.51-14.25"/><polygon class="cls-13" points="1444.94 78.21 1464.24 78.21 1559.78 48.96 1559.78 31.79 1444.94 31.79 1444.94 78.21"/><path class="cls-13" d="M1494.38,113.23c7.18-1.56,12.57-6.91,12.84-13.47.34-8.1-7.22-15-16.88-15.39l-1.2,28.86Z"/><path class="cls-13" d="M1397.38,110.91c3.12-11.27,21.28-16.09,40.58-10.76,9.81,2.71,18,7.52,23.31,13.08h2.41V31.79H1392v81.44h5A12.38,12.38,0,0,1,1397.38,110.91Z"/><ellipse class="cls-13" cx="1377.09" cy="449.82" rx="38.14" ry="18.2"/><rect class="cls-13" x="1366.95" y="432.33" width="48.29" height="35.69" rx="12"/><ellipse class="cls-13" cx="1338.95" cy="458.97" rx="25.95" ry="9.04"/><rect class="cls-13" x="1336.24" y="454.19" width="48.33" height="13.94"/><rect class="cls-13" x="1391.07" y="412.37" width="16.73" height="26.02"/><ellipse class="cls-13" cx="1485.91" cy="447.96" rx="38.14" ry="18.2"/><rect class="cls-13" x="1447.76" y="430.47" width="48.29" height="35.69" rx="12" transform="translate(2943.82 896.63) rotate(-180)"/><ellipse class="cls-13" cx="1524.05" cy="457.12" rx="25.95" ry="9.04"/><rect class="cls-13" x="1478.43" y="452.33" width="48.33" height="13.94" transform="translate(3005.2 918.6) rotate(-180)"/><rect class="cls-13" x="1455.2" y="410.51" width="16.73" height="26.02" transform="translate(2927.13 847.04) rotate(-180)"/><rect class="cls-14" x="1449.62" y="184.66" width="14.87" height="298.34" rx="7.44"/><polygon class="cls-15" points="1475.55 201.82 1456.85 187.91 1437.94 201.53 1440.64 178.38 1419.39 168.81 1440.79 159.57 1438.46 136.39 1457.15 150.3 1476.07 136.69 1473.36 159.83 1494.61 169.41 1473.21 178.64 1475.55 201.82"/><circle class="cls-16" cx="1412.77" cy="122.6" r="6.11"/><circle class="cls-16" cx="1441.28" cy="116.08" r="6.11"/><ellipse class="cls-17" cx="1408.7" cy="123.41" rx="3.79" ry="9.46" transform="translate(39.87 478.34) rotate(-19.54)"/><ellipse class="cls-17" cx="1435.58" cy="116.08" rx="3.79" ry="9.46" transform="translate(43.87 486.9) rotate(-19.54)"/><circle class="cls-10" cx="1412.36" cy="123.01" r="3.26"/><circle class="cls-10" cx="1440.87" cy="116.49" r="3.26"/><polygon class="cls-11" points="1352.98 309.86 1340.26 281.32 1368.36 282.66 1352.98 309.86"/><rect class="cls-12" x="1336.24" y="149.34" width="36.25" height="138.48"/><polygon class="cls-15" points="1477.22 222.77 1474.71 223.6 1491.45 259.94 1491.47 222.77 1477.22 222.77"/><ellipse class="cls-11" cx="1361.33" cy="315.71" rx="17.66" ry="20.45"/><ellipse class="cls-18" cx="1376.66" cy="317.57" rx="7.9" ry="9.29"/><ellipse class="cls-19" cx="1371.09" cy="324.54" rx="7.9" ry="10.69"/><ellipse class="cls-20" cx="1363.65" cy="325.93" rx="13.01" ry="8.83" transform="translate(482.39 1416.42) rotate(-64.5)"/><ellipse class="cls-11" cx="1363.19" cy="327.32" rx="11.62" ry="8.36" transform="translate(421.49 1365.89) rotate(-61.3)"/><ellipse class="cls-11" cx="1353.91" cy="330.12" rx="3.61" ry="6.88" transform="translate(163.12 1054.05) rotate(-45)"/><ellipse class="cls-20" cx="1345.53" cy="318.03" rx="11.62" ry="7.44" transform="translate(717.37 1549.7) rotate(-76.28)"/><ellipse class="cls-11" cx="1344.6" cy="318.03" rx="11.62" ry="7.44" transform="translate(716.66 1548.8) rotate(-76.28)"/><rect class="cls-11" x="1469.14" y="222.77" width="21.38" height="21.38"/><rect class="cls-11" x="1450.7" y="226.13" width="37.29" height="24.98" rx="11.16" transform="translate(14.1 551.96) rotate(-21.38)"/><rect class="cls-11" x="1459.19" y="216.77" width="26.26" height="24.61" rx="3.54" transform="translate(241.79 -611.16) rotate(25.48)"/><ellipse class="cls-11" cx="1457.99" cy="227.18" rx="14.87" ry="6.82"/><ellipse class="cls-11" cx="1455.69" cy="237.73" rx="11.64" ry="6.82"/><ellipse class="cls-11" cx="1455.69" cy="249.47" rx="11.64" ry="6.82"/><rect class="cls-11" x="1345.49" y="302.06" width="9.59" height="13.01" transform="translate(137.29 -360.1) rotate(15.99)"/><path class="cls-21" d="M1412,235.76l-2.93-8.58-8.73-2.45,7.25-5.44-.37-9.06,7.41,5.22,8.51-3.15-2.67,8.66,5.62,7.11-9.07.14Z"/><polygon class="cls-21" points="1431.37 264.85 1421.41 259.93 1411.71 265.35 1413.31 254.36 1405.15 246.81 1416.1 244.93 1420.76 234.85 1425.93 244.68 1436.96 245.99 1429.21 253.95 1431.37 264.85"/><polygon class="cls-21" points="1379.73 186.37 1368.21 184.94 1360.5 193.62 1358.3 182.22 1347.66 177.57 1357.82 171.96 1358.96 160.4 1367.44 168.33 1378.78 165.84 1373.86 176.35 1379.73 186.37"/><polygon class="cls-21" points="1359.54 213.7 1356.11 209.45 1350.66 209.88 1353.64 205.3 1351.55 200.25 1356.83 201.66 1360.99 198.12 1361.27 203.58 1365.92 206.43 1360.82 208.39 1359.54 213.7"/><polygon class="cls-21" points="1528.26 209.04 1523.28 206.8 1518.61 209.64 1519.2 204.21 1515.06 200.64 1520.41 199.53 1522.52 194.49 1525.23 199.22 1530.67 199.67 1527.01 203.72 1528.26 209.04"/><polygon class="cls-21" points="1416.19 289.13 1410.99 287.45 1406.66 290.77 1406.66 285.31 1402.15 282.22 1407.35 280.53 1408.89 275.29 1412.11 279.7 1417.57 279.56 1414.37 283.98 1416.19 289.13"/><ellipse class="cls-22" cx="1187.97" cy="283.21" rx="16" ry="17.92"/><polygon class="cls-22" points="1176.19 264.33 1188.61 152.29 1188.61 81 1138.7 81 1138.7 199.11 1168.92 301.12 1188.61 301.12 1188.61 265.71 1176.19 264.33"/><path class="cls-22" d="M1082,209c11.29-2.46,19.76-10.86,20.19-21.18.53-12.71-11.35-23.53-26.53-24.17L1073.77,209Z"/><polygon class="cls-10" points="1135.24 359.52 1127.42 356 1120.08 360.46 1121.01 351.93 1114.5 346.33 1122.9 344.57 1126.21 336.65 1130.48 344.1 1139.04 344.81 1133.27 351.17 1135.24 359.52"/><rect class="cls-23" x="846.34" y="482.28" width="28.69" height="39.01"/><path class="cls-24" d="M1118.83,265.72H974.63a103.66,103.66,0,0,0,72.1,178.17c1.87,0,3.72-.06,5.57-.16l14.49-28.61,9,24.61a103.66,103.66,0,0,0,43.06-174Z"/><path class="cls-23" d="M1049.43,753a72.73,72.73,0,0,1-21.36-22.42c-7.74-13.15-13.06-34.15,5.56-59.56,27.56-37.6-4.35-59.59-8.25-62.07-6.48-3-47.8-24.19-13-72.72,10.58-14.76,13.83-27.1,9.67-36.67-4.71-10.81-17.69-14.64-17.82-14.68L1011,473c.8.22,19.66,5.57,26.62,21.58,5.63,12.94,1.91,28.69-11.06,46.8-29.3,40.9,6.67,56,8.21,56.63l.56.22.54.31c.48.29,47.59,29,11.89,77.75-12.15,16.58-13.71,32.81-4.63,48.23A60.48,60.48,0,0,0,1060.62,743Z"/><path class="cls-23" d="M920.24,753.4a73,73,0,0,0,19.67-23.48c6.91-13.52,11.17-34.76-7.82-59.16-28.13-36.12,1.72-59.7,5.39-62.39,6.12-3.27,45.08-26.59,9.56-73.25-10.8-14.19-14.44-26.34-10.82-36.11,4.08-11,16.44-15.52,16.56-15.56L945.7,472c-.76.26-18.72,6.57-24.77,22.9-4.9,13.22-.66,28.75,12.59,46.16,29.94,39.32-4.12,56.24-5.58,56.94l-.53.25-.5.34c-.45.31-44.69,31.43-8.26,78.22,12.4,15.92,14.57,32,6.45,47.9A60.8,60.8,0,0,1,909,744Z"/><path class="cls-24" d="M948,516.11,835.21,320.39c-14-24.31,3.54-54.67,31.6-54.67h225.56c28.06,0,45.61,30.36,31.6,54.67L1011.19,516.11C997.16,540.46,962,540.46,948,516.11Z"/><circle class="cls-23" cx="980.01" cy="219.22" r="52.47"/><rect class="cls-22" x="892.98" y="178.26" width="33.27" height="30.71"/><rect class="cls-22" x="1033.76" y="174.42" width="47.35" height="34.55"/><path class="cls-22" d="M896.18,209c-15.19,0-27.51-10-27.51-22.4s12.32-22.39,27.51-22.39"/><polygon class="cls-22" points="1004.33 153.95 1034.64 153.95 1184.77 107.98 1184.77 81 1004.33 81 1004.33 153.95"/><path class="cls-22" d="M929.59,205.33c4.9-17.71,33.44-25.28,63.76-16.91,15.41,4.26,28.31,11.83,36.63,20.56h3.78V81H921.14V209H929A19.78,19.78,0,0,1,929.59,205.33Z"/><ellipse class="cls-22" cx="897.71" cy="737.87" rx="59.93" ry="28.59"/><rect class="cls-22" x="881.77" y="710.38" width="75.88" height="56.08" rx="12"/><ellipse class="cls-22" cx="837.78" cy="752.25" rx="40.78" ry="14.21"/><rect class="cls-22" x="833.51" y="744.73" width="75.94" height="21.91"/><rect class="cls-22" x="919.67" y="679.01" width="26.29" height="40.89"/><ellipse class="cls-22" cx="1068.69" cy="734.95" rx="59.93" ry="28.59"/><rect class="cls-22" x="1008.76" y="707.46" width="75.88" height="56.08" rx="12" transform="translate(2093.39 1470.99) rotate(-180)"/><ellipse class="cls-22" cx="1128.62" cy="749.33" rx="40.78" ry="14.21"/><rect class="cls-22" x="1056.95" y="741.81" width="75.94" height="21.91" transform="translate(2189.84 1505.52) rotate(-180)"/><rect class="cls-22" x="1020.44" y="676.09" width="26.29" height="40.89" transform="translate(2067.17 1393.07) rotate(-180)"/><rect x="1011.68" y="321.21" width="23.37" height="468.79" rx="8"/><polygon class="cls-25" points="1052.41 348.19 1023.04 326.32 993.32 347.71 997.57 311.34 964.18 296.3 997.8 281.8 994.13 245.36 1023.51 267.23 1053.23 245.83 1048.98 282.2 1082.37 297.24 1048.74 311.75 1052.41 348.19"/><circle class="cls-16" cx="953.77" cy="223.7" r="9.6"/><circle class="cls-16" cx="998.57" cy="213.46" r="9.6"/><ellipse class="cls-17" cx="947.37" cy="224.98" rx="5.95" ry="14.86" transform="translate(-20.68 329.87) rotate(-19.54)"/><ellipse class="cls-17" cx="989.61" cy="213.46" rx="5.95" ry="14.86" transform="translate(-14.39 343.33) rotate(-19.54)"/><circle class="cls-10" cx="953.13" cy="224.34" r="5.12"/><circle class="cls-10" cx="997.93" cy="214.1" r="5.12"/><polygon class="cls-23" points="859.83 517.95 839.83 473.1 883.98 475.2 859.83 517.95"/><rect class="cls-24" x="829" y="265.72" width="61.46" height="217.6"/><polygon points="1055.04 381.09 1051.1 382.41 1077.39 439.51 1077.43 381.09 1055.04 381.09"/><ellipse class="cls-23" cx="872.94" cy="527.13" rx="27.75" ry="32.13"/><ellipse class="cls-26" cx="897.04" cy="530.05" rx="12.41" ry="14.6"/><ellipse class="cls-27" cx="888.27" cy="541" rx="12.41" ry="16.79"/><ellipse class="cls-10" cx="876.59" cy="543.19" rx="20.45" ry="13.87" transform="translate(8.92 1100.53) rotate(-64.5)"/><ellipse class="cls-23" cx="875.86" cy="545.38" rx="18.25" ry="13.14" transform="translate(-23.11 1051.78) rotate(-61.3)"/><ellipse class="cls-23" cx="861.29" cy="549.78" rx="5.67" ry="10.81" transform="translate(-136.49 770.05) rotate(-45)"/><ellipse class="cls-10" cx="848.11" cy="530.78" rx="18.25" ry="11.68" transform="translate(131.28 1228.76) rotate(-76.28)"/><ellipse class="cls-23" cx="846.65" cy="530.78" rx="18.25" ry="11.68" transform="translate(130.17 1227.34) rotate(-76.28)"/><rect class="cls-23" x="1042.35" y="381.09" width="33.59" height="33.59"/><rect class="cls-23" x="1013.37" y="386.38" width="58.59" height="39.25" rx="11.16" transform="translate(-76.26 407.96) rotate(-21.38)"/><rect class="cls-23" x="1026.71" y="371.67" width="41.26" height="38.67" rx="3.54" transform="translate(270.12 -412.56) rotate(25.48)"/><ellipse class="cls-23" cx="1024.82" cy="388.03" rx="23.37" ry="10.71"/><ellipse class="cls-23" cx="1021.21" cy="404.61" rx="18.3" ry="10.71"/><ellipse class="cls-23" cx="1021.21" cy="423.05" rx="18.3" ry="10.71"/><rect class="cls-23" x="848.05" y="505.69" width="15.07" height="20.45" transform="translate(175.27 -215.77) rotate(15.99)"/><polygon class="cls-28" points="890.27 393.18 896.61 394.96 896.61 388.42 890.27 393.18"/><polygon class="cls-29" points="925.87 365.92 911.88 356.07 911.88 399.24 913.88 399.8 921.81 423 925.87 416.9 925.87 365.92"/><polygon class="cls-30" points="953.86 402.31 953.86 394.55 944.71 382.98 951.93 359.55 941.13 363.55 941.13 402.5 953.86 402.31"/><polygon class="cls-31" points="959.92 402.22 953.86 394.55 953.86 402.31 959.92 402.22"/><polygon class="cls-32" points="935.4 402.59 941.13 402.5 941.13 363.55 928.94 368.07 925.87 365.92 925.87 416.9 935.4 402.59"/><polygon class="cls-33" points="908.88 353.96 909.88 378.46 896.61 388.42 896.61 394.96 911.88 399.24 911.88 356.07 908.88 353.96"/><polygon class="cls-34" points="1001 440.75 999.94 440.62 999.94 441.84 1001 440.75"/><polygon class="cls-28" points="933.22 442.5 942.8 451.37 942.8 440.85 933.22 442.5"/><polygon class="cls-29" points="956.55 438.49 954.83 438.79 954.83 477.74 965.86 471.57 965.86 418.33 956.55 438.49"/><polygon class="cls-30" points="987.91 439.19 977.89 438 977.89 475.4 987.91 480.35 987.91 475.01 984.48 457.7 987.91 454.19 987.91 439.19"/><polygon class="cls-31" points="989.08 480.93 987.91 475.01 987.91 480.35 989.08 480.93"/><polygon class="cls-31" points="999.94 441.84 999.94 440.62 987.91 439.19 987.91 454.19 999.94 441.84"/><polygon class="cls-32" points="977.49 437.95 966.47 417 965.86 418.33 965.86 471.57 967.85 470.45 977.89 475.4 977.89 438 977.49 437.95"/><polygon class="cls-33" points="942.8 440.85 942.8 451.37 950.59 458.58 947.19 482.01 954.83 477.74 954.83 438.79 942.8 440.85"/><polygon class="cls-28" points="850.47 324.26 862.04 329.32 862.04 317.87 850.47 324.26"/><polygon class="cls-29" points="874.91 287.1 874.26 293.76 874.26 338.31 878.26 359 885.46 350.89 885.46 296.96 874.91 287.1"/><polygon class="cls-30" points="907.86 301.05 897.68 303.29 897.68 340.55 907.86 341.81 907.86 322.81 907.17 321.63 907.86 320.14 907.86 301.05"/><polygon class="cls-31" points="917.82 298.87 907.86 301.05 907.86 320.14 917.82 298.87"/><polygon class="cls-31" points="919.88 343.3 907.86 322.81 907.86 341.81 919.88 343.3"/><polygon class="cls-32" points="893.27 304.26 885.46 296.96 885.46 350.89 894.94 340.21 897.68 340.55 897.68 303.29 893.27 304.26"/><polygon class="cls-33" points="872.46 312.11 862.04 317.87 862.04 329.32 873.49 334.33 874.26 338.31 874.26 293.76 872.46 312.11"/></g></svg>