<svg xmlns="http://www.w3.org/2000/svg" width="1600" height="900" viewBox="0 0 1600 900"><defs><style>.cls-1{fill:#fff;}.cls-2{fill:#dda66b;}.cls-3{fill:#e07261;}.cls-4{fill:#795baa;}.cls-5{fill:#4d7fa0;}.cls-6{fill:#53a555;}.cls-7{fill:#a89800;}.cls-8{fill:#af6104;}.cls-9{fill:#ea3303;}.cls-10{fill:#6933a3;}.cls-11{fill:#084975;}.cls-12{fill:#046607;}.cls-13{fill:#e5d400;}.cls-14{fill:#9b4f04;}.cls-15{fill:#871e0c;}.cls-16{fill:#332a4f;}.cls-17{fill:#6f5299;}.cls-18{fill:#272233;}.cls-19{fill:#565656;}</style></defs><title>baggrund</title><g id="Layer_10" data-name="Layer 10"><rect class="cls-1" x="363.64" y="240.32" width="367.51" height="255.17"/><ellipse class="cls-2" cx="617.61" cy="487.95" rx="26.23" ry="46.19" transform="translate(-119.43 211.7) rotate(-17.76)"/><ellipse class="cls-2" cx="701.87" cy="366.71" rx="28.15" ry="27.13" transform="translate(53.23 820.99) rotate(-62.59)"/><ellipse class="cls-2" cx="693.4" cy="404.05" rx="47.74" ry="19.5" transform="translate(-99.42 279.55) rotate(-21.3)"/><ellipse class="cls-2" cx="645.17" cy="432.63" rx="28.4" ry="49.53" transform="translate(-131.59 424.91) rotate(-33.28)"/><ellipse class="cls-2" cx="683.12" cy="338.23" rx="19.42" ry="18.71" transform="translate(68.4 788.97) rotate(-62.59)"/><ellipse class="cls-2" cx="580.47" cy="488.37" rx="25.32" ry="19.01" transform="translate(-147.04 273.47) rotate(-23.62)"/><ellipse class="cls-2" cx="547.09" cy="492.45" rx="50.57" ry="20.75" transform="matrix(0.01, -1, 1, 0.01, 49.37, 1034.75)"/><ellipse class="cls-2" cx="671.51" cy="307.02" rx="58.25" ry="21.88" transform="translate(-65.6 263.98) rotate(-21.23)"/><ellipse class="cls-2" cx="661.37" cy="274.23" rx="19.42" ry="18.71" transform="translate(113.48 735.12) rotate(-62.59)"/><ellipse class="cls-2" cx="524.3" cy="478.75" rx="17.17" ry="29.05" transform="translate(-120.4 181.34) rotate(-17.64)"/><ellipse class="cls-2" cx="498.84" cy="501.7" rx="31.52" ry="16.64" transform="translate(-150.15 219.99) rotate(-21.7)"/><ellipse class="cls-2" cx="471.18" cy="494.43" rx="48.53" ry="14.04" transform="translate(-195.29 643.71) rotate(-59)"/><ellipse class="cls-2" cx="507.82" cy="488.09" rx="13.11" ry="12.63" transform="translate(-159.24 714.23) rotate(-62.59)"/><ellipse class="cls-2" cx="619.33" cy="445.55" rx="7.28" ry="7.02" transform="translate(-61.3 790.26) rotate(-62.59)"/><ellipse class="cls-2" cx="647.51" cy="292.75" rx="10.68" ry="10.29" transform="translate(89.55 732.82) rotate(-62.59)"/><ellipse class="cls-2" cx="688.66" cy="391.6" rx="15.77" ry="12.83" transform="translate(-101.01 328.12) rotate(-25.03)"/><ellipse class="cls-2" cx="638.93" cy="267.51" rx="43.59" ry="5.63" transform="translate(15.86 570.14) rotate(-48.62)"/><ellipse class="cls-2" cx="637.93" cy="255.68" rx="43.59" ry="5.63" transform="translate(24.41 565.38) rotate(-48.62)"/><ellipse class="cls-2" cx="645.6" cy="261.92" rx="20.87" ry="7.49" transform="translate(88.72 680.59) rotate(-59.02)"/><ellipse class="cls-2" cx="613.81" cy="429.32" rx="5.29" ry="14.64" transform="matrix(0.85, -0.52, 0.52, 0.85, -133.93, 385)"/><ellipse class="cls-2" cx="480.93" cy="245.86" rx="26.23" ry="46.19" transform="translate(-52.08 158.46) rotate(-17.76)"/><ellipse class="cls-2" cx="396.68" cy="367.1" rx="28.15" ry="27.13" transform="translate(-111.81 550.26) rotate(-62.59)"/><ellipse class="cls-2" cx="405.15" cy="329.75" rx="47.74" ry="19.5" transform="translate(-92.12 169.74) rotate(-21.3)"/><ellipse class="cls-2" cx="458.44" cy="304.29" rx="20.64" ry="35.99" transform="translate(-91.79 301.42) rotate(-33.28)"/><ellipse class="cls-2" cx="415.43" cy="395.58" rx="19.42" ry="18.71" transform="translate(-126.98 582.28) rotate(-62.59)"/><ellipse class="cls-2" cx="518.07" cy="245.43" rx="25.32" ry="19.01" transform="translate(-54.93 228.12) rotate(-23.62)"/><ellipse class="cls-2" cx="551.45" cy="241.35" rx="50.57" ry="20.75" transform="translate(304.77 790.44) rotate(-89.45)"/><ellipse class="cls-2" cx="427.04" cy="426.79" rx="58.25" ry="21.88" transform="translate(-125.56 183.59) rotate(-21.23)"/><ellipse class="cls-2" cx="437.18" cy="459.58" rx="19.42" ry="18.71" transform="translate(-172.06 636.13) rotate(-62.59)"/><ellipse class="cls-2" cx="574.25" cy="255.06" rx="17.17" ry="29.05" transform="matrix(0.95, -0.3, 0.3, 0.95, -50.29, 185.96)"/><ellipse class="cls-2" cx="599.7" cy="232.11" rx="31.52" ry="16.64" transform="translate(-43.32 238.18) rotate(-21.7)"/><ellipse class="cls-2" cx="627.37" cy="239.38" rx="48.53" ry="14.04" transform="matrix(0.51, -0.86, 0.86, 0.51, 99.09, 653.88)"/><ellipse class="cls-2" cx="590.72" cy="245.72" rx="13.11" ry="12.63" transform="translate(100.66 657.02) rotate(-62.59)"/><ellipse class="cls-2" cx="479.22" cy="288.26" rx="7.28" ry="7.02" transform="translate(2.72 580.99) rotate(-62.59)"/><ellipse class="cls-2" cx="451.04" cy="441.05" rx="10.68" ry="10.29" transform="translate(-148.13 638.43) rotate(-62.59)"/><ellipse class="cls-2" cx="409.88" cy="342.2" rx="15.77" ry="12.83" transform="translate(-106.29 205.54) rotate(-25.03)"/><ellipse class="cls-2" cx="460.61" cy="478.13" rx="43.59" ry="5.63" transform="translate(-202.63 507.73) rotate(-48.62)"/><ellipse class="cls-2" cx="452.95" cy="471.89" rx="20.87" ry="7.49" transform="translate(-184.78 617.32) rotate(-59.02)"/><ellipse class="cls-2" cx="484.73" cy="304.48" rx="5.29" ry="14.64" transform="translate(-87.67 298.92) rotate(-31.58)"/><ellipse class="cls-2" cx="423.11" cy="355.96" rx="7.64" ry="5.7" transform="translate(-106.96 198.63) rotate(-23.54)"/><ellipse class="cls-2" cx="513.92" cy="267.35" rx="11.49" ry="10.43" transform="translate(-64.29 302.9) rotate(-31)"/><ellipse class="cls-2" cx="467.53" cy="452.55" rx="15.05" ry="14.5" transform="translate(-149.44 659.28) rotate(-62.59)"/><ellipse class="cls-2" cx="660.12" cy="335.8" rx="8.74" ry="8.42" transform="translate(58.15 767.25) rotate(-62.59)"/><ellipse class="cls-2" cx="534.27" cy="273.84" rx="5.67" ry="20.18" transform="translate(-15.19 31.93) rotate(-3.37)"/><ellipse class="cls-2" cx="412.57" cy="277.5" rx="75.47" ry="51.34" transform="translate(-75.14 180.75) rotate(-22.71)"/><ellipse class="cls-2" cx="390.6" cy="441.17" rx="43.87" ry="72.86" transform="matrix(0.95, -0.3, 0.3, 0.95, -114.94, 138.47)"/><ellipse class="cls-2" cx="448.19" cy="526.11" rx="46.22" ry="58.61" transform="translate(-122.81 136.72) rotate(-15.28)"/><ellipse class="cls-2" cx="721.72" cy="451.8" rx="57.19" ry="74.33" transform="translate(-95.31 212.07) rotate(-15.69)"/><ellipse class="cls-2" cx="577.55" cy="192.16" rx="42.6" ry="37.95" transform="translate(-20.42 305.82) rotate(-29.16)"/><ellipse class="cls-2" cx="510.41" cy="208.1" rx="40.29" ry="38.83" transform="translate(90.71 565.43) rotate(-62.59)"/><ellipse class="cls-2" cx="677.49" cy="207.49" rx="64.36" ry="93.83" transform="translate(-31.06 205.78) rotate(-16.89)"/><ellipse class="cls-2" cx="558.05" cy="533.58" rx="136.54" ry="47.56" transform="translate(-155.05 237.59) rotate(-21.17)"/><ellipse class="cls-2" cx="736.28" cy="344.93" rx="39.59" ry="86.17" transform="translate(-70.91 247.3) rotate(-18.21)"/><ellipse class="cls-3" cx="711.97" cy="267.95" rx="65.03" ry="38.6" transform="translate(-48.61 282.48) rotate(-21.72)"/><ellipse class="cls-3" cx="546.68" cy="143.3" rx="38.62" ry="40.98" transform="translate(-1.59 6.21) rotate(-0.65)"/><ellipse class="cls-3" cx="598.08" cy="155.5" rx="27.46" ry="70.25" transform="translate(-18.7 193.73) rotate(-18.12)"/><ellipse class="cls-3" cx="636.26" cy="227.39" rx="71.33" ry="40.86" transform="translate(-5.71 438.12) rotate(-37.84)"/><ellipse class="cls-3" cx="506.78" cy="171.79" rx="26.63" ry="28.26" transform="translate(-1.92 5.76) rotate(-0.65)"/><ellipse class="cls-3" cx="711.53" cy="323.61" rx="26.77" ry="37.26" transform="translate(-62.16 212.23) rotate(-16.26)"/><ellipse class="cls-3" cx="716.24" cy="373.58" rx="69.91" ry="31.09" transform="translate(-2.16 4.17) rotate(-0.33)"/><ellipse class="cls-3" cx="463.3" cy="189.61" rx="30.81" ry="85.71" transform="translate(-36.04 154.08) rotate(-18.19)"/><ellipse class="cls-3" cx="417.68" cy="205.25" rx="26.63" ry="28.26" transform="translate(-2.3 4.75) rotate(-0.65)"/><ellipse class="cls-3" cx="696.65" cy="407.93" rx="40.9" ry="25.26" transform="translate(-101.82 288.88) rotate(-21.87)"/><ellipse class="cls-3" cx="727.68" cy="445.77" rx="23.44" ry="46.37" transform="translate(-101.37 243.51) rotate(-17.78)"/><ellipse class="cls-3" cx="716.86" cy="487.32" rx="20.83" ry="67.77" transform="translate(-84.27 818.32) rotate(-56.66)"/><ellipse class="cls-3" cx="709.11" cy="432.49" rx="17.98" ry="19.08" transform="translate(-4.86 8.08) rotate(-0.65)"/><ellipse class="cls-3" cx="653.39" cy="265.95" rx="9.99" ry="10.6" transform="translate(-2.98 7.43) rotate(-0.65)"/><ellipse class="cls-3" cx="442.91" cy="225.77" rx="14.65" ry="15.55" transform="translate(-2.53 5.04) rotate(-0.65)"/><ellipse class="cls-3" cx="580.74" cy="162.76" rx="18.06" ry="23.21" transform="translate(-22.36 158.73) rotate(-15.27)"/><ellipse class="cls-3" cx="407.78" cy="238.96" rx="8.24" ry="61.65" transform="translate(-47.33 366.5) rotate(-46.03)"/><ellipse class="cls-3" cx="391.38" cy="240.62" rx="8.24" ry="61.65" transform="translate(-53.53 355.21) rotate(-46.03)"/><ellipse class="cls-3" cx="400.22" cy="229.05" rx="11.11" ry="29.14" transform="matrix(0.55, -0.83, 0.83, 0.55, -11.84, 436.04)"/><ellipse class="cls-3" cx="630.81" cy="274.43" rx="21" ry="7.64" transform="translate(-44.56 405.25) rotate(-34.47)"/><ellipse class="cls-3" cx="373.43" cy="476.05" rx="65.03" ry="38.6" transform="translate(-149.65 171.98) rotate(-21.72)"/><ellipse class="cls-3" cx="538.72" cy="600.7" rx="38.62" ry="40.98" transform="translate(-6.78 6.15) rotate(-0.65)"/><ellipse class="cls-3" cx="487.33" cy="588.5" rx="27.46" ry="70.25" transform="translate(-158.87 180.76) rotate(-18.12)"/><ellipse class="cls-3" cx="453.6" cy="508.97" rx="51.84" ry="29.69" transform="translate(-216.85 385.27) rotate(-37.84)"/><ellipse class="cls-3" cx="578.63" cy="572.21" rx="26.63" ry="28.26" transform="translate(-6.46 6.6) rotate(-0.65)"/><ellipse class="cls-3" cx="373.88" cy="420.39" rx="26.77" ry="37.26" transform="translate(-102.78 121.54) rotate(-16.26)"/><ellipse class="cls-3" cx="369.17" cy="370.42" rx="69.91" ry="31.09" transform="translate(-2.15 2.15) rotate(-0.33)"/><ellipse class="cls-3" cx="622.11" cy="554.39" rx="30.81" ry="85.71" transform="translate(-141.96 221.87) rotate(-18.19)"/><ellipse class="cls-3" cx="667.73" cy="538.75" rx="26.63" ry="28.26" transform="translate(-6.07 7.61) rotate(-0.65)"/><ellipse class="cls-3" cx="388.75" cy="336.07" rx="40.9" ry="25.26" transform="translate(-97.21 169.01) rotate(-21.87)"/><ellipse class="cls-3" cx="357.73" cy="298.23" rx="23.44" ry="46.37" transform="translate(-73.98 123.49) rotate(-17.78)"/><ellipse class="cls-3" cx="368.55" cy="256.68" rx="20.83" ry="67.77" transform="translate(-48.45 423.47) rotate(-56.66)"/><ellipse class="cls-3" cx="376.3" cy="311.5" rx="17.98" ry="19.08" transform="translate(-3.51 4.29) rotate(-0.65)"/><ellipse class="cls-3" cx="432.01" cy="478.05" rx="9.99" ry="10.6" transform="translate(-5.4 4.93) rotate(-0.65)"/><ellipse class="cls-3" cx="642.5" cy="518.23" rx="14.65" ry="15.55" transform="translate(-5.84 7.33) rotate(-0.65)"/><ellipse class="cls-3" cx="504.67" cy="581.24" rx="18.06" ry="23.21" transform="translate(-135.29 153.48) rotate(-15.27)"/><ellipse class="cls-3" cx="694.03" cy="503.38" rx="8.24" ry="61.65" transform="translate(-150.12 653.33) rotate(-46.03)"/><ellipse class="cls-3" cx="685.19" cy="514.95" rx="11.11" ry="29.14" transform="translate(-122.63 801.46) rotate(-56.45)"/><ellipse class="cls-3" cx="454.6" cy="469.57" rx="21" ry="7.64" transform="translate(-185.95 339.78) rotate(-34.47)"/><ellipse class="cls-3" cx="524.06" cy="561.23" rx="8.03" ry="11.25" transform="translate(-136.6 169.89) rotate(-16.32)"/><ellipse class="cls-3" cx="404.07" cy="426.32" rx="14.7" ry="16.89" transform="translate(-79.2 92.45) rotate(-11.9)"/><ellipse class="cls-3" cx="658.85" cy="493.36" rx="20.64" ry="21.91" transform="translate(-5.56 7.51) rotate(-0.65)"/><ellipse class="cls-3" cx="502.78" cy="206.28" rx="11.98" ry="12.72" transform="translate(-2.31 5.72) rotate(-0.65)"/><ellipse class="cls-3" cx="413.61" cy="395.74" rx="27.97" ry="8.48" transform="translate(-29.3 33.09) rotate(-4.42)"/><ellipse class="cls-3" cx="415.29" cy="578.08" rx="72.3" ry="111.04" transform="translate(-150.56 146.28) rotate(-16.96)"/><ellipse class="cls-3" cx="640.97" cy="608.81" rx="102.59" ry="64.56" transform="matrix(0.93, -0.37, 0.37, 0.93, -181.12, 283.76)"/><ellipse class="cls-3" cx="760.02" cy="521.36" rx="82.55" ry="68" transform="translate(-149.17 370.3) rotate(-25.02)"/><ellipse class="cls-3" cx="664.89" cy="112.41" rx="104.68" ry="84.14" transform="translate(12.98 284.84) rotate(-24.41)"/><ellipse class="cls-3" cx="301.88" cy="331.97" rx="53.48" ry="62.63" transform="translate(-66.14 75.27) rotate(-12.82)"/><ellipse class="cls-3" cx="322.05" cy="432.37" rx="55.26" ry="58.65" transform="translate(-4.89 3.68) rotate(-0.65)"/><ellipse class="cls-3" cx="325.86" cy="181.99" rx="132.12" ry="94.7" transform="translate(-45.06 140.45) rotate(-22.79)"/><ellipse class="cls-3" cx="773.41" cy="356.61" rx="66.97" ry="200.92" transform="translate(-72.75 259.94) rotate(-18.24)"/><ellipse class="cls-3" cx="517.52" cy="92.02" rx="121.33" ry="58.25" transform="translate(1.76 193.45) rotate(-21.21)"/><ellipse class="cls-4" cx="626.62" cy="655.38" rx="51.12" ry="96.23" transform="translate(-42.4 43.34) rotate(-3.83)"/><ellipse class="cls-4" cx="843.25" cy="457.42" rx="57.7" ry="53.76" transform="translate(287.13 1239.11) rotate(-83.05)"/><ellipse class="cls-4" cx="809.63" cy="527.87" rx="93.01" ry="40.65" transform="translate(-55.12 96.18) rotate(-6.58)"/><ellipse class="cls-4" cx="704.85" cy="559.16" rx="55.43" ry="103.05" transform="translate(-135.57 237.97) rotate(-17.51)"/><ellipse class="cls-4" cx="821.17" cy="390" rx="39.79" ry="37.08" transform="translate(334.64 1157.93) rotate(-83.05)"/><ellipse class="cls-4" cx="556.09" cy="636.09" rx="49.33" ry="39.63" transform="translate(-95.03 97.68) rotate(-9.25)"/><ellipse class="cls-4" cx="490.97" cy="626.19" rx="104.36" ry="40.82" transform="translate(-230.82 961.13) rotate(-76.79)"/><ellipse class="cls-4" cx="813.88" cy="320.98" rx="113.48" ry="45.6" transform="translate(-31.11 94.23) rotate(-6.5)"/><ellipse class="cls-4" cx="810.13" cy="249.59" rx="39.79" ry="37.08" transform="translate(464.32 1023.56) rotate(-83.05)"/><ellipse class="cls-4" cx="454.27" cy="586.28" rx="33.46" ry="60.52" transform="translate(-37.39 30.98) rotate(-3.75)"/><ellipse class="cls-4" cx="395.26" cy="618.6" rx="61.4" ry="34.69" transform="translate(-72.13 52.52) rotate(-6.97)"/><ellipse class="cls-4" cx="346.31" cy="588.99" rx="96.9" ry="28.55" transform="translate(-319.75 436.65) rotate(-46.66)"/><ellipse class="cls-4" cx="418.67" cy="596.12" rx="26.86" ry="25.03" transform="translate(-223.74 939.56) rotate(-83.05)"/><ellipse class="cls-4" cx="649.83" cy="571.1" rx="14.92" ry="13.9" transform="translate(4.28 1147.03) rotate(-83.05)"/><ellipse class="cls-4" cx="775.17" cy="279.3" rx="21.89" ry="20.39" transform="translate(404.1 1014.96) rotate(-83.05)"/><ellipse class="cls-4" cx="806.52" cy="500.29" rx="30.73" ry="26.73" transform="translate(-83.3 170.17) rotate(-11.46)"/><ellipse class="cls-4" cx="770.82" cy="223.93" rx="86.06" ry="11.57" transform="translate(14.03 491.48) rotate(-35.67)"/><ellipse class="cls-4" cx="774.5" cy="199.6" rx="86.06" ry="11.57" transform="translate(28.91 489.06) rotate(-35.67)"/><ellipse class="cls-4" cx="786.07" cy="216.29" rx="41.67" ry="15.22" transform="translate(91.01 642.42) rotate(-46.9)"/><ellipse class="cls-4" cx="647.03" cy="535.5" rx="10.32" ry="30.47" transform="translate(-124.43 203.44) rotate(-16.32)"/><ellipse class="cls-4" cx="481.86" cy="94.72" rx="51.12" ry="96.23" transform="translate(-5.25 32.41) rotate(-3.83)"/><ellipse class="cls-4" cx="265.22" cy="292.68" rx="57.7" ry="53.76" transform="matrix(0.12, -0.99, 0.99, 0.12, -57.41, 520.53)"/><ellipse class="cls-4" cx="298.85" cy="222.23" rx="93.01" ry="40.65" transform="translate(-23.48 35.68) rotate(-6.58)"/><ellipse class="cls-4" cx="411.75" cy="199.95" rx="40.28" ry="74.89" transform="translate(-41.08 133.15) rotate(-17.51)"/><ellipse class="cls-4" cx="287.31" cy="360.1" rx="39.79" ry="37.08" transform="translate(-104.92 601.71) rotate(-83.05)"/><ellipse class="cls-4" cx="552.38" cy="114.01" rx="49.33" ry="39.63" transform="translate(-11.14 90.29) rotate(-9.25)"/><ellipse class="cls-4" cx="617.5" cy="123.91" rx="104.36" ry="40.82" transform="translate(355.8 696.78) rotate(-76.79)"/><ellipse class="cls-4" cx="294.6" cy="429.12" rx="113.48" ry="45.6" transform="translate(-46.7 36.12) rotate(-6.5)"/><ellipse class="cls-4" cx="298.34" cy="500.51" rx="39.79" ry="37.08" transform="translate(-234.6 736.08) rotate(-83.05)"/><ellipse class="cls-4" cx="654.21" cy="163.82" rx="33.46" ry="60.52" transform="translate(-9.32 43.16) rotate(-3.75)"/><ellipse class="cls-4" cx="713.21" cy="131.5" rx="61.4" ry="34.69" transform="translate(-10.69 87.5) rotate(-6.97)"/><ellipse class="cls-4" cx="762.17" cy="161.11" rx="96.9" ry="28.55" transform="translate(121.92 604.88) rotate(-46.66)"/><ellipse class="cls-4" cx="689.8" cy="153.98" rx="26.86" ry="25.03" transform="translate(453.46 820.08) rotate(-83.05)"/><ellipse class="cls-4" cx="458.64" cy="179" rx="14.92" ry="13.9" transform="translate(225.44 612.61) rotate(-83.05)"/><ellipse class="cls-4" cx="333.31" cy="470.8" rx="21.89" ry="20.39" transform="matrix(0.12, -0.99, 0.99, 0.12, -174.37, 744.67)"/><ellipse class="cls-4" cx="301.95" cy="249.81" rx="30.73" ry="26.73" transform="translate(-43.6 64.95) rotate(-11.46)"/><ellipse class="cls-4" cx="333.98" cy="550.51" rx="86.06" ry="11.57" transform="translate(-258.35 298.02) rotate(-35.67)"/><ellipse class="cls-4" cx="322.41" cy="533.81" rx="41.67" ry="15.22" transform="translate(-287.64 404.44) rotate(-46.9)"/><ellipse class="cls-4" cx="461.44" cy="214.6" rx="10.32" ry="30.47" transform="matrix(0.96, -0.28, 0.28, 0.96, -41.72, 138.34)"/><ellipse class="cls-4" cx="320.52" cy="284.64" rx="14.89" ry="11.89" transform="translate(-41.17 54.57) rotate(-9.15)"/><ellipse class="cls-4" cx="534.2" cy="155.8" rx="22.48" ry="21.66" transform="translate(-2.61 302.36) rotate(-31.53)"/><ellipse class="cls-4" cx="359.12" cy="502.84" rx="30.84" ry="28.73" transform="translate(-183.49 798.46) rotate(-83.05)"/><ellipse class="cls-4" cx="778.77" cy="372.65" rx="17.91" ry="16.68" transform="translate(314.6 1100.6) rotate(-83.05)"/><ellipse class="cls-4" cx="569.66" cy="179.88" rx="41.78" ry="11.12" transform="translate(295.48 710.64) rotate(-80.2)"/><ellipse class="cls-4" cx="337.52" cy="121.24" rx="147.02" ry="107.02" transform="translate(-13.69 48.64) rotate(-8.08)"/><ellipse class="cls-4" cx="218.83" cy="438.25" rx="85.51" ry="151.79" transform="translate(-27.9 15.08) rotate(-3.71)"/><ellipse class="cls-4" cx="287.85" cy="640.2" rx="90.13" ry="122.06" transform="translate(-27.34 13.01) rotate(-2.47)"/><ellipse class="cls-4" cx="840.75" cy="639.19" rx="111.51" ry="154.8" transform="translate(-28.92 39.94) rotate(-2.68)"/><ellipse class="cls-4" cx="690.09" cy="39.2" rx="83.14" ry="78.97" transform="translate(38.56 270) rotate(-22.76)"/><ellipse class="cls-4" cx="555.46" cy="34.83" rx="82.57" ry="76.93" transform="translate(453.66 581.99) rotate(-83.05)"/><ellipse class="cls-4" cx="872.08" cy="124.21" rx="125.46" ry="195.46" transform="translate(-5.72 50.6) rotate(-3.31)"/><ellipse class="cls-4" cx="492.34" cy="714.79" rx="266.01" ry="99.14" transform="translate(-77.17 59.83) rotate(-6.45)"/><ellipse class="cls-4" cx="918.68" cy="432.3" rx="77.15" ry="179.55" transform="translate(-28.64 67) rotate(-4.11)"/><ellipse class="cls-5" cx="200.64" cy="593.12" rx="130.24" ry="72.71" transform="translate(-220.89 130.12) rotate(-23.63)"/><ellipse class="cls-5" cx="554.79" cy="795.42" rx="78.18" ry="76.38"/><ellipse class="cls-5" cx="449.11" cy="781.83" rx="55.04" ry="132.24" transform="translate(-291.11 267.01) rotate(-25.31)"/><ellipse class="cls-5" cx="360.1" cy="655.08" rx="140.23" ry="78.42" transform="translate(-329.56 366.7) rotate(-38.51)"/><ellipse class="cls-5" cx="630.49" cy="735.51" rx="53.92" ry="52.68"/><ellipse class="cls-5" cx="192.23" cy="489.72" rx="53.68" ry="70.1" transform="translate(-198.5 137.43) rotate(-26.53)"/><ellipse class="cls-5" cx="174.37" cy="397.77" rx="141.51" ry="57.95" transform="translate(-35.7 17.64) rotate(-5.25)"/><ellipse class="cls-5" cx="715.17" cy="694.76" rx="61.75" ry="161.33" transform="translate(-228.14 371.76) rotate(-25.27)"/><ellipse class="cls-5" cx="804.55" cy="657.71" rx="53.92" ry="52.68"/><ellipse class="cls-5" cx="208.12" cy="330.56" rx="81.91" ry="47.59" transform="translate(-114.81 110.79) rotate(-23.57)"/><ellipse class="cls-5" cx="139.23" cy="265.77" rx="46.98" ry="87.28" transform="translate(-100.88 85.86) rotate(-25.51)"/><ellipse class="cls-5" cx="154.09" cy="186.72" rx="39.68" ry="134.19" transform="translate(-81.05 244.31) rotate(-64.23)"/><ellipse class="cls-5" cx="178.89" cy="287.14" rx="36.39" ry="35.56"/><ellipse class="cls-5" cx="319.09" cy="586.52" rx="20.22" ry="19.75"/><ellipse class="cls-5" cx="750.25" cy="624.05" rx="29.65" ry="28.97"/><ellipse class="cls-5" cx="482.87" cy="765.29" rx="36.23" ry="43.65" transform="translate(-297.53 307.23) rotate(-27.34)"/><ellipse class="cls-5" cx="818.89" cy="593.37" rx="15.94" ry="120.3" transform="translate(-145.06 899.1) rotate(-53.52)"/><ellipse class="cls-5" cx="851.67" cy="587.41" rx="15.94" ry="120.3" transform="translate(-126.97 923.04) rotate(-53.52)"/><ellipse class="cls-5" cx="835.78" cy="610.44" rx="21.17" ry="57.7" transform="translate(-76.77 1098.73) rotate(-64.29)"/><ellipse class="cls-5" cx="363.22" cy="566.79" rx="41.43" ry="14.61" transform="translate(-266.75 329.49) rotate(-36.71)"/><ellipse class="cls-5" cx="848.48" cy="147.17" rx="130.24" ry="72.71" transform="translate(12.14 352.38) rotate(-23.63)"/><ellipse class="cls-5" cx="494.33" cy="-55.12" rx="78.18" ry="76.38"/><ellipse class="cls-5" cx="600.01" cy="-41.54" rx="55.04" ry="132.24" transform="translate(75.34 252.5) rotate(-25.31)"/><ellipse class="cls-5" cx="681.32" cy="100.17" rx="101.9" ry="56.99" transform="translate(85.82 446.01) rotate(-38.51)"/><ellipse class="cls-5" cx="418.62" cy="4.79" rx="53.92" ry="52.68"/><ellipse class="cls-5" cx="856.88" cy="250.58" rx="53.68" ry="70.1" transform="translate(-21.69 409.14) rotate(-26.53)"/><ellipse class="cls-5" cx="874.74" cy="342.52" rx="141.51" ry="57.95" transform="translate(-27.69 81.55) rotate(-5.25)"/><ellipse class="cls-5" cx="333.94" cy="45.53" rx="61.75" ry="161.33" transform="translate(12.52 146.9) rotate(-25.27)"/><ellipse class="cls-5" cx="244.57" cy="82.59" rx="53.92" ry="52.68"/><ellipse class="cls-5" cx="841" cy="409.74" rx="81.91" ry="47.59" transform="translate(-93.68 370.45) rotate(-23.57)"/><ellipse class="cls-5" cx="909.88" cy="474.53" rx="46.98" ry="87.28" transform="translate(-115.66 438.08) rotate(-25.51)"/><ellipse class="cls-5" cx="895.02" cy="553.58" rx="39.68" ry="134.19" transform="translate(7.39 1118.93) rotate(-64.23)"/><ellipse class="cls-5" cx="870.23" cy="453.15" rx="36.39" ry="35.56"/><ellipse class="cls-5" cx="730.02" cy="153.78" rx="20.22" ry="19.75"/><ellipse class="cls-5" cx="298.87" cy="116.24" rx="29.65" ry="28.97"/><ellipse class="cls-5" cx="566.25" cy="-25" rx="36.23" ry="43.65" transform="translate(74.73 257.26) rotate(-27.34)"/><ellipse class="cls-5" cx="197.44" cy="152.89" rx="15.94" ry="120.3" transform="translate(-42.87 220.76) rotate(-53.52)"/><ellipse class="cls-5" cx="213.34" cy="129.85" rx="21.17" ry="57.7" transform="translate(3.8 265.76) rotate(-64.29)"/><ellipse class="cls-5" cx="685.89" cy="173.5" rx="41.43" ry="14.61" transform="translate(32.3 444.37) rotate(-36.71)"/><ellipse class="cls-5" cx="530.5" cy="15.57" rx="16.11" ry="21.16" transform="translate(48.74 238.24) rotate(-26.49)"/><ellipse class="cls-5" cx="795.03" cy="244.89" rx="29.5" ry="31.77" transform="translate(-10.77 451.6) rotate(-31.51)"/><ellipse class="cls-5" cx="270.06" cy="165.29" rx="41.79" ry="40.82"/><ellipse class="cls-5" cx="632.78" cy="670.77" rx="24.26" ry="23.7"/><ellipse class="cls-5" cx="780.89" cy="303.34" rx="56.58" ry="15.81" transform="translate(-37.82 125.79) rotate(-8.99)"/><ellipse class="cls-5" cx="747.02" cy="-34.87" rx="144.96" ry="208.96" transform="translate(91.1 324.33) rotate(-26.03)"/><ellipse class="cls-5" cx="286.8" cy="-52.17" rx="205.44" ry="121.62" transform="translate(44.7 110.2) rotate(-23.54)"/><ellipse class="cls-5" cx="61.36" cy="131.14" rx="165.18" ry="128.21" transform="translate(-45.6 33.56) rotate(-22.55)"/><ellipse class="cls-5" cx="321.61" cy="873.58" rx="209.49" ry="158.62" transform="translate(-312.5 192.05) rotate(-22.72)"/><ellipse class="cls-5" cx="1016.87" cy="402.06" rx="107.31" ry="117.78" transform="translate(-64.6 563.62) rotate(-30.07)"/><ellipse class="cls-5" cx="959.4" cy="219.21" rx="111.88" ry="109.3"/><ellipse class="cls-5" cx="993.6" cy="684.72" rx="264.53" ry="178.46" transform="translate(-189.55 447.6) rotate(-23.24)"/><ellipse class="cls-5" cx="61.92" cy="439.35" rx="134.24" ry="378.19" transform="translate(-181.44 68.35) rotate(-25.24)"/><ellipse class="cls-5" cx="622.17" cy="885.49" rx="243.02" ry="109.73" transform="translate(-304.67 326.78) rotate(-23.83)"/><ellipse class="cls-6" cx="834.95" cy="681.28" rx="75.93" ry="134.82" transform="translate(-207.32 407.5) rotate(-24.5)"/><ellipse class="cls-6" cx="1044.46" cy="314.18" rx="79.93" ry="80.76"/><ellipse class="cls-6" cx="1030.89" cy="423.43" rx="138.06" ry="56.98" transform="translate(-82.12 480.21) rotate(-25.25)"/><ellipse class="cls-6" cx="898.8" cy="516.18" rx="81.65" ry="145.58" transform="translate(-122.91 690.48) rotate(-39.55)"/><ellipse class="cls-6" cx="981.3" cy="236.36" rx="55.12" ry="55.69"/><ellipse class="cls-6" cx="726.79" cy="690.62" rx="73.18" ry="55.59" transform="translate(-228 384.74) rotate(-25.77)"/><ellipse class="cls-6" cx="630.69" cy="709.65" rx="60.64" ry="146.18" transform="translate(-67.26 66.04) rotate(-5.69)"/><ellipse class="cls-6" cx="938.14" cy="149.15" rx="168.44" ry="63.93" transform="translate(25.93 414.17) rotate(-25.23)"/><ellipse class="cls-6" cx="898.82" cy="57.07" rx="55.12" ry="55.69"/><ellipse class="cls-6" cx="560.14" cy="675.23" rx="49.7" ry="84.78" transform="translate(-229.37 292.65) rotate(-24.47)"/><ellipse class="cls-6" cx="492.77" cy="746.79" rx="91.12" ry="48.64" transform="translate(-272.19 282.72) rotate(-25.34)"/><ellipse class="cls-6" cx="409.95" cy="731.95" rx="138.96" ry="41.42" transform="translate(-427.44 782.81) rotate(-64.22)"/><ellipse class="cls-6" cx="514.89" cy="705.69" rx="37.21" ry="37.59"/><ellipse class="cls-6" cx="827.3" cy="558.97" rx="20.67" ry="20.89"/><ellipse class="cls-6" cx="863.93" cy="113.37" rx="30.32" ry="30.63"/><ellipse class="cls-6" cx="1013.38" cy="388.66" rx="45.56" ry="37.52" transform="translate(-67.63 485.65) rotate(-26.11)"/><ellipse class="cls-6" cx="831.4" cy="42.67" rx="124.85" ry="16.6" transform="translate(302.55 685.6) rotate(-53.5)"/><ellipse class="cls-6" cx="824.96" cy="8.84" rx="124.85" ry="16.6" transform="translate(327.13 666.72) rotate(-53.5)"/><ellipse class="cls-6" cx="849.16" cy="25.11" rx="59.75" ry="22.09" transform="translate(457.66 779.06) rotate(-64.25)"/><ellipse class="cls-6" cx="806.39" cy="513.51" rx="15.22" ry="43" transform="translate(-145.95 597.17) rotate(-37.51)"/><ellipse class="cls-6" cx="364.3" cy="14.94" rx="75.93" ry="134.82" transform="translate(26.59 152.39) rotate(-24.5)"/><ellipse class="cls-6" cx="154.79" cy="382.04" rx="79.93" ry="80.76"/><ellipse class="cls-6" cx="168.35" cy="272.8" rx="138.06" ry="56.98" transform="translate(-100.28 97.88) rotate(-25.25)"/><ellipse class="cls-6" cx="316.14" cy="187.91" rx="59.33" ry="105.79" transform="translate(-47.28 244.32) rotate(-39.55)"/><ellipse class="cls-6" cx="217.94" cy="459.86" rx="55.12" ry="55.69"/><ellipse class="cls-6" cx="472.46" cy="5.6" rx="73.18" ry="55.59" transform="translate(44.57 205.99) rotate(-25.77)"/><ellipse class="cls-6" cx="568.56" cy="-13.43" rx="60.64" ry="146.18" transform="translate(4.13 56.31) rotate(-5.69)"/><ellipse class="cls-6" cx="261.1" cy="547.07" rx="168.44" ry="63.93" transform="translate(-208.31 163.51) rotate(-25.23)"/><ellipse class="cls-6" cx="300.43" cy="639.16" rx="55.12" ry="55.69"/><ellipse class="cls-6" cx="639.1" cy="21" rx="49.7" ry="84.78" transform="translate(48.7 266.6) rotate(-24.47)"/><ellipse class="cls-6" cx="706.48" cy="-50.57" rx="91.12" ry="48.64" transform="translate(89.6 297.47) rotate(-25.34)"/><ellipse class="cls-6" cx="789.29" cy="-35.72" rx="138.96" ry="41.42" transform="translate(478.23 690.57) rotate(-64.22)"/><ellipse class="cls-6" cx="684.36" cy="-9.47" rx="37.21" ry="37.59"/><ellipse class="cls-6" cx="371.94" cy="137.26" rx="20.67" ry="20.89"/><ellipse class="cls-6" cx="335.31" cy="582.85" rx="30.32" ry="30.63"/><ellipse class="cls-6" cx="185.87" cy="307.56" rx="45.56" ry="37.52" transform="translate(-116.39 113.19) rotate(-26.11)"/><ellipse class="cls-6" cx="374.28" cy="687.38" rx="124.85" ry="16.6" transform="translate(-400.9 579.36) rotate(-53.5)"/><ellipse class="cls-6" cx="350.08" cy="671.11" rx="59.75" ry="22.09" transform="translate(-406.48 694.9) rotate(-64.25)"/><ellipse class="cls-6" cx="392.85" cy="182.71" rx="15.22" ry="43" transform="translate(-30.03 276.98) rotate(-37.51)"/><ellipse class="cls-6" cx="228.54" cy="344.23" rx="22.09" ry="16.68" transform="translate(-126.88 133.51) rotate(-25.76)"/><ellipse class="cls-6" cx="466.88" cy="69.53" rx="33.14" ry="30.57" transform="translate(21.3 225.32) rotate(-27.74)"/><ellipse class="cls-6" cx="386.82" cy="612.3" rx="42.72" ry="43.16"/><ellipse class="cls-6" cx="913.54" cy="234.41" rx="24.81" ry="25.06"/><ellipse class="cls-6" cx="528.14" cy="83.76" rx="16.54" ry="58.46" transform="translate(-6.58 88.03) rotate(-9.47)"/><ellipse class="cls-6" cx="174.43" cy="120.91" rx="218.14" ry="150.09" transform="translate(-35.1 87.1) rotate(-25.56)"/><ellipse class="cls-6" cx="159.15" cy="596.39" rx="127.01" ry="212.65" transform="translate(-232.61 119.38) rotate(-24.45)"/><ellipse class="cls-6" cx="352.36" cy="828.09" rx="133.91" ry="170.96" transform="translate(-306.22 214.77) rotate(-23.99)"/><ellipse class="cls-6" cx="1127.69" cy="554.54" rx="165.66" ry="216.82" transform="translate(-128.12 508.17) rotate(-24.07)"/><ellipse class="cls-6" cx="439" cy="-100.09" rx="114.38" ry="115.57"/><ellipse class="cls-6" cx="925.92" cy="-138.37" rx="186.37" ry="273.81" transform="translate(139.11 368.97) rotate(-24.32)"/><ellipse class="cls-6" cx="674.89" cy="825.55" rx="394.86" ry="138.98" transform="translate(-287.44 366.28) rotate(-25.22)"/><ellipse class="cls-6" cx="1138.3" cy="244" rx="114.59" ry="251.56" transform="translate(1.69 495.74) rotate(-24.59)"/><ellipse class="cls-7" cx="736.36" cy="797.25" rx="81.55" ry="144.65" transform="translate(-196.55 242.72) rotate(-16.55)"/><ellipse class="cls-7" cx="1014.93" cy="440.11" rx="85.95" ry="86.54"/><ellipse class="cls-7" cx="983.95" cy="553.9" rx="148.28" ry="61.14" transform="translate(-118.56 310.1) rotate(-16.91)"/><ellipse class="cls-7" cx="829.31" cy="631.94" rx="87.6" ry="156.37" transform="translate(-208.16 528.18) rotate(-31.6)"/><ellipse class="cls-7" cx="959.48" cy="347.84" rx="59.28" ry="59.68"/><ellipse class="cls-7" cx="619.82" cy="790.5" rx="78.59" ry="59.65" transform="translate(-205.61 218.02) rotate(-17.16)"/><ellipse class="cls-7" cx="514.64" cy="795.89" rx="156.67" ry="65.2" transform="translate(-301.91 1277.07) rotate(-87.62)"/><ellipse class="cls-7" cx="926.74" cy="248.69" rx="180.9" ry="68.6" transform="translate(-32.27 280.14) rotate(-16.9)"/><ellipse class="cls-7" cx="898.82" cy="144.96" rx="59.28" ry="59.68"/><ellipse class="cls-7" cx="444.76" cy="748.51" rx="53.38" ry="90.97" transform="translate(-194.62 157.52) rotate(-16.53)"/><ellipse class="cls-7" cx="362.22" cy="814.05" rx="97.86" ry="52.19" transform="translate(-221.58 140.95) rotate(-16.95)"/><ellipse class="cls-7" cx="276.31" cy="785.55" rx="148.89" ry="44.55" transform="translate(-529.4 575.18) rotate(-55.99)"/><ellipse class="cls-7" cx="391.99" cy="773.86" rx="40.01" ry="40.29"/><ellipse class="cls-7" cx="746.74" cy="666.32" rx="22.23" ry="22.38"/><ellipse class="cls-7" cx="853.17" cy="199.32" rx="32.6" ry="32.83"/><ellipse class="cls-7" cx="970.57" cy="514.33" rx="48.93" ry="40.26" transform="translate(-109.1 312.21) rotate(-17.32)"/><ellipse class="cls-7" cx="829.24" cy="119.31" rx="133.83" ry="17.84" transform="translate(160.56 624.02) rotate(-45.23)"/><ellipse class="cls-7" cx="827.51" cy="82.44" rx="133.83" ry="17.84" transform="translate(186.22 611.88) rotate(-45.23)"/><ellipse class="cls-7" cx="850.8" cy="103.42" rx="64.02" ry="23.76" transform="translate(289.41 751.04) rotate(-56.01)"/><ellipse class="cls-7" cx="731.36" cy="614.89" rx="16.33" ry="46.18" transform="translate(-207.92 439.61) rotate(-29.49)"/><ellipse class="cls-7" cx="336.24" cy="17.98" rx="81.55" ry="144.65" transform="translate(8.8 96.5) rotate(-16.55)"/><ellipse class="cls-7" cx="57.67" cy="375.11" rx="85.95" ry="86.54"/><ellipse class="cls-7" cx="88.65" cy="261.32" rx="148.28" ry="61.14" transform="translate(-72.17 37.08) rotate(-16.91)"/><ellipse class="cls-7" cx="258.81" cy="194.03" rx="63.66" ry="113.63" transform="matrix(0.85, -0.52, 0.52, 0.85, -63.29, 164.36)"/><ellipse class="cls-7" cx="113.12" cy="467.38" rx="59.28" ry="59.68"/><ellipse class="cls-7" cx="452.78" cy="24.72" rx="78.59" ry="59.65" transform="translate(12.86 134.67) rotate(-17.16)"/><ellipse class="cls-7" cx="557.96" cy="19.33" rx="156.67" ry="65.2" transform="translate(515.49 576.01) rotate(-87.62)"/><ellipse class="cls-7" cx="145.86" cy="566.53" rx="180.9" ry="68.6" transform="translate(-158.39 66.87) rotate(-16.9)"/><ellipse class="cls-7" cx="173.78" cy="670.26" rx="59.28" ry="59.68"/><ellipse class="cls-7" cx="627.84" cy="66.71" rx="53.38" ry="90.97" transform="translate(6.97 181.42) rotate(-16.53)"/><ellipse class="cls-7" cx="710.38" cy="1.18" rx="97.86" ry="52.19" transform="translate(30.51 207.15) rotate(-16.95)"/><ellipse class="cls-7" cx="796.29" cy="29.67" rx="148.89" ry="44.55" transform="translate(326.27 673.13) rotate(-55.99)"/><ellipse class="cls-7" cx="680.62" cy="41.36" rx="40.01" ry="40.29"/><ellipse class="cls-7" cx="325.87" cy="148.9" rx="22.23" ry="22.38"/><ellipse class="cls-7" cx="219.43" cy="615.91" rx="32.6" ry="32.83"/><ellipse class="cls-7" cx="102.03" cy="300.89" rx="48.93" ry="40.26" transform="matrix(0.95, -0.3, 0.3, 0.95, -84.94, 44.01)"/><ellipse class="cls-7" cx="245.1" cy="732.78" rx="133.83" ry="17.84" transform="translate(-447.76 390.74) rotate(-45.23)"/><ellipse class="cls-7" cx="221.8" cy="711.8" rx="64.02" ry="23.76" transform="translate(-492.38 497.77) rotate(-56.01)"/><ellipse class="cls-7" cx="341.24" cy="200.33" rx="16.33" ry="46.18" transform="translate(-54.41 193.91) rotate(-29.49)"/><ellipse class="cls-7" cx="141.9" cy="346.36" rx="23.72" ry="17.89" transform="translate(-95.82 57.24) rotate(-17.15)"/><ellipse class="cls-7" cx="437.18" cy="91.68" rx="35.59" ry="32.81" transform="translate(-6.86 140.26) rotate(-18.09)"/><ellipse class="cls-7" cx="269.8" cy="655.07" rx="45.94" ry="46.25"/><ellipse class="cls-7" cx="887.65" cy="335.34" rx="26.67" ry="26.86"/><ellipse class="cls-7" cx="500.22" cy="116.2" rx="17.78" ry="62.67" transform="translate(-2.68 12.22) rotate(-1.4)"/><ellipse class="cls-7" cx="118.1" cy="101.14" rx="234.28" ry="161.05" transform="translate(-24.47 39.09) rotate(-17.06)"/><ellipse class="cls-7" cx="29.87" cy="603.14" rx="136.41" ry="228.16" transform="matrix(0.96, -0.28, 0.28, 0.96, -170.34, 33.41)"/><ellipse class="cls-7" cx="200.47" cy="878.66" rx="143.83" ry="183.42" transform="translate(-238.58 91.59) rotate(-16.3)"/><ellipse class="cls-7" cx="1067.14" cy="707.89" rx="177.93" ry="232.64" transform="matrix(0.96, -0.28, 0.28, 0.96, -156.07, 328.86)"/><ellipse class="cls-7" cx="433.17" cy="-92.54" rx="123" ry="123.84"/><ellipse class="cls-7" cx="957.25" cy="-58.18" rx="200.17" ry="293.78" transform="translate(55.71 268.84) rotate(-16.46)"/><ellipse class="cls-7" cx="544.15" cy="925.63" rx="424.07" ry="149.12" transform="translate(-245.5 198.07) rotate(-16.89)"/><ellipse class="cls-7" cx="1125.44" cy="380.12" rx="123.07" ry="269.91" transform="translate(-61.68 337.17) rotate(-16.59)"/><ellipse class="cls-8" cx="893.13" cy="732.37" rx="98.81" ry="170.19" transform="translate(-258.74 647.19) rotate(-35.12)"/><ellipse class="cls-8" cx="1032.68" cy="181.7" rx="108.26" ry="97.95" transform="translate(607.79 1140.3) rotate(-76.07)"/><ellipse class="cls-8" cx="1049.45" cy="326.36" rx="181.03" ry="71.39" transform="translate(70.53 825.93) rotate(-44.31)"/><ellipse class="cls-8" cx="919.6" cy="496.67" rx="108.56" ry="179.88" transform="translate(-39.77 911.34) rotate(-51.75)"/><ellipse class="cls-8" cx="933.72" cy="107.34" rx="74.66" ry="67.55" transform="translate(604.82 987.78) rotate(-76.07)"/><ellipse class="cls-8" cx="766.7" cy="786.89" rx="96.34" ry="69.36" transform="translate(-329.89 854.1) rotate(-49.25)"/><ellipse class="cls-8" cx="657.61" cy="849.02" rx="76.61" ry="190.09" transform="translate(-227.82 241.32) rotate(-17.78)"/><ellipse class="cls-8" cx="855.82" cy="13.12" rx="220.82" ry="80.11" transform="translate(232.44 599.64) rotate(-44.13)"/><ellipse class="cls-8" cx="562.91" cy="832.91" rx="64.66" ry="107.06" transform="translate(-374.42 469.58) rotate(-34.76)"/><ellipse class="cls-8" cx="504" cy="950.71" rx="119.57" ry="60.9" transform="translate(-525.83 638.76) rotate(-45.22)"/><ellipse class="cls-8" cx="400.56" cy="964.4" rx="186.59" ry="50.68" transform="translate(-621.57 1178.32) rotate(-79.27)"/><ellipse class="cls-8" cx="518.03" cy="889.58" rx="50.4" ry="45.6" transform="translate(-470.08 1178.29) rotate(-76.07)"/><ellipse class="cls-8" cx="847.08" cy="579.4" rx="28" ry="25.33" transform="translate(80.84 1262.13) rotate(-76.07)"/><ellipse class="cls-8" cx="756.34" cy="-3.27" rx="41.06" ry="37.15" transform="translate(577.48 731.63) rotate(-76.07)"/><ellipse class="cls-8" cx="1018.03" cy="288.92" rx="60.12" ry="46.72" transform="translate(161.73 910.7) rotate(-51.83)"/><ellipse class="cls-8" cx="696.12" cy="-80.62" rx="167.76" ry="20.29" transform="translate(529.27 600) rotate(-69.62)"/><ellipse class="cls-8" cx="678.21" cy="-121.22" rx="167.76" ry="20.29" transform="translate(555.65 556.75) rotate(-69.62)"/><ellipse class="cls-8" cx="808.37" cy="529.67" rx="20.2" ry="53.22" transform="translate(-112.94 821.57) rotate(-50.81)"/><ellipse class="cls-8" cx="129.56" cy="68.02" rx="98.81" ry="170.19" transform="translate(-15.55 86.93) rotate(-35.12)"/><ellipse class="cls-8" cx="-9.99" cy="618.7" rx="108.26" ry="97.95" transform="translate(-608.1 460.1) rotate(-76.07)"/><ellipse class="cls-8" cx="-26.75" cy="474.04" rx="181.03" ry="71.39" transform="translate(-338.75 116.15) rotate(-44.31)"/><ellipse class="cls-8" cx="124.23" cy="307.57" rx="78.89" ry="130.72" transform="translate(-194.22 214.71) rotate(-51.75)"/><ellipse class="cls-8" cx="88.97" cy="693.06" rx="74.66" ry="67.55" transform="translate(-605.13 612.62) rotate(-76.07)"/><ellipse class="cls-8" cx="255.99" cy="13.51" rx="96.34" ry="69.36" transform="translate(78.66 198.63) rotate(-49.25)"/><ellipse class="cls-8" cx="365.09" cy="-48.62" rx="76.61" ry="190.09" transform="translate(32.28 109.15) rotate(-17.78)"/><ellipse class="cls-8" cx="166.88" cy="787.27" rx="220.82" ry="80.11" transform="translate(-501.1 338.44) rotate(-44.13)"/><ellipse class="cls-8" cx="241.67" cy="889.21" rx="74.66" ry="67.55" transform="translate(-679.57 909.77) rotate(-76.07)"/><ellipse class="cls-8" cx="459.78" cy="-32.51" rx="64.66" ry="107.06" transform="translate(100.59 256.34) rotate(-34.76)"/><ellipse class="cls-8" cx="622.14" cy="-164" rx="186.59" ry="50.68" transform="translate(667.39 477.8) rotate(-79.27)"/><ellipse class="cls-8" cx="175.62" cy="221" rx="28" ry="25.33" transform="translate(-81.15 338.27) rotate(-76.07)"/><ellipse class="cls-8" cx="266.36" cy="803.67" rx="41.06" ry="37.15" transform="translate(-577.79 868.78) rotate(-76.07)"/><ellipse class="cls-8" cx="4.67" cy="511.48" rx="60.12" ry="46.72" transform="translate(-400.32 199.05) rotate(-51.83)"/><ellipse class="cls-8" cx="344.48" cy="921.62" rx="167.76" ry="20.29" transform="translate(-639.41 923.58) rotate(-69.62)"/><ellipse class="cls-8" cx="310.65" cy="910.4" rx="80.24" ry="27.03" transform="translate(-641.77 1045.47) rotate(-79.23)"/><ellipse class="cls-8" cx="214.33" cy="270.73" rx="20.2" ry="53.22" transform="translate(-130.93 265.8) rotate(-50.81)"/><ellipse class="cls-8" cx="66.73" cy="541.43" rx="29.08" ry="20.81" transform="translate(-386.21 237.39) rotate(-49.1)"/><ellipse class="cls-8" cx="268.63" cy="97.23" rx="44.03" ry="37.8" transform="translate(49.61 280.66) rotate(-59.84)"/><ellipse class="cls-8" cx="336.8" cy="820.93" rx="57.86" ry="52.35" transform="translate(-541.06 950.25) rotate(-76.07)"/><ellipse class="cls-8" cx="852.15" cy="131.54" rx="33.6" ry="30.4" transform="translate(519.39 926.99) rotate(-76.07)"/><ellipse class="cls-8" cx="346.12" cy="91.24" rx="21.03" ry="75.53" transform="translate(-8.94 136.61) rotate(-22.05)"/><ellipse class="cls-8" cx="-65.35" cy="277.95" rx="286.76" ry="187.58" transform="translate(-225.75 41.74) rotate(-47.41)"/><ellipse class="cls-8" cx="59.93" cy="890.33" rx="165.21" ry="268.57" transform="translate(-494.6 191.2) rotate(-34.57)"/><ellipse class="cls-8" cx="1204.7" cy="455.43" rx="214.52" ry="275.08" transform="translate(-69.03 646.04) rotate(-29.22)"/><ellipse class="cls-8" cx="184.1" cy="-108.09" rx="154.93" ry="140.17" transform="translate(244.71 96.62) rotate(-76.07)"/><ellipse class="cls-8" cx="745.41" cy="979.4" rx="517.61" ry="174.17" transform="translate(-471.15 792.77) rotate(-44)"/><ellipse class="cls-8" cx="1123.65" cy="55.23" rx="149.27" ry="317.25" transform="translate(185.92 676.77) rotate(-36.35)"/><ellipse class="cls-9" cx="1005.07" cy="100.2" rx="183.38" ry="107.63" transform="translate(31.36 368.7) rotate(-21.11)"/><ellipse class="cls-9" cx="791.13" cy="-12.66" rx="200.43" ry="114.35" transform="translate(167.06 473.73) rotate(-37.02)"/><ellipse class="cls-9" cx="1003.8" cy="255.11" rx="75.55" ry="103.82" transform="translate(-30.7 305.04) rotate(-17.02)"/><ellipse class="cls-9" cx="1017.11" cy="394.18" rx="197.53" ry="86.53" transform="translate(-2.22 5.79) rotate(-0.33)"/><ellipse class="cls-9" cx="302.45" cy="-117.81" rx="86.91" ry="238.9" transform="translate(53.1 89.99) rotate(-18.52)"/><ellipse class="cls-9" cx="173.55" cy="-74.31" rx="75.25" ry="78.66" transform="translate(1.15 2.63) rotate(-0.87)"/><ellipse class="cls-9" cx="961.78" cy="489.78" rx="115.32" ry="70.45" transform="translate(-112.06 381.27) rotate(-21.22)"/><ellipse class="cls-9" cx="1049.43" cy="595.1" rx="66.12" ry="129.25" transform="translate(-133.42 357.81) rotate(-18.21)"/><ellipse class="cls-9" cx="1018.87" cy="710.75" rx="58.23" ry="190.62" transform="matrix(0.54, -0.84, 0.84, 0.54, -131.03, 1180.85)"/><ellipse class="cls-9" cx="996.98" cy="558.15" rx="50.79" ry="53.1" transform="translate(-8.38 15.24) rotate(-0.87)"/><ellipse class="cls-9" cx="839.55" cy="94.64" rx="28.22" ry="29.5" transform="translate(-1.34 12.79) rotate(-0.87)"/><ellipse class="cls-9" cx="244.83" cy="-17.2" rx="41.39" ry="43.27" transform="translate(0.29 3.72) rotate(-0.87)"/><ellipse class="cls-9" cx="145.56" cy="19.53" rx="23.1" ry="172.94" transform="translate(31.16 111.62) rotate(-46.47)"/><ellipse class="cls-9" cx="99.23" cy="24.14" rx="23.1" ry="172.94" transform="translate(13.39 79.46) rotate(-46.47)"/><ellipse class="cls-9" cx="124.21" cy="-8.06" rx="31.05" ry="81.97" transform="translate(63.29 100.49) rotate(-56.99)"/><ellipse class="cls-9" cx="775.73" cy="118.25" rx="59.06" ry="21.36" transform="translate(66.2 453.38) rotate(-33.95)"/><ellipse class="cls-9" cx="48.53" cy="679.38" rx="183.38" ry="107.63" transform="matrix(0.93, -0.36, 0.36, 0.93, -241.42, 63.07)"/><ellipse class="cls-9" cx="370.33" cy="992.34" rx="77.46" ry="195.82" transform="translate(-295.35 168.48) rotate(-18.47)"/><ellipse class="cls-9" cx="275.04" cy="771" rx="145.65" ry="83.1" transform="translate(-408.74 320.96) rotate(-37.02)"/><ellipse class="cls-9" cx="628.31" cy="947" rx="75.25" ry="78.66" transform="translate(-14.34 9.67) rotate(-0.87)"/><ellipse class="cls-9" cx="49.79" cy="524.47" rx="75.55" ry="103.82" transform="translate(-151.36 37.55) rotate(-17.02)"/><ellipse class="cls-9" cx="36.48" cy="385.4" rx="197.53" ry="86.53" transform="matrix(1, -0.01, 0.01, 1, -2.19, 0.21)"/><ellipse class="cls-9" cx="751.14" cy="897.39" rx="86.91" ry="238.9" transform="translate(-246.19 285.14) rotate(-18.52)"/><ellipse class="cls-9" cx="880.04" cy="853.89" rx="75.25" ry="78.66" transform="translate(-12.89 13.49) rotate(-0.87)"/><ellipse class="cls-9" cx="91.81" cy="289.8" rx="115.32" ry="70.45" transform="translate(-98.66 52.87) rotate(-21.22)"/><ellipse class="cls-9" cx="4.16" cy="184.48" rx="66.12" ry="129.25" transform="translate(-57.45 10.54) rotate(-18.21)"/><ellipse class="cls-9" cx="34.72" cy="68.83" rx="58.23" ry="190.62" transform="matrix(0.54, -0.84, 0.84, 0.54, -41.93, 60.64)"/><ellipse class="cls-9" cx="56.62" cy="221.42" rx="50.79" ry="53.1" transform="translate(-3.36 0.89) rotate(-0.87)"/><ellipse class="cls-9" cx="214.04" cy="684.93" rx="28.22" ry="29.5" transform="translate(-10.4 3.34) rotate(-0.87)"/><ellipse class="cls-9" cx="808.76" cy="796.77" rx="41.39" ry="43.27" transform="translate(-12.03 12.4) rotate(-0.87)"/><ellipse class="cls-9" cx="954.36" cy="755.44" rx="23.1" ry="172.94" transform="translate(-250.63 927.16) rotate(-46.47)"/><ellipse class="cls-9" cx="929.38" cy="787.64" rx="31.05" ry="81.97" transform="translate(-237.45 1137.81) rotate(-56.99)"/><ellipse class="cls-9" cx="277.86" cy="661.33" rx="59.06" ry="21.36" transform="translate(-321.96 267.91) rotate(-33.95)"/><ellipse class="cls-9" cx="474.12" cy="916.43" rx="22.66" ry="31.34" transform="translate(-248.09 179.52) rotate(-17.07)"/><ellipse class="cls-9" cx="135.08" cy="540.97" rx="41.51" ry="47.05" transform="translate(-120.82 45.58) rotate(-13.3)"/><ellipse class="cls-9" cx="854.96" cy="727.56" rx="58.32" ry="60.96" transform="translate(-10.97 13.09) rotate(-0.87)"/><ellipse class="cls-9" cx="162.05" cy="455.86" rx="79.02" ry="23.6" transform="translate(-34.07 13.59) rotate(-4.35)"/><ellipse class="cls-9" cx="166.78" cy="963.33" rx="204.01" ry="309.46" transform="matrix(0.95, -0.3, 0.3, 0.95, -283.08, 95.32)"/><ellipse class="cls-9" cx="804.45" cy="1048.85" rx="289.26" ry="180.03" transform="translate(-325.74 363.36) rotate(-21.27)"/><ellipse class="cls-9" cx="1140.83" cy="805.46" rx="232.66" ry="189.73" transform="translate(-225.9 518.57) rotate(-23.37)"/><ellipse class="cls-9" cx="-96.66" cy="557.82" rx="156.14" ry="163.23" transform="translate(-8.5 -1.41) rotate(-0.87)"/><ellipse class="cls-9" cx="-85.89" cy="-139.04" rx="372.5" ry="264.15" transform="translate(45.59 -41.98) rotate(-21.86)"/><ellipse class="cls-9" cx="1178.67" cy="346.95" rx="188.94" ry="560.03" transform="translate(-49.13 393.24) rotate(-18.56)"/><ellipse class="cls-10" cx="317.25" cy="988.83" rx="227.7" ry="125.85" transform="translate(-690.09 736.45) rotate(-58.15)"/><ellipse class="cls-10" cx="1012.15" cy="956.92" rx="136.63" ry="132.25" transform="translate(-151.87 1721.91) rotate(-76.71)"/><ellipse class="cls-10" cx="847.83" cy="1036.6" rx="96.21" ry="228.9" transform="translate(-485.23 1164.32) rotate(-56.19)"/><ellipse class="cls-10" cx="603.33" cy="930.77" rx="247.29" ry="134.56" transform="translate(-465.84 1226.05) rotate(-72.49)"/><ellipse class="cls-10" cx="1065.78" cy="795.38" rx="94.22" ry="91.21" transform="translate(46.65 1649.71) rotate(-76.71)"/><ellipse class="cls-10" cx="210.03" cy="841.68" rx="93.84" ry="121.35" transform="translate(-598.2 526.55) rotate(-54.69)"/><ellipse class="cls-10" cx="99.78" cy="720.69" rx="244.28" ry="101.58" transform="translate(-432.83 225.03) rotate(-39.18)"/><ellipse class="cls-10" cx="1149.94" cy="654.08" rx="107.94" ry="279.25" transform="translate(-32.89 1246.61) rotate(-56.24)"/><ellipse class="cls-10" cx="1244.24" cy="513.88" rx="94.22" ry="91.21" transform="translate(458.03 1606.62) rotate(-76.71)"/><ellipse class="cls-10" cx="86.4" cy="587.92" rx="143.19" ry="82.37" transform="translate(-458.85 351.66) rotate(-58.21)"/><ellipse class="cls-10" cx="-72.17" cy="555.97" rx="82.13" ry="151.08" transform="matrix(0.56, -0.83, 0.83, 0.56, -492.41, 184.89)"/><ellipse class="cls-10" cx="-123.56" cy="423.33" rx="228.87" ry="70.41" transform="translate(-50.77 -11.62) rotate(-6.77)"/><ellipse class="cls-10" cx="4.47" cy="550.48" rx="63.6" ry="61.57" transform="translate(-532.29 428.25) rotate(-76.71)"/><ellipse class="cls-10" cx="481.34" cy="866.75" rx="35.33" ry="34.2" transform="translate(-472.87 1135.9) rotate(-76.71)"/><ellipse class="cls-10" cx="1135.27" cy="514.82" rx="51.82" ry="50.17" transform="translate(373.2 1501.28) rotate(-76.71)"/><ellipse class="cls-10" cx="1205.64" cy="403.8" rx="28.25" ry="205.38" transform="translate(710.73 1575) rotate(-85.61)"/><ellipse class="cls-10" cx="1247.25" cy="363.81" rx="28.25" ry="205.38" transform="translate(789.02 1579.55) rotate(-85.61)"/><ellipse class="cls-10" cx="1245.61" cy="413.41" rx="98.41" ry="37.55" transform="translate(-40.41 151.47) rotate(-6.85)"/><ellipse class="cls-10" cx="526.59" cy="795.39" rx="72.99" ry="25.09" transform="translate(-399.91 1022.42) rotate(-70.26)"/><ellipse class="cls-10" cx="1055.07" cy="-25.34" rx="244.28" ry="101.58" transform="translate(253.17 660.79) rotate(-39.18)"/><ellipse class="cls-10" cx="4.91" cy="41.27" rx="107.94" ry="279.25" transform="translate(-32.14 22.42) rotate(-56.24)"/><ellipse class="cls-10" cx="-89.4" cy="181.48" rx="94.22" ry="91.21" transform="translate(-245.45 52.75) rotate(-76.71)"/><ellipse class="cls-10" cx="1068.44" cy="107.43" rx="143.19" ry="82.37" transform="translate(414.29 959.01) rotate(-58.21)"/><ellipse class="cls-10" cx="1227.01" cy="139.39" rx="82.13" ry="151.08" transform="translate(424.52 1078) rotate(-55.95)"/><ellipse class="cls-10" cx="1278.4" cy="272.03" rx="228.87" ry="70.41" transform="translate(-23.16 152.63) rotate(-6.77)"/><ellipse class="cls-10" cx="1150.38" cy="144.88" rx="63.6" ry="61.57" transform="translate(744.86 1231.11) rotate(-76.71)"/><ellipse class="cls-10" cx="19.58" cy="180.54" rx="51.82" ry="50.17" transform="translate(-160.62 158.08) rotate(-76.71)"/><ellipse class="cls-10" cx="-92.4" cy="331.54" rx="28.25" ry="205.38" transform="translate(-415.9 214.03) rotate(-85.61)"/><ellipse class="cls-10" cx="-90.77" cy="281.94" rx="98.41" ry="37.55" transform="translate(-34.26 -8.81) rotate(-6.85)"/><ellipse class="cls-10" cx="23.32" cy="281.39" rx="73.02" ry="70.69" transform="translate(-255.89 239.39) rotate(-76.71)"/><ellipse class="cls-10" cx="1009.5" cy="696.1" rx="42.4" ry="41.04" transform="translate(99.93 1518.49) rotate(-76.71)"/><ellipse class="cls-10" cx="884.2" cy="4.76" rx="97.91" ry="27.65" transform="translate(231.35 601.1) rotate(-42.72)"/><ellipse class="cls-10" cx="-152.72" cy="-60.64" rx="359.16" ry="210.51" transform="translate(-20.78 -158.59) rotate(-58.25)"/><ellipse class="cls-10" cx="1314.02" cy="-70.61" rx="187.51" ry="203.95" transform="translate(522.03 980.29) rotate(-49.92)"/><ellipse class="cls-10" cx="1540.67" cy="375.39" rx="462.48" ry="308.88" transform="translate(417.14 1494.43) rotate(-58.58)"/><ellipse class="cls-10" cx="-23.52" cy="889.53" rx="234.66" ry="654.64" transform="matrix(0.56, -0.83, 0.83, 0.56, -750.27, 376.06)"/><ellipse class="cls-10" cx="1191.83" cy="1028.22" rx="424.86" ry="189.93" transform="matrix(0.53, -0.85, 0.85, 0.53, -312.35, 1492.04)"/><ellipse class="cls-11" cx="25.47" cy="795.9" rx="234.19" ry="133.11" transform="translate(-330.8 83.74) rotate(-24.74)"/><ellipse class="cls-11" cx="310.89" cy="909.83" rx="253.73" ry="142.67" transform="translate(-511.81 412.22) rotate(-39.97)"/><ellipse class="cls-11" cx="10.42" cy="605.73" rx="96.57" ry="128.27" transform="translate(-248.27 57.92) rotate(-24.29)"/><ellipse class="cls-11" cx="-21.55" cy="436.65" rx="253.35" ry="106.55" transform="translate(-41.63 -0.07) rotate(-5.46)"/><ellipse class="cls-11" cx="946.45" cy="982.81" rx="111.06" ry="295.27" transform="translate(-322.16 480.49) rotate(-24.48)"/><ellipse class="cls-11" cx="1106.43" cy="914.67" rx="96.51" ry="96.87"/><ellipse class="cls-11" cx="38.85" cy="313.03" rx="147.27" ry="87.13" transform="translate(-127.51 45.03) rotate(-24.75)"/><ellipse class="cls-11" cx="-84.44" cy="193.89" rx="84.5" ry="159.73" transform="translate(-87.79 -17.56) rotate(-24.44)"/><ellipse class="cls-11" cx="-57.85" cy="48.51" rx="72.6" ry="241.45" transform="translate(-75.45 -24.9) rotate(-63.5)"/><ellipse class="cls-11" cx="-13.46" cy="233.19" rx="65.14" ry="65.39"/><ellipse class="cls-11" cx="237.5" cy="783.75" rx="36.19" ry="36.33"/><ellipse class="cls-11" cx="1009.23" cy="852.78" rx="53.08" ry="53.28"/><ellipse class="cls-11" cx="1132.09" cy="796.36" rx="29.02" ry="217.44" transform="translate(-187.03 1215.55) rotate(-52.75)"/><ellipse class="cls-11" cx="1190.77" cy="785.39" rx="29.02" ry="217.44" transform="translate(-155.14 1257.93) rotate(-52.75)"/><ellipse class="cls-11" cx="1162.32" cy="827.75" rx="38.72" ry="103.82" transform="translate(-97.23 1498.34) rotate(-63.49)"/><ellipse class="cls-11" cx="316.48" cy="747.47" rx="74.9" ry="26.6" transform="translate(-390.79 349.17) rotate(-37.67)"/><ellipse class="cls-11" cx="1185.06" cy="-24.21" rx="234.19" ry="133.11" transform="translate(118.94 493.8) rotate(-24.74)"/><ellipse class="cls-11" cx="885.85" cy="-110.65" rx="184.38" ry="103.67" transform="translate(277.99 543.17) rotate(-39.97)"/><ellipse class="cls-11" cx="1200.1" cy="165.96" rx="96.57" ry="128.27" transform="translate(37.99 508.41) rotate(-24.29)"/><ellipse class="cls-11" cx="1232.07" cy="335.04" rx="253.35" ry="106.55" transform="translate(-26.28 118.72) rotate(-5.46)"/><ellipse class="cls-11" cx="264.07" cy="-211.13" rx="111.06" ry="295.27" transform="translate(111.22 90.44) rotate(-24.48)"/><ellipse class="cls-11" cx="1171.67" cy="458.65" rx="147.27" ry="87.13" transform="translate(-84.39 532.75) rotate(-24.75)"/><ellipse class="cls-11" cx="1294.97" cy="577.8" rx="84.5" ry="159.73" transform="translate(-123.02 587.6) rotate(-24.44)"/><ellipse class="cls-11" cx="1268.37" cy="723.18" rx="72.6" ry="241.45" transform="translate(55.21 1535.57) rotate(-63.5)"/><ellipse class="cls-11" cx="1223.98" cy="538.49" rx="65.14" ry="65.39"/><ellipse class="cls-11" cx="973.03" cy="-12.06" rx="36.19" ry="36.33"/><ellipse class="cls-11" cx="19.75" cy="-13.7" rx="29.02" ry="217.44" transform="translate(18.7 10.31) rotate(-52.75)"/><ellipse class="cls-11" cx="48.2" cy="-56.06" rx="38.72" ry="103.82" transform="translate(76.85 12.09) rotate(-63.49)"/><ellipse class="cls-11" cx="894.04" cy="24.21" rx="74.9" ry="26.6" transform="translate(171.54 551.36) rotate(-37.67)"/><ellipse class="cls-11" cx="1089.38" cy="155.49" rx="53.11" ry="58.09" transform="translate(29.26 450.57) rotate(-23.68)"/><ellipse class="cls-11" cx="149.72" cy="9.11" rx="74.79" ry="75.07"/><ellipse class="cls-11" cx="798.98" cy="938.69" rx="43.43" ry="43.59"/><ellipse class="cls-11" cx="1064.09" cy="262.99" rx="101.34" ry="29.06" transform="translate(-28.48 174.99) rotate(-9.28)"/><ellipse class="cls-11" cx="1003.45" cy="-358.99" rx="260.74" ry="382.39" transform="translate(237.46 381.98) rotate(-24.36)"/><ellipse class="cls-11" cx="-223.83" cy="-53.7" rx="296.96" ry="234.76" transform="translate(1.77 -99.38) rotate(-24.94)"/><ellipse class="cls-11" cx="1486.46" cy="444.53" rx="193.14" ry="215.4" transform="translate(-52.84 638.72) rotate(-23.84)"/><ellipse class="cls-11" cx="1383.59" cy="108.26" rx="200.26" ry="201.01"/><ellipse class="cls-11" cx="1444.81" cy="964.34" rx="475.62" ry="326.73" transform="translate(-271.31 695.31) rotate(-24.81)"/><ellipse class="cls-11" cx="-222.83" cy="513.11" rx="241.43" ry="692.18" transform="translate(-232.67 -46.21) rotate(-24.48)"/><ellipse class="cls-12" cx="1322.6" cy="668.16" rx="121.13" ry="273.45" transform="translate(131.53 1549.67) rotate(-63.31)"/><ellipse class="cls-12" cx="1160.39" cy="-33.53" rx="127.55" ry="163.76" transform="translate(736.7 1047.26) rotate(-66.94)"/><ellipse class="cls-12" cx="1281.56" cy="133.39" rx="220.66" ry="115.36" transform="translate(503.85 1160.69) rotate(-58.81)"/><ellipse class="cls-12" cx="1204.25" cy="378.66" rx="130.36" ry="295.06" transform="translate(495.92 1423.58) rotate(-73.32)"/><ellipse class="cls-12" cx="965.26" cy="-89.89" rx="87.96" ry="112.94" transform="translate(669.86 833.44) rotate(-66.94)"/><ellipse class="cls-12" cx="1173.07" cy="774.33" rx="118.25" ry="111.31" transform="translate(-232.18 805.08) rotate(-34.68)"/><ellipse class="cls-12" cx="1054.1" cy="883.91" rx="100" ry="286.84" transform="translate(-305.39 1094.16) rotate(-48.77)"/><ellipse class="cls-12" cx="787.85" cy="-176.77" rx="269.19" ry="129.44" transform="matrix(0.51, -0.86, 0.86, 0.51, 533.93, 589.7)"/><ellipse class="cls-12" cx="904.11" cy="895.57" rx="79.29" ry="171.97" transform="translate(-301.64 1302.55) rotate(-63.38)"/><ellipse class="cls-12" cx="753.11" cy="1105.17" rx="77.16" ry="241.39" transform="translate(-316.15 301.89) rotate(-18.81)"/><ellipse class="cls-12" cx="1152.81" cy="500.88" rx="32.99" ry="42.35" transform="translate(240.39 1365.36) rotate(-66.94)"/><ellipse class="cls-12" cx="1210.37" cy="99.02" rx="71.97" ry="76.86" transform="translate(1005.86 1296.09) rotate(-84.98)"/><ellipse class="cls-12" cx="1062.71" cy="454.23" rx="24.27" ry="87.25" transform="translate(308.73 1330.13) rotate(-72.42)"/><ellipse class="cls-12" cx="-243.42" cy="125.32" rx="121.13" ry="273.45" transform="translate(-246.05 -148.45) rotate(-63.31)"/><ellipse class="cls-12" cx="-81.21" cy="827.02" rx="127.55" ry="163.76" transform="translate(-810.32 428.34) rotate(-66.94)"/><ellipse class="cls-12" cx="-91.44" cy="412.51" rx="94.73" ry="214.42" transform="translate(-460.36 206.53) rotate(-73.32)"/><ellipse class="cls-12" cx="113.92" cy="883.38" rx="87.96" ry="112.94" transform="translate(-743.49 642.16) rotate(-66.94)"/><ellipse class="cls-12" cx="-93.89" cy="19.16" rx="118.25" ry="111.31" transform="translate(-27.58 -50.02) rotate(-34.68)"/><ellipse class="cls-12" cx="25.07" cy="-90.43" rx="100" ry="286.84" transform="translate(76.56 -11.97) rotate(-48.77)"/><ellipse class="cls-12" cx="291.33" cy="970.26" rx="269.19" ry="129.44" transform="translate(-690.5 720.67) rotate(-59.02)"/><ellipse class="cls-12" cx="175.07" cy="-102.09" rx="79.29" ry="171.97" transform="translate(187.89 100.16) rotate(-63.38)"/><ellipse class="cls-12" cx="642.12" cy="1072.47" rx="32.34" ry="207.37" transform="translate(-99.71 66.39) rotate(-5.49)"/><ellipse class="cls-12" cx="16.46" cy="339.25" rx="24.27" ry="87.25" transform="translate(-311.92 252.48) rotate(-72.42)"/><ellipse class="cls-12" cx="-19.96" cy="709.93" rx="35.66" ry="33.43" transform="translate(-430.36 130.3) rotate(-36.91)"/><ellipse class="cls-12" cx="-19.44" cy="114.81" rx="52.71" ry="62.19" transform="translate(-120.5 56.96) rotate(-69.82)"/><ellipse class="cls-12" cx="563.63" cy="954.99" rx="68.17" ry="87.53" transform="translate(-535.82 1099.5) rotate(-66.94)"/><ellipse class="cls-12" cx="861.47" cy="-34.47" rx="39.58" ry="50.82" transform="translate(555.73 771.65) rotate(-66.94)"/><ellipse class="cls-12" cx="90.5" cy="82.42" rx="27.05" ry="115.68" transform="translate(-30.52 100.79) rotate(-50.96)"/><ellipse class="cls-12" cx="202.82" cy="1127.92" rx="202.62" ry="431.34" transform="translate(-896.61 804.54) rotate(-63.42)"/><ellipse class="cls-12" cx="1595.96" cy="236.61" rx="264.19" ry="439.94" transform="translate(688.26 1570.45) rotate(-64.2)"/><ellipse class="cls-12" cx="1270.2" cy="1010.67" rx="631" ry="281.41" transform="translate(-248.62 1583.43) rotate(-59.17)"/><ellipse class="cls-12" cx="1209.76" cy="-213.88" rx="182.82" ry="510.19" transform="translate(851.9 961.37) rotate(-63.04)"/><ellipse class="cls-13" cx="304.77" cy="300.81" rx="12.49" ry="13.23"/><ellipse class="cls-7" cx="903.65" cy="1057.57" rx="147.57" ry="256.05" transform="translate(-274.65 318.21) rotate(-17.38)"/><ellipse class="cls-7" cx="1408.89" cy="426.83" rx="155.89" ry="152.84"/><ellipse class="cls-7" cx="1352.71" cy="627.8" rx="268.34" ry="108.22" transform="translate(-121.93 405.51) rotate(-16.32)"/><ellipse class="cls-7" cx="1072.24" cy="765.63" rx="157.68" ry="278.27" transform="translate(-243.93 705.73) rotate(-32.92)"/><ellipse class="cls-7" cx="1308.33" cy="263.88" rx="107.51" ry="105.41"/><ellipse class="cls-7" cx="501.53" cy="1055.18" rx="276.71" ry="118.26" transform="translate(-574.28 1510.77) rotate(-87.53)"/><ellipse class="cls-7" cx="1248.94" cy="88.76" rx="327.38" ry="121.41" transform="translate(25.5 355.08) rotate(-16.35)"/><ellipse class="cls-7" cx="1198.3" cy="-94.44" rx="107.51" ry="105.41"/><ellipse class="cls-7" cx="374.79" cy="971.5" rx="96.59" ry="161.02" transform="translate(-273.66 156.76) rotate(-17.42)"/><ellipse class="cls-7" cx="69.28" cy="1036.91" rx="265.2" ry="80.12" transform="translate(-821.13 501.03) rotate(-55.14)"/><ellipse class="cls-7" cx="922.47" cy="826.35" rx="40.32" ry="39.53"/><ellipse class="cls-7" cx="1115.51" cy="1.56" rx="59.13" ry="57.97"/><ellipse class="cls-7" cx="1328.44" cy="557.91" rx="88.56" ry="71.26" transform="translate(-100.13 370.28) rotate(-15.3)"/><ellipse class="cls-7" cx="1072.12" cy="-139.75" rx="239.54" ry="31.93" transform="translate(404.54 710.73) rotate(-44.44)"/><ellipse class="cls-7" cx="894.58" cy="735.51" rx="29.42" ry="82.1" transform="translate(-248.99 552.49) rotate(-30.33)"/><ellipse class="cls-7" cx="37.53" cy="-7.78" rx="114.58" ry="202.21" transform="translate(10.26 19.15) rotate(-32.92)"/><ellipse class="cls-7" cx="-167.32" cy="650.1" rx="327.38" ry="121.41" transform="matrix(0.96, -0.28, 0.28, 0.96, -189.72, -20.81)"/><ellipse class="cls-7" cx="-33.89" cy="737.3" rx="59.13" ry="57.97"/><ellipse class="cls-7" cx="12.66" cy="943.73" rx="239.54" ry="31.93" transform="translate(-657.18 278.82) rotate(-44.44)"/><ellipse class="cls-7" cx="-29.6" cy="906.66" rx="114.04" ry="42.73" transform="translate(-755.99 363.27) rotate(-55.07)"/><ellipse class="cls-7" cx="187.04" cy="3.35" rx="29.42" ry="82.1" transform="translate(23.92 94.92) rotate(-30.33)"/><ellipse class="cls-7" cx="57.47" cy="806.48" rx="83.32" ry="81.69"/><ellipse class="cls-7" cx="1178.04" cy="241.79" rx="48.38" ry="47.43"/><ellipse class="cls-7" cx="-217.67" cy="-171.84" rx="424" ry="285.05" transform="translate(38.81 -66.34) rotate(-15.93)"/><ellipse class="cls-7" cx="-68.29" cy="1201.36" rx="260.25" ry="324.71" transform="matrix(0.95, -0.31, 0.31, 0.95, -378.46, 38.73)"/><ellipse class="cls-7" cx="1503.58" cy="899.75" rx="321.96" ry="411.82" transform="translate(-204.8 510.19) rotate(-18.05)"/><ellipse class="cls-7" cx="1304.27" cy="-453.21" rx="362.22" ry="520.03" transform="translate(198.92 374.27) rotate(-17.66)"/><ellipse class="cls-7" cx="1609.33" cy="320.89" rx="222.7" ry="477.78" transform="translate(-22.79 491.46) rotate(-17.24)"/><ellipse class="cls-14" cx="1308.35" cy="836.18" rx="137.87" ry="158.69" transform="translate(195.88 1919.4) rotate(-76.82)"/><ellipse class="cls-14" cx="1200.5" cy="993.88" rx="98.09" ry="271.85" transform="translate(165.86 2159.43) rotate(-88.03)"/><ellipse class="cls-14" cx="889.92" cy="1034.03" rx="155.1" ry="259.77" transform="translate(-331.02 425.37) rotate(-22.79)"/><ellipse class="cls-14" cx="1252.92" cy="667.23" rx="95.09" ry="109.44" transform="translate(317.58 1735) rotate(-76.82)"/><ellipse class="cls-14" cx="255.57" cy="1123.57" rx="250.03" ry="120.18" transform="translate(-887.15 975.49) rotate(-69.8)"/><ellipse class="cls-14" cx="1240.95" cy="499.36" rx="110.05" ry="331.64" transform="translate(701.17 1723.27) rotate(-88.12)"/><ellipse class="cls-14" cx="1239.66" cy="326.97" rx="95.09" ry="109.44" transform="translate(638.64 1459.42) rotate(-76.82)"/><ellipse class="cls-14" cx="153.65" cy="1015.71" rx="97.48" ry="146.52" transform="translate(-90.6 17.9) rotate(-5.15)"/><ellipse class="cls-14" cx="-162.34" cy="986.3" rx="251.86" ry="77.47" transform="translate(-587.77 81.78) rotate(-34.54)"/><ellipse class="cls-14" cx="1133.41" cy="386.57" rx="52.3" ry="60.19" transform="translate(498.59 1401.98) rotate(-76.82)"/><ellipse class="cls-14" cx="1195.17" cy="926.72" rx="64.47" ry="89.88" transform="translate(161.34 2030.55) rotate(-84.67)"/><ellipse class="cls-14" cx="1128.19" cy="252.38" rx="232.51" ry="30.21" transform="translate(-3.21 489.94) rotate(-24.47)"/><ellipse class="cls-14" cx="1142.25" cy="195.28" rx="232.51" ry="30.21" transform="translate(21.7 490.64) rotate(-24.47)"/><ellipse class="cls-14" cx="1173.81" cy="239.15" rx="108.37" ry="41.29" transform="translate(67.13 697.72) rotate(-34.02)"/><ellipse class="cls-14" cx="724.11" cy="958.09" rx="29.14" ry="76.1" transform="translate(-256.84 265.27) rotate(-17.69)"/><ellipse class="cls-14" cx="300.88" cy="-153.45" rx="148.96" ry="232.94" transform="translate(13.82 24.51) rotate(-4.77)"/><ellipse class="cls-14" cx="-251.43" cy="91.34" rx="98.09" ry="271.85" transform="translate(-334.05 -163.09) rotate(-88.03)"/><ellipse class="cls-14" cx="81.67" cy="75.49" rx="112.71" ry="188.77" transform="translate(-22.86 37.52) rotate(-22.79)"/><ellipse class="cls-14" cx="504.45" cy="-83.76" rx="95.57" ry="144.27" transform="translate(550.13 425.56) rotate(-85.7)"/><ellipse class="cls-14" cx="693.5" cy="-38.36" rx="250.03" ry="120.18" transform="translate(490.05 625.74) rotate(-69.8)"/><ellipse class="cls-14" cx="-291.88" cy="585.86" rx="110.05" ry="331.64" transform="translate(-867.85 274.93) rotate(-88.12)"/><ellipse class="cls-14" cx="795.41" cy="69.51" rx="97.48" ry="146.52" transform="translate(-3.03 71.72) rotate(-5.15)"/><ellipse class="cls-14" cx="972.3" cy="11.67" rx="83.71" ry="179.47" transform="translate(919.17 982.59) rotate(-87.56)"/><ellipse class="cls-14" cx="1111.41" cy="98.92" rx="251.86" ry="77.47" transform="translate(139.79 647.52) rotate(-34.54)"/><ellipse class="cls-14" cx="900.81" cy="57.77" rx="64.18" ry="73.87" transform="translate(639.16 921.68) rotate(-76.82)"/><ellipse class="cls-14" cx="221.6" cy="40.87" rx="35.66" ry="41.04" transform="translate(131.28 247.31) rotate(-76.82)"/><ellipse class="cls-14" cx="-193.18" cy="889.94" rx="232.51" ry="30.21" transform="translate(-385.95 -0.09) rotate(-24.47)"/><ellipse class="cls-14" cx="224.96" cy="127.13" rx="29.14" ry="76.1" transform="translate(-27.99 74.35) rotate(-17.69)"/><ellipse class="cls-14" cx="445.63" cy="10.38" rx="52.45" ry="65.47" transform="translate(372.6 450.11) rotate(-81.9)"/><ellipse class="cls-14" cx="1131.32" cy="611.54" rx="42.79" ry="49.25" transform="translate(277.93 1573.61) rotate(-76.82)"/><ellipse class="cls-14" cx="546.05" cy="79.9" rx="99.86" ry="32.83" transform="translate(323.95 585.1) rotate(-74.59)"/><ellipse class="cls-14" cx="-124.7" cy="-137.87" rx="258.16" ry="429.89" transform="translate(20.52 -253.93) rotate(-86.5)"/><ellipse class="cls-14" cx="1276.43" cy="1271.06" rx="323.49" ry="376.37" transform="translate(-252.49 318.56) rotate(-12.96)"/><ellipse class="cls-14" cx="1437.75" cy="47.03" rx="365.03" ry="473.84" transform="matrix(0.99, -0.13, 0.13, 0.99, 6.51, 191.56)"/><ellipse class="cls-14" cx="1532.27" cy="801.05" rx="224.94" ry="434.36" transform="translate(-46.96 97.1) rotate(-3.57)"/><ellipse class="cls-15" cx="1331.69" cy="141.4" rx="313.2" ry="138.89" transform="translate(0.28 285.45) rotate(-12.24)"/><ellipse class="cls-15" cx="956.66" cy="-0.49" rx="324.36" ry="155.72" transform="translate(73.54 367.34) rotate(-22.58)"/><ellipse class="cls-15" cx="1329.47" cy="336.15" rx="119.32" ry="144.86" transform="translate(307.24 1250.22) rotate(-55.99)"/><ellipse class="cls-15" cx="1352.8" cy="510.99" rx="346.27" ry="108.79" transform="translate(-1.86 4.95) rotate(-0.21)"/><ellipse class="cls-15" cx="100" cy="-132.68" rx="144.76" ry="316.1" transform="translate(74.53 31.5) rotate(-28.19)"/><ellipse class="cls-15" cx="-125.96" cy="-77.99" rx="98.89" ry="131.92" transform="translate(-47.68 -203.77) rotate(-89.87)"/><ellipse class="cls-15" cx="1255.8" cy="631.18" rx="197.05" ry="90.87" transform="translate(-103.55 273.98) rotate(-11.96)"/><ellipse class="cls-15" cx="1409.46" cy="763.58" rx="109.31" ry="172.3" transform="translate(-189.05 883.63) rotate(-32.74)"/><ellipse class="cls-15" cx="1355.88" cy="908.98" rx="78.81" ry="310.37" transform="translate(-20.4 1786.76) rotate(-66.37)"/><ellipse class="cls-15" cx="1317.5" cy="717.14" rx="66.75" ry="89.04" transform="matrix(0, -1, 1, 0, 597.32, 2032.98)"/><ellipse class="cls-15" cx="1041.54" cy="134.42" rx="37.09" ry="49.47" transform="translate(904.71 1175.64) rotate(-89.87)"/><ellipse class="cls-15" cx="-1.01" cy="-6.19" rx="54.39" ry="72.55" transform="translate(5.18 -7.18) rotate(-89.87)"/><ellipse class="cls-15" cx="-175.04" cy="39.98" rx="33.08" ry="266.21" transform="translate(-110.43 -127.54) rotate(-56.04)"/><ellipse class="cls-15" cx="929.66" cy="164.09" rx="95.86" ry="29.01" transform="translate(13.39 391.37) rotate(-23.94)"/><ellipse class="cls-15" cx="51.94" cy="984.72" rx="235.71" ry="113.16" transform="translate(-374.17 95.45) rotate(-22.58)"/><ellipse class="cls-15" cx="886.56" cy="1143.63" rx="144.76" ry="316.1" transform="translate(-435.04 554.35) rotate(-28.19)"/><ellipse class="cls-15" cx="1242.8" cy="965.16" rx="33.08" ry="266.21" transform="translate(-251.96 1456.89) rotate(-56.04)"/><ellipse class="cls-15" cx="56.89" cy="846.85" rx="95.86" ry="29.01" transform="translate(-338.75 95.94) rotate(-23.94)"/><ellipse class="cls-15" cx="1068.55" cy="930.11" rx="76.64" ry="102.23" transform="translate(135.98 1996.51) rotate(-89.87)"/><ellipse class="cls-15" cx="-137.83" cy="1226.52" rx="330.09" ry="421.5" transform="translate(-904.18 259.02) rotate(-44.79)"/><ellipse class="cls-15" cx="1569.69" cy="1028.05" rx="399.66" ry="243.41" transform="translate(-133.59 240.86) rotate(-8.42)"/><ellipse class="cls-15" cx="-580.77" cy="-159.36" rx="637.82" ry="339.98" transform="translate(19.38 -109.28) rotate(-10.57)"/><ellipse class="cls-15" cx="1636.01" cy="451.61" rx="314.94" ry="740.44" transform="translate(-22.41 812.35) rotate(-27.7)"/><ellipse class="cls-16" cx="1575.89" cy="573.43" rx="155.2" ry="199.19" transform="translate(912.34 2113.55) rotate(-86.69)"/><ellipse class="cls-16" cx="1486.74" cy="771.4" rx="338.94" ry="111.17" transform="translate(-92.61 213.62) rotate(-7.97)"/><ellipse class="cls-16" cx="1117.34" cy="883.98" rx="184.75" ry="308.17" transform="translate(-305.43 958.86) rotate(-41.36)"/><ellipse class="cls-16" cx="1462.02" cy="398.91" rx="107.04" ry="137.37" transform="translate(979.28 1835.43) rotate(-86.69)"/><ellipse class="cls-16" cx="364.89" cy="1122.27" rx="281.4" ry="150.88" transform="translate(-799.87 1311.92) rotate(-81.24)"/><ellipse class="cls-16" cx="1401.68" cy="216.03" rx="413.43" ry="124.75" transform="translate(-16.46 200.23) rotate(-8.12)"/><ellipse class="cls-16" cx="1353.18" cy="25.81" rx="107.04" ry="137.37" transform="translate(1249.2 1375.24) rotate(-86.69)"/><ellipse class="cls-16" cx="210.73" cy="1025.45" rx="119.79" ry="168.47" transform="translate(-400.41 175.47) rotate(-24.1)"/><ellipse class="cls-16" cx="-184.24" cy="1062.36" rx="296.28" ry="93.06" transform="translate(-769.46 156.78) rotate(-42.71)"/><ellipse class="cls-16" cx="921.21" cy="931.07" rx="40.14" ry="51.52" transform="translate(-61.54 1796.93) rotate(-86.69)"/><ellipse class="cls-16" cx="1239.29" cy="115.01" rx="58.87" ry="75.56" transform="translate(1052.85 1345.58) rotate(-86.69)"/><ellipse class="cls-16" cx="1461.93" cy="698.35" rx="112.44" ry="72.83" transform="translate(-38.79 87.8) rotate(-3.39)"/><ellipse class="cls-16" cx="1196.37" cy="-32.13" rx="278.68" ry="35.62" transform="translate(212.6 649.44) rotate(-33.18)"/><ellipse class="cls-16" cx="1198.05" cy="-98.32" rx="278.68" ry="35.62" transform="translate(249.1 639.56) rotate(-33.18)"/><ellipse class="cls-16" cx="1248.64" cy="-56.77" rx="127.65" ry="49.53" transform="translate(355.15 817.3) rotate(-41.77)"/><ellipse class="cls-16" cx="893.62" cy="836.48" rx="35.13" ry="89.2" transform="translate(-314.04 636.92) rotate(-33.73)"/><ellipse class="cls-16" cx="-133.33" cy="2.26" rx="134.25" ry="223.94" transform="translate(-34.75 -87.54) rotate(-41.36)"/><ellipse class="cls-16" cx="584.93" cy="-257.94" rx="281.4" ry="150.88" transform="translate(750.74 359.45) rotate(-81.24)"/><ellipse class="cls-16" cx="739.09" cy="-161.13" rx="119.79" ry="168.47" transform="translate(130.24 287.78) rotate(-24.1)"/><ellipse class="cls-16" cx="1134.06" cy="-198.04" rx="296.28" ry="93.06" transform="translate(435.09 716.71) rotate(-42.71)"/><ellipse class="cls-16" cx="56.19" cy="27.85" rx="35.13" ry="89.2" transform="matrix(0.83, -0.56, 0.56, 0.83, -6, 35.89)"/><ellipse class="cls-16" cx="1297.96" cy="364.07" rx="48.17" ry="61.82" transform="translate(859.48 1638.82) rotate(-86.69)"/><ellipse class="cls-16" cx="436.55" cy="-94.87" rx="112.39" ry="41.21" transform="translate(507.49 346.2) rotate(-86.88)"/><ellipse class="cls-16" cx="-444.12" cy="-188.2" rx="536.9" ry="292.08" transform="translate(16.53 -45.16) rotate(-5.71)"/><ellipse class="cls-16" cx="1655.17" cy="1061.03" rx="387" ry="444.55" transform="translate(-248.64 1551.82) rotate(-47.12)"/><ellipse class="cls-16" cx="1519.57" cy="-327.05" rx="445.06" ry="549.16" transform="matrix(0.85, -0.53, 0.53, 0.85, 399.89, 751.08)"/><ellipse class="cls-16" cx="1840.53" cy="485.44" rx="277.62" ry="497.31" transform="translate(-56.02 647.62) rotate(-19.66)"/><circle class="cls-17" cx="181" cy="590.5" r="34"/><circle class="cls-17" cx="584.5" cy="600" r="15.5"/><path class="cls-18" d="M1670.84,591.5c-12.07-31-57.33-54-111.34-54s-99.27,23-111.34,54h-26.85a33.5,33.5,0,0,0-63.62,0H1249.6a45,45,0,0,0-48.14-11.24A37,37,0,0,0,1128,586.5a35.89,35.89,0,0,0,.35,5h-32a13.5,13.5,0,0,0-23.66,0h-294a31,31,0,0,0-45.76-1.75,9,9,0,0,0-15,1.75H702a31.5,31.5,0,0,0-56.92,0H358.61a39.49,39.49,0,0,0-74.37-12.29,23,23,0,0,0-38.89,12.29H77a39,39,0,0,0-39-39,38.61,38.61,0,0,0-4.18.23C32,524.55,15.53,502.5-4.5,502.5-25.76,502.5-43,527.35-43,558a72.39,72.39,0,0,0,7.81,33.5H-252v405H1873v-405Z"/><circle class="cls-19" cx="422.5" cy="709" r="10.5"/><circle class="cls-19" cx="545" cy="783.5" r="7"/><circle class="cls-19" cx="592" cy="742.5" r="11"/><circle class="cls-19" cx="1227.5" cy="778" r="7.5"/><circle class="cls-19" cx="1334" cy="760.5" r="11"/><circle class="cls-19" cx="1289" cy="716.5" r="11"/><circle class="cls-19" cx="340.5" cy="641" r="7.5"/><circle class="cls-19" cx="743.5" cy="822" r="7.5"/><circle class="cls-19" cx="1060" cy="630.5" r="6"/><circle class="cls-19" cx="1255" cy="733.5" r="6"/><circle class="cls-19" cx="1440" cy="805.5" r="9"/><circle class="cls-19" cx="90.5" cy="738" r="8.5"/><circle class="cls-19" cx="1555.5" cy="633" r="14.5"/><circle class="cls-19" cx="1509" cy="577.5" r="5"/><circle class="cls-19" cx="957.5" cy="620" r="7.5"/><circle class="cls-19" cx="359.5" cy="813" r="13.5"/><circle class="cls-19" cx="32" cy="797.5" r="9"/><circle class="cls-19" cx="394" cy="615.5" r="7"/><circle class="cls-19" cx="989" cy="827.5" r="6"/><circle class="cls-19" cx="1177.5" cy="585" r="5.5"/><circle class="cls-19" cx="22.5" cy="621" r="9.5"/><circle class="cls-19" cx="206" cy="641.5" r="9"/></g></svg>
