<svg xmlns="http://www.w3.org/2000/svg" width="285" height="495" viewBox="0 0 285 495"><defs><style>.cls-1{fill:#262626;}.cls-2{fill:#fff;}.cls-3{fill:#b2b2b2;}.cls-4{fill:#4c4b4c;}.cls-5{fill:#686868;}.cls-6{fill:#4c4c4c;}.cls-7{fill:#7c7c7c;}</style></defs><title>doed</title><g id="Layer_15" data-name="Layer 15"><ellipse class="cls-1" cx="272.4" cy="141.98" rx="11.08" ry="12.41"/><polygon class="cls-1" points="264.24 128.91 272.85 51.27 272.85 1.88 238.26 1.88 238.26 83.71 259.2 154.4 272.85 154.4 272.85 129.86 264.24 128.91"/><path class="cls-1" d="M199,90.55c7.82-1.7,13.69-7.52,14-14.67.36-8.81-7.87-16.31-18.39-16.75l-1.31,31.42Z"/><polygon class="cls-2" points="235.87 194.85 230.44 192.42 225.36 195.51 226 189.6 221.5 185.72 227.32 184.5 229.61 179.01 232.57 184.17 238.5 184.66 234.5 189.07 235.87 194.85"/><rect class="cls-3" x="35.7" y="279.91" width="19.87" height="27.03"/><path class="cls-4" d="M224.49,129.87H124.58a71.82,71.82,0,0,0,50,123.44c1.29,0,2.58,0,3.86-.1l10-19.83,6.22,17.05a71.81,71.81,0,0,0,29.83-120.56Z"/><path class="cls-3" d="M176.41,467.49A50.58,50.58,0,0,1,161.61,452c-5.36-9.11-9.05-23.66,3.85-41.26,19.1-26.06-3-41.29-5.71-43-4.49-2-33.12-16.75-9-50.38,7.33-10.23,9.58-18.77,6.7-25.41-3.26-7.48-12.25-10.14-12.34-10.16l4.74-8.22c.55.16,13.61,3.86,18.44,14.95,3.9,9,1.32,19.88-7.66,32.43-20.31,28.34,4.62,38.8,5.69,39.24l.39.15.37.22c.33.19,33,20.11,8.23,53.87-8.41,11.48-9.49,22.73-3.2,33.41a42.22,42.22,0,0,0,12.09,12.82Z"/><path class="cls-3" d="M86.9,467.76a50.43,50.43,0,0,0,13.63-16.27c4.79-9.37,7.74-24.08-5.42-41-19.49-25,1.2-41.36,3.73-43.22,4.25-2.27,31.24-18.43,6.63-50.75-7.48-9.84-10-18.26-7.5-25,2.83-7.64,11.39-10.76,11.48-10.79l-4.91-8c-.53.18-13,4.55-17.16,15.87-3.4,9.15-.46,19.91,8.73,32,20.74,27.24-2.86,39-3.87,39.45l-.37.17-.35.24c-.31.21-31,21.77-5.72,54.19,8.59,11,10.09,22.2,4.47,33.19a42,42,0,0,1-11.13,13.41Z"/><path class="cls-4" d="M103,298l-72-124.9a28.83,28.83,0,0,1,25-43.22H200a28.83,28.83,0,0,1,25,43.22L153,298A28.83,28.83,0,0,1,103,298Z"/><circle class="cls-3" cx="128.31" cy="97.65" r="36.36"/><rect class="cls-1" x="68.02" y="69.27" width="23.05" height="21.28"/><rect class="cls-1" x="165.55" y="66.61" width="32.81" height="23.94"/><path class="cls-1" d="M70.23,90.55c-10.53,0-19.06-7-19.06-15.52S59.7,59.52,70.23,59.52"/><polygon class="cls-1" points="145.16 52.42 166.17 52.42 270.19 20.57 270.19 1.88 145.16 1.88 145.16 52.42"/><path class="cls-1" d="M93.38,88c3.39-12.28,23.17-17.52,44.17-11.72,10.69,3,19.62,8.19,25.39,14.24h2.61V1.88h-78V90.55h5.42A13.57,13.57,0,0,1,93.38,88Z"/><ellipse class="cls-1" cx="71.29" cy="457" rx="41.52" ry="19.81"/><rect class="cls-1" x="60.24" y="437.95" width="52.57" height="38.86" rx="10.96"/><ellipse class="cls-1" cx="29.77" cy="466.96" rx="28.25" ry="9.85"/><rect class="cls-1" x="26.81" y="461.75" width="52.62" height="15.18"/><rect class="cls-1" x="86.51" y="416.22" width="18.21" height="28.33"/><ellipse class="cls-1" cx="189.76" cy="454.98" rx="41.52" ry="19.81"/><rect class="cls-1" x="148.23" y="435.93" width="52.57" height="38.86" rx="10.96" transform="translate(349.03 910.71) rotate(180)"/><ellipse class="cls-1" cx="231.28" cy="464.94" rx="28.25" ry="9.85"/><rect class="cls-1" x="181.62" y="459.73" width="52.62" height="15.18" transform="translate(415.86 934.63) rotate(-180)"/><rect class="cls-1" x="156.33" y="414.2" width="18.21" height="28.33" transform="translate(330.86 856.72) rotate(-180)"/><rect x="150.25" y="168.32" width="16.19" height="324.8" rx="4.56"/><polygon class="cls-5" points="178.48 187 158.13 171.85 137.53 186.68 140.48 161.48 117.34 151.06 140.64 141 138.1 115.76 158.45 130.91 179.04 116.08 176.1 141.29 199.23 151.71 175.94 161.76 178.48 187"/><polygon class="cls-3" points="45.05 304.62 31.19 273.55 61.78 275 45.05 304.62"/><rect class="cls-4" x="27.79" y="129.87" width="42.59" height="150.77"/><polygon points="180.3 209.8 177.57 210.72 195.79 250.28 195.81 209.8 180.3 209.8"/><ellipse class="cls-3" cx="54.13" cy="310.99" rx="19.23" ry="22.26"/><ellipse class="cls-6" cx="70.82" cy="313.01" rx="8.6" ry="10.12"/><ellipse class="cls-7" cx="64.75" cy="320.6" rx="8.6" ry="11.64"/><ellipse class="cls-2" cx="56.66" cy="322.12" rx="14.17" ry="9.61" transform="translate(-258.47 234.58) rotate(-64.5)"/><ellipse class="cls-3" cx="56.15" cy="323.63" rx="12.65" ry="9.11" transform="translate(-254.69 217.49) rotate(-61.3)"/><ellipse class="cls-3" cx="46.05" cy="326.68" rx="3.93" ry="7.49" transform="translate(-217.51 128.25) rotate(-45)"/><ellipse class="cls-2" cx="36.93" cy="313.52" rx="12.65" ry="8.09" transform="translate(-276.4 275.01) rotate(-76.28)"/><ellipse class="cls-3" cx="35.92" cy="313.52" rx="12.65" ry="8.09" transform="translate(-277.17 274.03) rotate(-76.28)"/><rect class="cls-3" x="171.5" y="209.8" width="23.27" height="23.27"/><rect class="cls-3" x="151.43" y="213.47" width="40.6" height="27.19" rx="7.67" transform="translate(-70.95 78.21) rotate(-21.38)"/><rect class="cls-3" x="160.67" y="203.28" width="28.59" height="26.79" rx="3.54" transform="translate(110.24 -54.2) rotate(25.48)"/><ellipse class="cls-3" cx="159.36" cy="214.61" rx="16.19" ry="7.42"/><ellipse class="cls-3" cx="156.86" cy="226.1" rx="12.68" ry="7.42"/><ellipse class="cls-3" cx="156.86" cy="238.87" rx="12.68" ry="7.42"/><rect class="cls-3" x="36.88" y="296.13" width="10.44" height="14.17" transform="translate(85.18 0.14) rotate(15.99)"/><polygon points="146.85 85.88 148.26 87.08 132.85 110.06 131.44 108.86 146.85 85.88"/><polygon points="147.13 110.85 148.51 109.61 132.59 87.08 131.21 88.31 147.13 110.85"/><polygon points="111.85 86.88 113.26 88.08 97.85 111.06 96.44 109.86 111.85 86.88"/><polygon points="112.13 111.85 113.51 110.61 97.59 88.08 96.21 89.31 112.13 111.85"/></g></svg>
