<svg id="Layer_3" data-name="Layer 3" xmlns="http://www.w3.org/2000/svg" width="421.73" height="467.78" viewBox="0 0 421.73 467.78"><defs><style>.cls-1{fill:#bababa;}.cls-2{fill:#1c1c1c;}.cls-3{fill:#494949;}.cls-4{fill:#878787;}.cls-5{fill:#545354;}.cls-6{fill:#b7b7b7;}.cls-7{fill:#383838;}.cls-8{fill:#7f7f7f;}.cls-9{fill:#353535;}.cls-10{fill:#fff;}</style></defs><title>edderkop</title><rect class="cls-1" x="281.26" y="207.82" width="17.18" height="127.2" transform="translate(567.83 554.99) rotate(-177.55)"/><rect class="cls-1" x="240.56" y="362.08" width="82.23" height="17.18" transform="translate(-128.69 590.51) rotate(-80.95)"/><ellipse class="cls-1" cx="270.85" cy="423.03" rx="25.22" ry="25.15"/><path class="cls-1" d="M291.16,439.79c3.52,6.95,8,10.49,2,18.66-6.46,8.28-16.27,2.84-15.77-8.73.23-10.49.22-19.8,2.88-23.22C283.61,423,287.84,432.11,291.16,439.79Z"/><path class="cls-1" d="M270.91,451.44c1.44,5.16-3.94,17.7-11.31,17.51-7.26-1-5-11.78-2.59-20.12,1.87-9,3.92-16.21,7.73-13C268.1,439.49,269.88,446.35,270.91,451.44Z"/><path class="cls-1" d="M254.13,439.88c-4.19,10.26-19.12,15.8-20.67,9.6-.8-5.21,7.95-14.38,11.06-23.14,3.83-8.95,9.22-8.48,11.43-3.82C257.55,427,258.39,430.26,254.13,439.88Z"/><path class="cls-1" d="M240,422c11.63-3.65,11.66-7.95,9.82-10a11.38,11.38,0,0,0-11.7-4.67c-5.3,1.37-8.11,6.51-13.17,10.47C219.06,421.84,227.52,425.25,240,422Z"/><path d="M72,228.46l51.45-2.41a4.38,4.38,0,0,0,3.93-5.8l-9.34-27.16a4.38,4.38,0,0,0-6.65-2.16L69.3,220.51A4.38,4.38,0,0,0,72,228.46Z"/><path d="M335.46,217.53,284,215.11a4.38,4.38,0,0,1-3.93-5.79l9.34-27.16a4.37,4.37,0,0,1,6.65-2.16l42.11,29.58A4.38,4.38,0,0,1,335.46,217.53Z"/><rect class="cls-2" x="314.93" y="36.07" width="21.18" height="259.25" transform="translate(-22.02 53.29) rotate(-9.05)"/><rect x="278.75" y="-1.11" width="21.18" height="259.25" transform="translate(-16.62 47.13) rotate(-9.05)"/><polygon points="278.93 7.05 258.6 1.13 198.41 206.7 218.74 212.62 278.93 7.05"/><rect class="cls-3" x="251.47" y="132.39" width="140.72" height="21.18" transform="translate(118.18 430.28) rotate(-78.62)"/><polygon class="cls-2" points="313.92 44.32 293.39 39.13 252.59 199.86 273.12 205.04 313.92 44.32"/><rect class="cls-4" x="123.2" y="221.05" width="17.18" height="131.26" transform="matrix(1, -0.07, 0.07, 1, -19.68, 9.89)"/><polygon class="cls-4" points="128.38 353.05 136.63 338.02 213.79 380.15 205.54 395.18 128.38 353.05"/><rect class="cls-2" x="-37.3" y="158.39" width="259.25" height="21.18" transform="translate(-89.07 233.56) rotate(-80.95)"/><rect x="-1.12" y="121.21" width="259.25" height="21.18" transform="translate(-21.87 237.96) rotate(-80.95)"/><polygon points="138.92 10.34 159.25 4.41 219.44 209.98 199.11 215.9 138.92 10.34"/><rect class="cls-3" x="90.55" y="82.28" width="21.18" height="140.72" transform="translate(-28.12 22.95) rotate(-11.38)"/><polygon class="cls-2" points="103.93 47.6 124.46 42.41 165.26 203.14 144.73 208.32 103.93 47.6"/><path class="cls-3" d="M226,55.37,335.71,240.64A18.3,18.3,0,0,1,320,268.27l-219.67-.14a18.3,18.3,0,0,1-15.73-27.65l110-185.13A18.3,18.3,0,0,1,226,55.37Z"/><ellipse class="cls-2" cx="212.86" cy="295.61" rx="47.14" ry="47.02"/><path class="cls-2" d="M382.6,314.85l-51.44-2.42a4.37,4.37,0,0,1-3.93-5.79l9.33-27.16a4.38,4.38,0,0,1,6.65-2.16l42.11,29.58A4.38,4.38,0,0,1,382.6,314.85Z"/><polygon class="cls-2" points="254.52 194.74 228.25 232.62 191.09 232.62 164.82 194.74 164.82 141.18 191.09 103.31 228.25 103.31 254.52 141.18 254.52 194.74"/><polygon class="cls-5" points="227.7 103.42 205.22 176.1 254.52 142.06 227.7 103.42"/><polygon class="cls-6" points="191.47 103.42 213.96 176.1 164.65 142.06 191.47 103.42"/><polygon class="cls-7" points="227.7 234.06 205.22 161.38 254.52 195.42 227.7 234.06"/><polygon class="cls-8" points="191.47 232.97 213.96 160.28 164.65 194.33 191.47 232.97"/><path class="cls-3" d="M418.78,336.72l-51.45-2.42a4.38,4.38,0,0,1-3.93-5.79l9.34-27.16a4.38,4.38,0,0,1,6.65-2.16l42.11,29.58A4.38,4.38,0,0,1,418.78,336.72Z"/><path class="cls-2" d="M39.13,314.85l51.45-2.42a4.37,4.37,0,0,0,3.93-5.79l-9.34-27.16a4.38,4.38,0,0,0-6.65-2.16L36.42,306.9A4.37,4.37,0,0,0,39.13,314.85Z"/><path class="cls-3" d="M3,341.09l51.44-2.41a4.37,4.37,0,0,0,3.93-5.79L49,305.72a4.37,4.37,0,0,0-6.65-2.15L.24,333.15A4.37,4.37,0,0,0,3,341.09Z"/><rect class="cls-3" x="345.63" y="66.69" width="21.18" height="259.25" transform="translate(-26.45 58.5) rotate(-9.05)"/><rect class="cls-3" x="-65.03" y="196.66" width="259.25" height="21.18" transform="translate(-150.23 238.43) rotate(-80.95)"/><ellipse class="cls-4" cx="213.44" cy="387.46" rx="25.22" ry="25.15"/><path class="cls-4" d="M209.92,413.68c-2.49,10.1-1.45,23.05,6.81,20.36,8.07-3.94,10.33-16.6,8-21.61-1.93-5.58-4.19-15.84-8-17.76C212.74,393.31,211.7,403.29,209.92,413.68Z"/><path class="cls-4" d="M229.6,413.69c.9,9.5,12.5,9.75,16.72,2.43,3.87-6.73-1.39-8.8-4.53-15.54-3.19-7-7.94-12.26-10.42-7.77C229.77,397,228.84,405.12,229.6,413.69Z"/><path class="cls-4" d="M236.5,394.5c9.46,4,23.66-1.87,20.26-4.61-3.26-2.31-11-6-16-11.33-5.94-4.83-11.79-4.06-11.4.24C230.09,382.64,227.88,390.27,236.5,394.5Z"/><path class="cls-4" d="M241.07,373.58c-10.92,4.59-22.74,2.3-17.24-1.94,5.18-3.92,9.84-9.8,14.37-12.36,5.46-2.4,10.39.74,11.34,3.25C250.56,364.74,251.19,368.74,241.07,373.58Z"/><polygon class="cls-9" points="234.09 182.21 219.9 202.66 199.84 202.66 185.65 182.21 185.65 153.29 199.84 132.84 219.9 132.84 234.09 153.29 234.09 182.21"/><ellipse class="cls-10" cx="186" cy="180.24" rx="3.84" ry="3.83"/></svg>
