<svg xmlns="http://www.w3.org/2000/svg" width="210" height="360" viewBox="0 0 210 360"><defs><style>.cls-1{fill:#262626;}.cls-2{fill:#fff;}.cls-3{fill:#b2b2b2;}.cls-4{fill:#4c4b4c;}.cls-5{fill:#686868;}.cls-6{fill:#e5e5e5;}.cls-7{fill:#172827;}.cls-8{fill:#4c4c4c;}.cls-9{fill:#7c7c7c;}.cls-10{fill:#e5d400;}.cls-11{fill:#ea3303;}.cls-12{fill:#2f71a8;}.cls-13{fill:#079b11;}.cls-14{fill:#6933a3;}.cls-15{fill:#e2870e;}</style></defs><title>en stjerne</title><g id="Layer_13" data-name="Layer 13"><ellipse class="cls-1" cx="13.1" cy="101.91" rx="8.1" ry="9.07"/><polygon class="cls-1" points="19.06 92.36 12.77 35.65 12.77 -0.44 38.04 -0.44 38.04 59.34 22.74 110.98 12.77 110.98 12.77 93.06 19.06 92.36"/><path class="cls-1" d="M66.74,64.34c-5.72-1.25-10-5.5-10.22-10.72C56.25,47.18,62.26,41.71,70,41.39l1,23Z"/><polygon class="cls-2" points="39.79 140.54 43.75 138.76 47.46 141.02 47 136.7 50.29 133.86 46.04 132.97 44.36 128.97 42.2 132.74 37.87 133.09 40.79 136.31 39.79 140.54"/><rect class="cls-3" x="171.51" y="202.68" width="14.52" height="19.75" transform="translate(357.53 425.1) rotate(-180)"/><path class="cls-4" d="M48.1,93.06h73a52.47,52.47,0,0,1-36.5,90.19c-.94,0-1.88,0-2.82-.08l-7.33-14.49-4.55,12.46A52.47,52.47,0,0,1,48.1,93.06Z"/><path class="cls-3" d="M83.23,339.71A36.79,36.79,0,0,0,94,328.36c3.92-6.65,6.61-17.28-2.82-30.14-14-19,2.2-30.17,4.18-31.43,3.28-1.49,24.2-12.24,6.6-36.8-5.35-7.47-7-13.72-4.89-18.56,2.38-5.47,9-7.41,9-7.43l-3.46-6c-.4.11-10,2.81-13.47,10.92-2.85,6.55-1,14.52,5.6,23.69,14.83,20.7-3.38,28.35-4.16,28.66l-.28.12-.28.15c-.24.15-24.09,14.7-6,39.36,6.15,8.39,6.93,16.6,2.34,24.41a30.55,30.55,0,0,1-8.84,9.36Z"/><path class="cls-3" d="M148.62,339.92a37,37,0,0,1-10-11.89c-3.5-6.84-5.65-17.59,4-29.95,14.24-18.28-.87-30.22-2.73-31.57-3.1-1.66-22.82-13.47-4.84-37.08,5.47-7.19,7.31-13.34,5.48-18.28-2.07-5.58-8.32-7.86-8.38-7.88l3.58-5.81c.39.13,9.48,3.32,12.54,11.59,2.48,6.69.33,14.55-6.38,23.37-15.15,19.9,2.09,28.46,2.83,28.82l.27.13.25.17c.23.15,22.62,15.91,4.18,39.59-6.27,8.06-7.37,16.22-3.26,24.25a30.8,30.8,0,0,0,8.13,9.8Z"/><path class="cls-4" d="M143.56,204.21l39.14-67.92a28.84,28.84,0,0,0-25-43.23H79.44a28.83,28.83,0,0,0-25,43.23L93.6,204.21A28.83,28.83,0,0,0,143.56,204.21Z"/><circle class="cls-3" cx="118.36" cy="69.52" r="26.56"/><rect class="cls-1" x="145.57" y="48.79" width="16.84" height="15.55" transform="translate(307.99 113.13) rotate(-180)"/><rect class="cls-1" x="67.19" y="46.85" width="23.97" height="17.49" transform="translate(158.35 111.19) rotate(-180)"/><path class="cls-1" d="M160.8,64.34c7.69,0,13.92-5.08,13.92-11.34s-6.23-11.33-13.92-11.33"/><polygon class="cls-1" points="106.06 36.48 90.71 36.48 14.72 13.22 14.72 -0.44 106.06 -0.44 106.06 36.48"/><path class="cls-1" d="M143.88,62.49c-2.47-9-16.92-12.79-32.27-8.55-7.8,2.15-14.33,6-18.54,10.4H91.16V-.44h57V64.34h-3.95A9.84,9.84,0,0,0,143.88,62.49Z"/><ellipse class="cls-1" cx="160.02" cy="332.05" rx="30.34" ry="14.47"/><rect class="cls-1" x="129.69" y="318.14" width="38.41" height="28.39" rx="10.96" transform="translate(297.78 664.66) rotate(-180)"/><ellipse class="cls-1" cx="190.36" cy="339.33" rx="20.64" ry="7.19"/><rect class="cls-1" x="154.08" y="335.52" width="38.44" height="11.09" transform="translate(346.6 682.14) rotate(-180)"/><rect class="cls-1" x="135.6" y="302.26" width="13.31" height="20.7" transform="translate(284.51 625.22) rotate(-180)"/><ellipse class="cls-1" cx="73.48" cy="330.57" rx="30.34" ry="14.47"/><rect class="cls-1" x="65.41" y="316.66" width="38.41" height="28.39" rx="10.96"/><ellipse class="cls-1" cx="43.14" cy="337.85" rx="20.64" ry="7.19"/><rect class="cls-1" x="40.98" y="334.05" width="38.44" height="11.09"/><rect class="cls-1" x="84.59" y="300.78" width="13.31" height="20.7"/><rect x="90.51" y="121.15" width="11.83" height="237.29" rx="4.56" transform="translate(192.84 479.59) rotate(-180)"/><polygon class="cls-5" points="81.72 134.8 96.58 123.73 111.63 134.56 109.48 116.15 126.38 108.54 109.36 101.2 111.22 82.75 96.35 93.82 81.3 82.99 83.45 101.4 66.55 109.02 83.57 116.36 81.72 134.8"/><circle class="cls-6" cx="131.64" cy="71.79" r="4.86"/><circle class="cls-6" cx="108.97" cy="66.61" r="4.86"/><ellipse class="cls-7" cx="134.88" cy="72.44" rx="7.52" ry="3.01" transform="translate(21.5 175.32) rotate(-70.46)"/><ellipse class="cls-7" cx="113.51" cy="66.61" rx="7.52" ry="3.01" transform="translate(12.77 151.29) rotate(-70.46)"/><circle class="cls-2" cx="131.97" cy="72.11" r="2.59"/><circle class="cls-2" cx="109.3" cy="66.93" r="2.59"/><polygon class="cls-3" points="179.2 220.73 189.32 198.03 166.97 199.09 179.2 220.73"/><rect class="cls-4" x="160.69" y="93.06" width="31.11" height="110.14"/><polygon points="80.39 151.46 82.38 152.13 69.07 181.03 69.05 151.46 80.39 151.46"/><ellipse class="cls-3" cx="172.56" cy="225.38" rx="14.05" ry="16.26"/><ellipse class="cls-8" cx="160.36" cy="226.86" rx="6.28" ry="7.39"/><ellipse class="cls-9" cx="164.8" cy="232.4" rx="6.28" ry="8.5"/><ellipse class="cls-2" cx="170.71" cy="233.51" rx="7.02" ry="10.35" transform="translate(-83.9 96.24) rotate(-25.5)"/><ellipse class="cls-3" cx="171.08" cy="234.62" rx="6.65" ry="9.24" transform="translate(-91.65 110.97) rotate(-28.7)"/><ellipse class="cls-3" cx="178.46" cy="236.85" rx="5.47" ry="2.87" transform="translate(-115.21 195.56) rotate(-45)"/><ellipse class="cls-2" cx="185.13" cy="227.23" rx="5.91" ry="9.24" transform="translate(-48.62 50.41) rotate(-13.72)"/><ellipse class="cls-3" cx="185.87" cy="227.23" rx="5.91" ry="9.24" transform="translate(-48.6 50.58) rotate(-13.72)"/><rect class="cls-3" x="69.81" y="151.46" width="17" height="17" transform="translate(156.62 319.92) rotate(-180)"/><rect class="cls-3" x="71.82" y="154.14" width="29.66" height="19.87" rx="7.67" transform="translate(107.54 348.44) rotate(-158.62)"/><rect class="cls-3" x="73.84" y="146.69" width="20.88" height="19.57" rx="3.54" transform="translate(227.69 261.47) rotate(154.52)"/><ellipse class="cls-3" cx="95.68" cy="154.97" rx="11.83" ry="5.42"/><ellipse class="cls-3" cx="97.51" cy="163.36" rx="9.26" ry="5.42"/><ellipse class="cls-3" cx="97.51" cy="172.7" rx="9.26" ry="5.42"/><rect class="cls-3" x="177.53" y="214.53" width="7.63" height="10.35" transform="translate(416.21 380.94) rotate(164.01)"/><polygon class="cls-10" points="183.94 122.69 178.08 125.25 178.08 119.46 183.94 122.69"/><polygon class="cls-11" points="171.56 103.88 171.89 107.25 171.89 129.8 169.87 140.28 166.22 136.17 166.22 108.87 171.56 103.88"/><polygon class="cls-12" points="154.88 110.95 160.04 112.08 160.04 130.94 154.88 131.58 154.88 121.96 155.24 121.36 154.88 120.61 154.88 110.95"/><polygon class="cls-13" points="149.85 109.84 154.88 110.95 154.88 120.61 149.85 109.84"/><polygon class="cls-13" points="148.8 132.33 154.88 121.96 154.88 131.58 148.8 132.33"/><polygon class="cls-14" points="162.27 112.57 166.22 108.87 166.22 136.17 161.42 130.77 160.04 130.94 160.04 112.08 162.27 112.57"/><polygon class="cls-15" points="172.8 116.54 178.08 119.46 178.08 125.25 172.28 127.79 171.89 129.8 171.89 107.25 172.8 116.54"/></g></svg>