<svg xmlns="http://www.w3.org/2000/svg" xmlns:xlink="http://www.w3.org/1999/xlink" width="370" height="370" viewBox="0 0 370 370"><defs><style>.cls-1{fill:#6933a3;}.cls-2{fill:#3d3d3d;}.cls-3{fill:#c4c4c4;}.cls-4{fill:#e5d400;}.cls-5{fill:#079b11;}.cls-6{fill:#2f71a8;}.cls-7{fill:#e2870e;}.cls-8{fill:#ea3303;}.cls-9{fill:url(#radial-gradient);}.cls-10{fill:#fff;}</style><radialGradient id="radial-gradient" cx="5410.66" cy="-3234.03" r="197.9" gradientTransform="translate(1899.61 2446.25) rotate(-90) scale(0.41 0.52)" gradientUnits="userSpaceOnUse"><stop offset="0.14" stop-color="#020202"/><stop offset="0.77" stop-color="#555456" stop-opacity="0.4"/><stop offset="1" stop-color="#434343" stop-opacity="0"/></radialGradient></defs><title>flad krystal</title><g id="Layer_9" data-name="Layer 9"><circle class="cls-1" cx="145.5" cy="165.06" r="9.13"/><path class="cls-2" d="M351.28,240.57c-10.21-11.65-24.45-30.5-39.42-45.4-15-15.34-30.82-26.74-45.61-33.8C236,147.81,211.5,148.74,187,146s-49,19.33-79.22,40a362,362,0,0,1-45.65,26.4c-15,7.73-29.21,13.77-39.43,28.23C12.48,252.23,7.43,271.07,9.09,286c1.58,15.35,9.86,26.75,24.81,33.81C63.1,333.34,120.77,332.4,187,335.17s123.89-19.34,153.13-40c14.9-10.14,23.18-19.11,24.77-26.4C366.54,261.08,361.5,255,351.28,240.57Z"/><path class="cls-3" d="M329.71,246.44c-.58,14.73-5,22.08-12.45,29.9-7.44,7.48-17.86,15.43-30.47,23.34-25.26,16.28-59.17,30.1-96.48,21.38S119.08,306.34,93.82,296c-12.61-5.48-23-12.94-30.46-22.44-7.43-9.19-11.88-20.42-12.46-26.37-.57-8,2.78-10.1,9.46-14.4,6.67-3.95,16.67-10.09,29.29-18,25.19-16.23,61-37.42,100.66-42.21S265.77,160,291,170.94c12.62,5.45,22.61,15.92,29.29,30.54C326.93,215.71,330.29,234.09,329.71,246.44Z"/><path d="M322.4,246.91c-1.09,21.33-16.26,31.63-39.38,45.33-23.17,11.94-54.28,27.26-88.52,18S129.15,299.54,106,288.9c-23.11-9.38-38.29-27.8-39.37-41.39-1.09-9.86,12.37-13.9,35.54-27.64,23.12-11.89,55.95-33.48,92.35-35.72s69.24-12.43,92.35-1.25C310,191.74,323.48,222,322.4,246.91Z"/><path class="cls-4" d="M180.37,237.57c2.12-11.32,4.27-22.76,6.46-33.65-2.19-5.36-4.4-10.89-6.62-16.8A193.57,193.57,0,0,0,144,198.72a414.64,414.64,0,0,0,22,45.53C169,249.76,178.94,245.21,180.37,237.57Z"/><path class="cls-5" d="M280.2,216.86q21,12.84,41.71,41.8a41,41,0,0,0,2.15-11.75c.74-15.76-5.47-37.33-17.07-50.91a174.06,174.06,0,0,0-26.24,6.16C274.42,204.26,274.12,213.1,280.2,216.86Z"/><path class="cls-6" d="M155.12,261.19c-3.18,6.5-6.33,12.42-9.45,17.55,1.29,8.07,2.56,15.22,3.82,21.66,8.67,1.94,17.79,4.07,27.25,6.13-2.4-16.26-4.86-31.42-7.38-47.28C168.35,252.75,158.4,254.5,155.12,261.19Z"/><path class="cls-5" d="M136.41,244.36a341.92,341.92,0,0,1-21-31c-12.55,7.3-23.06,13.59-30.95,17.73,14.07,10,28,18.82,41.74,24.57C133.18,258.68,140.8,250.15,136.41,244.36Z"/><path class="cls-7" d="M268,206.27A220.75,220.75,0,0,1,286,181.64c-8-2.69-17-3.52-26.81-3.43q-.52,9.85-1,26.23C258,209.5,265.1,211,268,206.27Z"/><path class="cls-7" d="M144.49,271.16c-.62-4.19-7.94-3.9-10.1.07-5.38,10-10.67,17.07-15.85,21.64,9.41,2.77,19.81,5,31,7.53-1.26-6.44-2.53-13.59-3.82-21.66C145.28,276.3,144.89,273.78,144.49,271.16Z"/><path class="cls-5" d="M193.4,261.08c-3.06,16.4-6.05,32.67-9,47.06,3.86.78,7.78,1.51,11.73,2.14a156.2,156.2,0,0,0,20.6,2c-2.82-21.86-5.7-39.9-8.65-55.55C206.51,248.21,195,252.4,193.4,261.08Z"/><path class="cls-1" d="M221.31,232.32c2.54,7.16,13.48,3.13,14.69-5.76,2.84-20.78,5.74-37.06,8.71-47.75-12.48.89-26,2.23-40.1,4.11-.42,2.65-.84,5.41-1.25,8.26C209.49,203.78,215.47,216,221.31,232.32Z"/><path class="cls-8" d="M230.67,248.87c-3-3.09-8.21,1.75-7.1,6.55,3.49,15.4,6.92,33.73,10.28,55.94a111.82,111.82,0,0,0,30.39-8.82c-.32-1.4-.64-2.8-1-4.18C252.6,277,241.72,260.4,230.67,248.87Z"/><path class="cls-1" d="M279.5,237.26c2.36,4.9,4.71,10.16,7.05,15.69,6.45,7.51,12.87,16.1,19.25,25.2a58.21,58.21,0,0,0,11.11-10.41c-9.73-15.53-19.55-29.07-29.45-39.3C282.24,223.12,276,230.1,279.5,237.26Z"/><path class="cls-8" d="M121.31,271.22q3-1,6-2.3c5-2.13,3.84-8.24-1.72-8.55-18.52-1.15-37.14-6.73-55.83-19.52a9.7,9.7,0,0,0-1.52,6.66c.41,4.56,3,10.6,7.27,16.87a76.2,76.2,0,0,0,41.75,4.25C119.61,268.22,121.53,269.74,121.31,271.22Z"/><path class="cls-4" d="M257.65,226.92c-6.26-3.9-13.94,4.85-11,12.69,5.67,15.52,11.23,35.16,16.67,58.75.32,1.38.64,2.77,1,4.18a239.32,239.32,0,0,0,41.56-24.39c-6.38-9.1-12.8-17.69-19.25-25.2Q272.23,236.23,257.65,226.92Z"/><path class="cls-4" d="M121.31,271.22c.22-1.49-1.7-3-4-2.59a76.2,76.2,0,0,1-41.75-4.25,65.78,65.78,0,0,0,23.07,20.54,68.06,68.06,0,0,0,22-12.53A1.83,1.83,0,0,0,121.31,271.22Z"/><path class="cls-6" d="M192,216.44c1.48,3.6,7.94.51,8.49-3.87.94-7.55,1.9-14.72,2.87-21.39.41-2.85.83-5.61,1.25-8.26-2.8.38-5.61.78-8.45,1.23q-8.1,1.28-15.95,3c2.22,5.91,4.43,11.44,6.62,16.8C188.56,208.17,190.29,212.3,192,216.44Z"/><ellipse class="cls-9" cx="204.62" cy="251.36" rx="103.72" ry="80.28"/><path class="cls-4" d="M210.11,247.29c-2.29,12.61-4.55,25.87-6.76,39.14,2,7.52,4,15.72,6,24.79a107.34,107.34,0,0,0,34.38-2.76c-6.28-28.52-12.71-50.21-19.3-66.93C221.66,234.48,211.63,238.93,210.11,247.29Z"/><path class="cls-5" d="M111.09,267.46c-14.38-5.36-28.88-14.13-43.51-26.75a10.09,10.09,0,0,0-1,5.74c.7,8,8.21,21.3,20.4,31a86.52,86.52,0,0,0,24.62-.48C117.6,275.92,117.33,269.77,111.09,267.46Z"/><path class="cls-6" d="M235.76,222.43c3.47-7.59,7-14.63,10.5-21-.73-9.72-1.48-17.5-2.25-23.5-9.08.6-18.7,1.51-28.72,2.62,2.14,11.77,4.21,25.64,6.24,43.26C222.36,231,232.2,230.29,235.76,222.43Z"/><path class="cls-5" d="M253.2,247.44c6.15,13.89,12.19,31,18.14,50.38a253,253,0,0,0,31.34-19.11c-12.77-18.47-25.69-34.38-38.78-44.92C257.27,228.52,249.25,238.65,253.2,247.44Z"/><path class="cls-7" d="M123.77,274.48a65.47,65.47,0,0,1-15.35,14.68,215.57,215.57,0,0,0,26.19,7.36q-.47-8.26-.93-20.69C133.55,271.93,126.36,271.17,123.77,274.48Z"/><path class="cls-7" d="M246.93,210.82c.35,5.23,7.64,5.62,10.13.37A197.28,197.28,0,0,1,276,178.82c-9.56-1.75-20.32-1.58-32-.85.77,6,1.52,13.78,2.25,23.5C246.49,204.41,246.71,207.52,246.93,210.82Z"/><path class="cls-5" d="M197.36,223c3.19-15.53,6.45-29.89,9.77-41.4q-6.15.76-12.45,1.73c-7.45,1.16-14.75,2.55-21.86,4.29,3.26,14.77,6.45,27.94,9.59,41.09C184.11,235.84,195.65,231.33,197.36,223Z"/><path class="cls-1" d="M169.38,251.39c-2.7-6.14-13.72-1.33-14.62,6-2.18,17.37-4.29,32-6.33,42.3,11.91,2.64,24.66,5.76,38,8.35.37-3.45.75-6.95,1.13-10.47C181.62,279.35,175.57,265.51,169.38,251.39Z"/><path class="cls-8" d="M159.52,238.63c3.12,2,8.32-2.71,7.11-6.43-3.89-11.8-7.84-24.49-11.86-39.29a217.85,217.85,0,0,0-31.71,14.24c.38.89.77,1.77,1.16,2.65A202.42,202.42,0,0,0,159.52,238.63Z"/><path class="cls-1" d="M110.5,254.1q-4-4.54-8-9.53c-6.91-4.16-13.87-8.95-20.86-13.9a99.65,99.65,0,0,0-10.08,5.82c10.62,9.28,21.15,17.48,31.6,23.7C108.64,263.55,114.38,258.59,110.5,254.1Z"/><path class="cls-8" d="M270.21,211.84c-2.1.93-4.19,1.92-6.29,3-5.2,2.62-4.49,11,1,12.31,18.26,4.17,36.43,14.37,54.52,33.09a38.92,38.92,0,0,0,3-13.68c.43-8.86-1.32-19.42-5-29.53A93,93,0,0,0,274,215.86C271.62,216.35,269.84,214,270.21,211.84Z"/><path class="cls-4" d="M133,259.1c6.46,2.38,13.83-5.17,10.61-10.81a384.33,384.33,0,0,1-19.34-38.49c-.39-.88-.78-1.76-1.16-2.65-17.36,9.56-31.6,18.51-41.41,23.52,7,5,13.95,9.74,20.86,13.9A163.25,163.25,0,0,0,133,259.1Z"/><path class="cls-4" d="M270.21,211.84c-.37,2.15,1.41,4.51,3.79,4A93,93,0,0,1,317.41,217c-4.48-12.44-11.82-23.6-21.51-30.22-8.38,7.14-16.67,14.32-24.86,23.35A3.39,3.39,0,0,0,270.21,211.84Z"/><path class="cls-6" d="M198.48,269.71c-1.41-4.51-7.74-2-8.26,2.77-.91,8.41-1.81,16.81-2.7,25-.38,3.52-.76,7-1.13,10.47,2.63.51,5.28,1,8,1.42,5.09.82,10.1,1.44,15,1.8-2-9.07-4-17.27-6-24.79C201.74,280.46,200.11,274.92,198.48,269.71Z"/><circle class="cls-7" cx="180.35" cy="151.79" r="12.45"/><circle class="cls-5" cx="92.5" cy="315.59" r="9.36"/><circle class="cls-8" cx="74.19" cy="300.69" r="6.38"/><circle class="cls-4" cx="36.74" cy="295.58" r="7.24"/><ellipse class="cls-10" cx="178.28" cy="148.88" rx="2.07" ry="2.9"/><circle class="cls-10" cx="95.48" cy="312.61" r="2.98"/></g></svg>