<svg xmlns="http://www.w3.org/2000/svg" width="245" height="240" viewBox="0 0 245 240"><defs><style>.cls-1{fill:#6933a3;}.cls-2{fill:#2f71a8;}.cls-3{fill:#079b11;}</style></defs><title>grøn sten</title><g id="Layer_10" data-name="Layer 10"><ellipse class="cls-1" cx="69.49" cy="81.42" rx="32.09" ry="76.42"/><ellipse class="cls-1" cx="140" cy="126.12" rx="38.41" ry="99.29"/><ellipse class="cls-1" cx="28.8" cy="100.91" rx="28.3" ry="52.24"/><ellipse class="cls-1" cx="209.24" cy="71.02" rx="30.83" ry="55.1"/><ellipse class="cls-1" cx="187" cy="143.61" rx="47" ry="81.95"/><ellipse class="cls-2" cx="70.15" cy="97.72" rx="22.34" ry="72.85"/><ellipse class="cls-2" cx="147.38" cy="140.34" rx="37.28" ry="94.66"/><ellipse class="cls-2" cx="39.47" cy="116.31" rx="27.47" ry="49.81"/><ellipse class="cls-2" cx="214.58" cy="87.81" rx="29.92" ry="52.53"/><ellipse class="cls-2" cx="193" cy="146.09" rx="45.62" ry="67.2"/><ellipse class="cls-3" cx="70.97" cy="124.56" rx="21.52" ry="76.42"/><ellipse class="cls-3" cx="146.52" cy="147.77" rx="36.34" ry="77.79"/><ellipse class="cls-3" cx="41.32" cy="144.06" rx="26.78" ry="52.24"/><ellipse class="cls-3" cx="211.94" cy="114.17" rx="29.26" ry="55.27"/><ellipse class="cls-3" cx="190.99" cy="159.05" rx="44.47" ry="54.24"/><rect class="cls-3" x="14.6" y="126.29" width="225.56" height="108.19" rx="12"/><ellipse class="cls-1" cx="98.1" cy="152.74" rx="27.11" ry="68.83"/><ellipse class="cls-2" cx="101.42" cy="166.65" rx="22.55" ry="65.62"/><ellipse class="cls-3" cx="102.68" cy="174.81" rx="16.51" ry="57.44"/></g></svg>