<svg xmlns="http://www.w3.org/2000/svg" width="260" height="190" viewBox="0 0 260 190"><defs><style>.cls-1{fill:#2f71a8;}.cls-2{fill:#079b11;}.cls-3{fill:#e5d400;}</style></defs><title>gul sten</title><g id="Layer_10" data-name="Layer 10"><ellipse class="cls-1" cx="161.2" cy="66.71" rx="36.62" ry="58.61"/><ellipse class="cls-1" cx="227.32" cy="105.45" rx="30.18" ry="47.4"/><ellipse class="cls-1" cx="55.4" cy="73.85" rx="52.9" ry="70.85"/><ellipse class="cls-1" cx="108.3" cy="111.82" rx="52.9" ry="63.46"/><ellipse class="cls-2" cx="163.16" cy="83.34" rx="35.54" ry="55.88"/><ellipse class="cls-2" cx="227.33" cy="120.27" rx="29.29" ry="45.19"/><ellipse class="cls-2" cx="60.49" cy="90.15" rx="51.34" ry="67.54"/><ellipse class="cls-2" cx="111.82" cy="120.56" rx="51.34" ry="54.71"/><ellipse class="cls-3" cx="174.12" cy="109.02" rx="34.65" ry="58.61"/><ellipse class="cls-3" cx="60.47" cy="112.58" rx="50.05" ry="70.85"/><ellipse class="cls-3" cx="124.08" cy="136.8" rx="50.05" ry="46.13"/><rect class="cls-3" x="10.64" y="120.74" width="244.15" height="66.26" rx="12" transform="translate(265.43 307.74) rotate(-180)"/><ellipse class="cls-3" cx="225.5" cy="134.77" rx="29" ry="43.21"/><ellipse class="cls-1" cx="71.56" cy="106.93" rx="27.06" ry="52.07"/><ellipse class="cls-2" cx="66.24" cy="124.71" rx="26.26" ry="46.29"/><ellipse class="cls-3" cx="71.9" cy="145.21" rx="25.6" ry="37.79"/></g></svg>