<svg xmlns="http://www.w3.org/2000/svg" width="210" height="360" viewBox="0 0 210 360"><defs><style>.cls-1{fill:#262626;}.cls-2{fill:#fff;}.cls-3{fill:#b2b2b2;}.cls-4{fill:#4c4b4c;}.cls-5{fill:#686868;}.cls-6{fill:#e5e5e5;}.cls-7{fill:#172827;}.cls-8{fill:#4c4c4c;}.cls-9{fill:#7c7c7c;}</style></defs><title>ingen stjerner</title><g id="Layer_13" data-name="Layer 13"><ellipse class="cls-1" cx="10.1" cy="105.91" rx="8.1" ry="9.07"/><polygon class="cls-1" points="16.06 96.36 9.77 39.65 9.77 3.56 35.04 3.56 35.04 63.34 19.74 114.98 9.77 114.98 9.77 97.06 16.06 96.36"/><path class="cls-1" d="M63.74,68.34c-5.72-1.25-10-5.5-10.22-10.72C53.25,51.18,59.26,45.71,67,45.39l1,23Z"/><polygon class="cls-2" points="36.79 144.54 40.75 142.76 44.46 145.02 44 140.7 47.29 137.86 43.04 136.97 41.36 132.97 39.2 136.74 34.87 137.09 37.79 140.31 36.79 144.54"/><rect class="cls-3" x="168.51" y="206.68" width="14.52" height="19.75" transform="translate(351.53 433.1) rotate(-180)"/><path class="cls-4" d="M45.1,97.06h73a52.47,52.47,0,0,1-36.5,90.19c-.94,0-1.88,0-2.82-.08l-7.33-14.49-4.55,12.46A52.47,52.47,0,0,1,45.1,97.06Z"/><path class="cls-3" d="M80.23,343.71A36.79,36.79,0,0,0,91,332.36c3.92-6.65,6.61-17.28-2.82-30.14-14-19,2.2-30.17,4.18-31.43,3.28-1.49,24.2-12.24,6.6-36.8-5.35-7.47-7-13.72-4.89-18.56,2.38-5.47,9-7.41,9-7.43l-3.46-6c-.4.11-10,2.81-13.47,10.92-2.85,6.55-1,14.52,5.6,23.69,14.83,20.7-3.38,28.35-4.16,28.66l-.28.12-.28.15c-.24.15-24.09,14.7-6,39.36,6.15,8.39,6.93,16.6,2.34,24.41a30.55,30.55,0,0,1-8.84,9.36Z"/><path class="cls-3" d="M145.62,343.92a37,37,0,0,1-10-11.89c-3.5-6.84-5.65-17.59,4-29.95,14.24-18.28-.87-30.22-2.73-31.57-3.1-1.66-22.82-13.47-4.84-37.08,5.47-7.19,7.31-13.34,5.48-18.28-2.07-5.58-8.32-7.86-8.38-7.88l3.58-5.81c.39.13,9.48,3.32,12.54,11.59,2.48,6.69.33,14.55-6.38,23.37-15.15,19.9,2.09,28.46,2.83,28.82l.27.13.25.17c.23.15,22.62,15.91,4.18,39.59-6.27,8.06-7.37,16.22-3.26,24.25a30.8,30.8,0,0,0,8.13,9.8Z"/><path class="cls-4" d="M140.56,208.21l39.14-67.92a28.84,28.84,0,0,0-25-43.23H76.44a28.83,28.83,0,0,0-25,43.23L90.6,208.21A28.83,28.83,0,0,0,140.56,208.21Z"/><circle class="cls-3" cx="115.36" cy="73.52" r="26.56"/><rect class="cls-1" x="142.57" y="52.79" width="16.84" height="15.55" transform="translate(301.99 121.13) rotate(-180)"/><rect class="cls-1" x="64.19" y="50.85" width="23.97" height="17.49" transform="translate(152.35 119.19) rotate(-180)"/><path class="cls-1" d="M157.8,68.34c7.69,0,13.92-5.08,13.92-11.34s-6.23-11.33-13.92-11.33"/><polygon class="cls-1" points="103.06 40.48 87.71 40.48 11.72 17.22 11.72 3.56 103.06 3.56 103.06 40.48"/><path class="cls-1" d="M140.88,66.49c-2.47-9-16.92-12.79-32.27-8.55-7.8,2.15-14.33,6-18.54,10.4H88.16V3.56h57V68.34h-3.95A9.84,9.84,0,0,0,140.88,66.49Z"/><ellipse class="cls-1" cx="157.02" cy="336.05" rx="30.34" ry="14.47"/><rect class="cls-1" x="126.69" y="322.14" width="38.41" height="28.39" rx="10.96" transform="translate(291.78 672.66) rotate(-180)"/><ellipse class="cls-1" cx="187.36" cy="343.33" rx="20.64" ry="7.19"/><rect class="cls-1" x="151.08" y="339.52" width="38.44" height="11.09" transform="translate(340.6 690.14) rotate(-180)"/><rect class="cls-1" x="132.6" y="306.26" width="13.31" height="20.7" transform="translate(278.51 633.22) rotate(-180)"/><ellipse class="cls-1" cx="70.48" cy="334.57" rx="30.34" ry="14.47"/><rect class="cls-1" x="62.41" y="320.66" width="38.41" height="28.39" rx="10.96"/><ellipse class="cls-1" cx="40.14" cy="341.85" rx="20.64" ry="7.19"/><rect class="cls-1" x="37.98" y="338.05" width="38.44" height="11.09"/><rect class="cls-1" x="81.59" y="304.78" width="13.31" height="20.7"/><rect x="87.51" y="125.15" width="11.83" height="237.29" rx="4.56" transform="translate(186.84 487.59) rotate(-180)"/><polygon class="cls-5" points="78.72 138.8 93.58 127.73 108.63 138.56 106.48 120.15 123.38 112.54 106.36 105.2 108.22 86.75 93.35 97.82 78.3 86.99 80.45 105.4 63.55 113.02 80.57 120.36 78.72 138.8"/><circle class="cls-6" cx="128.64" cy="75.79" r="4.86"/><circle class="cls-6" cx="105.97" cy="70.61" r="4.86"/><ellipse class="cls-7" cx="131.88" cy="76.44" rx="7.52" ry="3.01" transform="translate(15.73 175.15) rotate(-70.46)"/><ellipse class="cls-7" cx="110.51" cy="70.61" rx="7.52" ry="3.01" transform="translate(7 151.13) rotate(-70.46)"/><circle class="cls-2" cx="128.97" cy="76.11" r="2.59"/><circle class="cls-2" cx="106.3" cy="70.93" r="2.59"/><polygon class="cls-3" points="176.2 224.73 186.32 202.03 163.97 203.09 176.2 224.73"/><rect class="cls-4" x="157.69" y="97.06" width="31.11" height="110.14"/><polygon points="77.39 155.46 79.38 156.13 66.07 185.03 66.05 155.46 77.39 155.46"/><ellipse class="cls-3" cx="169.56" cy="229.38" rx="14.05" ry="16.26"/><ellipse class="cls-8" cx="157.36" cy="230.86" rx="6.28" ry="7.39"/><ellipse class="cls-9" cx="161.8" cy="236.4" rx="6.28" ry="8.5"/><ellipse class="cls-2" cx="167.71" cy="237.51" rx="7.02" ry="10.35" transform="translate(-85.92 95.34) rotate(-25.5)"/><ellipse class="cls-3" cx="168.08" cy="238.62" rx="6.65" ry="9.24" transform="translate(-93.94 110.02) rotate(-28.7)"/><ellipse class="cls-3" cx="175.46" cy="240.85" rx="5.47" ry="2.87" transform="translate(-118.91 194.61) rotate(-45)"/><ellipse class="cls-2" cx="182.13" cy="231.23" rx="5.91" ry="9.24" transform="translate(-49.66 49.81) rotate(-13.72)"/><ellipse class="cls-3" cx="182.87" cy="231.23" rx="5.91" ry="9.24" transform="translate(-49.64 49.98) rotate(-13.72)"/><rect class="cls-3" x="66.81" y="155.46" width="17" height="17" transform="translate(150.62 327.92) rotate(-180)"/><rect class="cls-3" x="68.82" y="158.14" width="29.66" height="19.87" rx="7.67" transform="translate(100.29 355.07) rotate(-158.62)"/><rect class="cls-3" x="70.84" y="150.69" width="20.88" height="19.57" rx="3.54" transform="translate(223.71 270.38) rotate(154.52)"/><ellipse class="cls-3" cx="92.68" cy="158.97" rx="11.83" ry="5.42"/><ellipse class="cls-3" cx="94.51" cy="167.36" rx="9.26" ry="5.42"/><ellipse class="cls-3" cx="94.51" cy="176.7" rx="9.26" ry="5.42"/><rect class="cls-3" x="174.53" y="218.53" width="7.63" height="10.35" transform="translate(411.43 389.61) rotate(164.01)"/></g></svg>