<svg xmlns="http://www.w3.org/2000/svg" width="1600" height="900" viewBox="0 0 1600 900"><defs><style>.cls-1{fill:#079b11;}.cls-2{fill:#2f71a8;}.cls-3{fill:#6933a3;}</style></defs><title>lilla stalagmitter</title><g id="Layer_10" data-name="Layer 10"><ellipse class="cls-1" cx="1612.08" cy="18.16" rx="94.35" ry="201.21"/><ellipse class="cls-1" cx="1182.44" cy="-25.41" rx="61.45" ry="143.93"/><ellipse class="cls-1" cx="695.71" cy="22.57" rx="84.67" ry="211.49"/><ellipse class="cls-1" cx="1047.45" cy="-109.61" rx="73.54" ry="187.02"/><ellipse class="cls-1" cx="473.64" cy="1.03" rx="52.25" ry="112.6"/><ellipse class="cls-1" cx="1366.29" cy="-26.88" rx="51.77" ry="109.17"/><ellipse class="cls-1" cx="1456.29" cy="-92.97" rx="61.45" ry="104.77"/><ellipse class="cls-1" cx="1260.34" cy="-62.12" rx="54.19" ry="98.4"/><ellipse class="cls-1" cx="914.89" cy="-5.82" rx="59.03" ry="103.79"/><ellipse class="cls-1" cx="567.98" cy="-73.38" rx="43.06" ry="91.06"/><ellipse class="cls-1" cx="776.03" cy="-64.08" rx="79.83" ry="162.05"/><ellipse class="cls-1" cx="322.68" cy="-12.68" rx="75.48" ry="136.1"/><ellipse class="cls-1" cx="398.16" cy="-100.31" rx="75.48" ry="136.59"/><ellipse class="cls-1" cx="1557.41" cy="-112.55" rx="101.6" ry="124.35"/><ellipse class="cls-1" cx="845.21" cy="-94.93" rx="69.67" ry="112.6"/><ellipse class="cls-1" cx="183.34" cy="-7.78" rx="139.34" ry="268.28"/><ellipse class="cls-1" cx="957.46" cy="-157.59" rx="89.99" ry="169.39"/><ellipse class="cls-2" cx="1601.09" cy="-13.61" rx="71.75" ry="191.82"/><ellipse class="cls-2" cx="1186.99" cy="-44.38" rx="42.77" ry="137.22"/><ellipse class="cls-2" cx="691.14" cy="-8.43" rx="70.42" ry="201.62"/><ellipse class="cls-2" cx="1039.13" cy="-124.65" rx="71.37" ry="178.29"/><ellipse class="cls-2" cx="482.25" cy="-19.17" rx="50.71" ry="107.35"/><ellipse class="cls-2" cx="1348.56" cy="-45.78" rx="50.24" ry="104.08"/><ellipse class="cls-2" cx="1245.73" cy="-79.38" rx="52.59" ry="93.81"/><ellipse class="cls-2" cx="910.47" cy="-25.71" rx="57.28" ry="98.94"/><ellipse class="cls-2" cx="775.66" cy="-91.04" rx="66.88" ry="154.48"/><ellipse class="cls-2" cx="335.75" cy="-32.24" rx="73.25" ry="129.75"/><ellipse class="cls-2" cx="409" cy="-115.78" rx="73.25" ry="130.22"/><ellipse class="cls-2" cx="175.12" cy="-27.57" rx="109.83" ry="255.76"/><ellipse class="cls-3" cx="1606.45" cy="-51.35" rx="57.76" ry="201.21"/><ellipse class="cls-3" cx="1185.41" cy="-94.93" rx="41.19" ry="143.93"/><ellipse class="cls-3" cx="694.16" cy="-68.49" rx="58.53" ry="211.49"/><ellipse class="cls-3" cx="1040.77" cy="-179.13" rx="69.58" ry="187.02"/><ellipse class="cls-3" cx="497.89" cy="-68.49" rx="49.44" ry="112.6"/><ellipse class="cls-3" cx="1342.42" cy="-96.39" rx="48.98" ry="109.17"/><ellipse class="cls-3" cx="915.35" cy="-75.34" rx="55.84" ry="103.79"/><ellipse class="cls-3" cx="783.97" cy="-133.6" rx="75.53" ry="162.05"/><ellipse class="cls-3" cx="335.72" cy="-72.41" rx="71.41" ry="136.1"/><ellipse class="cls-3" cx="177.05" cy="-77.3" rx="85.64" ry="268.28"/></g></svg>