<svg xmlns="http://www.w3.org/2000/svg" width="610" height="520" viewBox="0 0 610 520"><defs><style>.cls-1{fill:#fff;}</style></defs><title>replay</title><g id="Layer_11" data-name="Layer 11"><path d="M605.5,175H449.81A204.52,204.52,0,0,0,264,56C151.06,56,59.5,147.56,59.5,260.5S151.06,465,264,465a204.17,204.17,0,0,0,163.47-81.62L382.9,371.25,485.4,269.58,510.29,364H605.5Z"/><path class="cls-1" d="M485.4,269.58,382.9,371.25l44.57,12.13A204.17,204.17,0,0,1,264,465C151.06,465,59.5,373.44,59.5,260.5S151.06,56,264,56A204.52,204.52,0,0,1,449.81,175h58.4C473,73.71,376.77,1,263.5,1c-143,0-259,116-259,259s116,259,259,259a258.8,258.8,0,0,0,219-120.64l39.73,10.82L510.29,364Z"/></g></svg>
