<svg xmlns="http://www.w3.org/2000/svg" width="1600" height="900" viewBox="0 0 1600 900"><defs><style>.cls-1{fill:#e5d400;}.cls-2{fill:#e2870e;}.cls-3{fill:#ea3303;}.cls-4{fill:#079b11;}.cls-5{fill:#2f71a8;}.cls-6{fill:#6933a3;}</style></defs><title>roede stalagmitter</title><g id="Layer_10" data-name="Layer 10"><ellipse class="cls-1" cx="321.77" cy="340.81" rx="12.49" ry="13.23"/><ellipse class="cls-1" cx="84.5" cy="125" rx="97.5" ry="205.5"/><ellipse class="cls-1" cx="528.5" cy="80.5" rx="63.5" ry="147"/><ellipse class="cls-1" cx="1031.5" cy="129.5" rx="87.5" ry="216"/><ellipse class="cls-1" cx="668" cy="-5.5" rx="76" ry="191"/><ellipse class="cls-1" cx="1261" cy="107.5" rx="54" ry="115"/><ellipse class="cls-1" cx="-10.5" cy="144" rx="46.5" ry="122.5"/><ellipse class="cls-1" cx="338.5" cy="79" rx="53.5" ry="111.5"/><ellipse class="cls-1" cx="245.5" cy="11.5" rx="63.5" ry="107"/><ellipse class="cls-1" cx="448" cy="43" rx="56" ry="100.5"/><ellipse class="cls-1" cx="805" cy="100.5" rx="61" ry="106"/><ellipse class="cls-1" cx="1163.5" cy="31.5" rx="44.5" ry="93"/><ellipse class="cls-1" cx="948.5" cy="41" rx="82.5" ry="165.5"/><ellipse class="cls-1" cx="1417" cy="93.5" rx="78" ry="139"/><ellipse class="cls-1" cx="1339" cy="4" rx="78" ry="139.5"/><ellipse class="cls-1" cx="141" cy="-8.5" rx="105" ry="127"/><ellipse class="cls-1" cx="877" cy="9.5" rx="72" ry="115"/><ellipse class="cls-1" cx="1561" cy="98.5" rx="144" ry="274"/><ellipse class="cls-1" cx="761" cy="-54.5" rx="93" ry="173"/><ellipse class="cls-2" cx="95.85" cy="92.55" rx="74.15" ry="195.91"/><ellipse class="cls-2" cx="523.8" cy="61.13" rx="44.2" ry="140.14"/><ellipse class="cls-2" cx="1036.23" cy="97.84" rx="72.77" ry="205.92"/><ellipse class="cls-2" cx="676.6" cy="-20.86" rx="73.76" ry="182.09"/><ellipse class="cls-2" cx="1252.1" cy="86.87" rx="52.41" ry="109.63"/><ellipse class="cls-2" cx="0.13" cy="124.66" rx="45.13" ry="116.78"/><ellipse class="cls-2" cx="356.83" cy="59.7" rx="51.92" ry="106.3"/><ellipse class="cls-2" cx="266.57" cy="-4.65" rx="61.63" ry="102.01"/><ellipse class="cls-2" cx="463.1" cy="25.38" rx="54.35" ry="95.81"/><ellipse class="cls-2" cx="809.56" cy="80.19" rx="59.2" ry="101.05"/><ellipse class="cls-2" cx="1157.48" cy="14.41" rx="43.19" ry="88.66"/><ellipse class="cls-2" cx="948.88" cy="13.47" rx="69.12" ry="157.78"/><ellipse class="cls-2" cx="1403.5" cy="73.52" rx="75.7" ry="132.51"/><ellipse class="cls-2" cx="1327.8" cy="-11.8" rx="75.7" ry="132.99"/><ellipse class="cls-2" cx="165.16" cy="-23.72" rx="101.9" ry="121.07"/><ellipse class="cls-2" cx="879.44" cy="-6.56" rx="69.88" ry="109.63"/><ellipse class="cls-2" cx="1569.5" cy="78.29" rx="113.5" ry="261.21"/><ellipse class="cls-2" cx="766.86" cy="-67.57" rx="90.26" ry="164.93"/><ellipse class="cls-3" cx="90.31" cy="54" rx="59.69" ry="205.5"/><ellipse class="cls-3" cx="525.43" cy="9.5" rx="42.57" ry="147"/><ellipse class="cls-3" cx="1033.11" cy="36.5" rx="60.48" ry="216"/><ellipse class="cls-3" cx="674.91" cy="-76.5" rx="71.9" ry="191"/><ellipse class="cls-3" cx="1235.94" cy="36.5" rx="51.09" ry="115"/><ellipse class="cls-3" cx="32.99" cy="73" rx="43.99" ry="122.5"/><ellipse class="cls-3" cx="363.18" cy="8" rx="50.62" ry="111.5"/><ellipse class="cls-3" cx="275.19" cy="-59.5" rx="60.08" ry="107"/><ellipse class="cls-3" cx="466.77" cy="-28" rx="52.98" ry="100.5"/><ellipse class="cls-3" cx="804.52" cy="29.5" rx="57.71" ry="106"/><ellipse class="cls-3" cx="1158.7" cy="-23.5" rx="42.1" ry="93"/><ellipse class="cls-3" cx="940.29" cy="-30" rx="78.05" ry="165.5"/><ellipse class="cls-3" cx="1403.53" cy="29.5" rx="73.79" ry="139"/><ellipse class="cls-3" cx="1309.73" cy="-67" rx="73.79" ry="139.5"/><ellipse class="cls-3" cx="176.32" cy="-79.5" rx="99.34" ry="127"/><ellipse class="cls-3" cx="872.64" cy="-61.5" rx="68.12" ry="115"/><ellipse class="cls-3" cx="1567.5" cy="27.5" rx="88.5" ry="274"/><ellipse class="cls-3" cx="762.9" cy="-125.5" rx="87.99" ry="173"/><ellipse class="cls-4" cx="1638.08" cy="35.16" rx="94.35" ry="201.21"/><ellipse class="cls-4" cx="1208.44" cy="-8.41" rx="61.45" ry="143.93"/><ellipse class="cls-4" cx="721.71" cy="39.57" rx="84.67" ry="211.49"/><ellipse class="cls-4" cx="1073.45" cy="-92.61" rx="73.54" ry="187.02"/><ellipse class="cls-4" cx="499.64" cy="18.03" rx="52.25" ry="112.6"/><ellipse class="cls-4" cx="1392.29" cy="-9.88" rx="51.77" ry="109.17"/><ellipse class="cls-4" cx="1482.29" cy="-75.97" rx="61.45" ry="104.77"/><ellipse class="cls-4" cx="1286.34" cy="-45.12" rx="54.19" ry="98.4"/><ellipse class="cls-4" cx="940.89" cy="11.18" rx="59.03" ry="103.79"/><ellipse class="cls-4" cx="593.98" cy="-56.38" rx="43.06" ry="91.06"/><ellipse class="cls-4" cx="802.03" cy="-47.08" rx="79.83" ry="162.05"/><ellipse class="cls-4" cx="348.68" cy="4.32" rx="75.48" ry="136.1"/><ellipse class="cls-4" cx="424.16" cy="-83.31" rx="75.48" ry="136.59"/><ellipse class="cls-4" cx="1583.41" cy="-95.55" rx="101.6" ry="124.35"/><ellipse class="cls-4" cx="871.21" cy="-77.93" rx="69.67" ry="112.6"/><ellipse class="cls-4" cx="209.34" cy="9.22" rx="139.34" ry="268.28"/><ellipse class="cls-4" cx="983.46" cy="-140.59" rx="89.99" ry="169.39"/><ellipse class="cls-5" cx="1627.09" cy="3.39" rx="71.75" ry="191.82"/><ellipse class="cls-5" cx="1212.99" cy="-27.38" rx="42.77" ry="137.22"/><ellipse class="cls-5" cx="717.14" cy="8.57" rx="70.42" ry="201.62"/><ellipse class="cls-5" cx="1065.13" cy="-107.65" rx="71.37" ry="178.29"/><ellipse class="cls-5" cx="508.25" cy="-2.17" rx="50.71" ry="107.35"/><ellipse class="cls-5" cx="1374.56" cy="-28.78" rx="50.24" ry="104.08"/><ellipse class="cls-5" cx="1271.73" cy="-62.38" rx="52.59" ry="93.81"/><ellipse class="cls-5" cx="936.47" cy="-8.71" rx="57.28" ry="98.94"/><ellipse class="cls-5" cx="801.66" cy="-74.04" rx="66.88" ry="154.48"/><ellipse class="cls-5" cx="361.75" cy="-15.24" rx="73.25" ry="129.75"/><ellipse class="cls-5" cx="435" cy="-98.78" rx="73.25" ry="130.22"/><ellipse class="cls-5" cx="201.12" cy="-10.57" rx="109.83" ry="255.76"/><ellipse class="cls-6" cx="1632.45" cy="-34.35" rx="57.76" ry="201.21"/><ellipse class="cls-6" cx="1211.41" cy="-77.93" rx="41.19" ry="143.93"/><ellipse class="cls-6" cx="720.16" cy="-51.49" rx="58.53" ry="211.49"/><ellipse class="cls-6" cx="1066.77" cy="-162.13" rx="69.58" ry="187.02"/><ellipse class="cls-6" cx="523.89" cy="-51.49" rx="49.44" ry="112.6"/><ellipse class="cls-6" cx="1368.42" cy="-79.39" rx="48.98" ry="109.17"/><ellipse class="cls-6" cx="941.35" cy="-58.34" rx="55.84" ry="103.79"/><ellipse class="cls-6" cx="809.97" cy="-116.6" rx="75.53" ry="162.05"/><ellipse class="cls-6" cx="361.72" cy="-55.41" rx="71.41" ry="136.1"/><ellipse class="cls-6" cx="203.05" cy="-60.3" rx="85.64" ry="268.28"/></g></svg>