<svg xmlns="http://www.w3.org/2000/svg" xmlns:xlink="http://www.w3.org/1999/xlink" width="370" height="370" viewBox="0 0 370 370"><defs><style>.cls-1{fill:#282828;}.cls-2{fill:#3d3d3d;}.cls-3{fill:#878787;}.cls-4{fill:#eaeaea;}.cls-5{fill:none;}.cls-6{fill:#e5d400;}.cls-7{fill:#ea3303;}.cls-8{fill:#2f71a8;}.cls-9{fill:#6933a3;}.cls-10{fill:#e2870e;}.cls-11{fill:url(#radial-gradient);}.cls-12{fill:#079b11;}.cls-13{fill:#fff;}</style><radialGradient id="radial-gradient" cx="171.64" cy="209.92" r="87.15" gradientUnits="userSpaceOnUse"><stop offset="0.14" stop-color="#020202"/><stop offset="0.77" stop-color="#555456" stop-opacity="0.4"/><stop offset="1" stop-color="#434343" stop-opacity="0"/></radialGradient></defs><title>rund krystal</title><g id="Layer_9" data-name="Layer 9"><ellipse class="cls-1" cx="195.49" cy="208.8" rx="148.44" ry="143.54"/><ellipse class="cls-2" cx="208.53" cy="192.31" rx="124.01" ry="119.91"/><path class="cls-3" d="M209.94,154.35a26.82,26.82,0,0,0,5.22-7.13c8.46-16.88-2.64-39.55-24.79-50.65-1.56-.78-3.14-1.47-4.72-2.1,5.09-23.2,1.81-42.36-10-48.29-15.85-7.94-41.47,10.56-59.55,42-15.09-2.36-29.36,3.17-35.3,15a25.52,25.52,0,0,0-1.88,5.06A53.93,53.93,0,0,0,44,202.91c-.26.49-.52,1-.77,1.47-16.65,33.22-13.47,68.51,7.1,78.81a26.9,26.9,0,0,0,9.41,2.68c12.45,12,35.22,10.85,60-.83-1,7.09.53,12.9,4.58,14.93,6.32,3.17,16.38-4.1,22.46-16.22,3.31-6.62,4.75-13.31,4.36-18.54a197,197,0,0,0,16.58-14.84C200.67,217.36,217.06,178.2,209.94,154.35Z"/><path class="cls-4" d="M199.23,157.07a24.64,24.64,0,0,0,4.72-6.49c7.68-15.32-2.08-35.74-21.78-45.61-1.39-.7-2.8-1.32-4.21-1.87,4.71-21,1.92-38.32-8.62-43.6-14.1-7.07-37.13,9.85-53.51,38.38-13.46-2-26.25,3.08-31.65,13.84a23.78,23.78,0,0,0-1.71,4.59,49.07,49.07,0,0,0-42.94,27.26c-10.24,20.45-5.11,44.5,11,58.62-.24.44-.47.88-.7,1.33-15.11,30.17-12.53,62,5.77,71.22A23.38,23.38,0,0,0,64,277.09c11,10.78,31.39,9.56,53.63-1.18-1,6.42.38,11.66,4,13.46,5.63,2.82,14.66-3.82,20.18-14.83,3-6,4.35-12.06,4-16.79a182.65,182.65,0,0,0,14.93-13.54C190.49,214.12,205.42,178.59,199.23,157.07Z"/><path class="cls-3" d="M191.34,163.17a19.15,19.15,0,0,0,4-5.37c6.41-12.78-2.78-30.34-20.52-39.23-1.25-.62-2.51-1.18-3.78-1.69,3.62-17.68.69-32.42-8.8-37.17-12.69-6.36-32.67,7.37-46.44,31.11-12-2.08-23.2,1.91-27.7,10.89a18.06,18.06,0,0,0-1.4,3.84c-15.53-.22-30.25,7.78-37.36,22-8.55,17-3.36,37.56,11.34,49.95-.19.38-.39.74-.58,1.12-12.6,25.16-9.47,52.24,7,60.5a22.74,22.74,0,0,0,7.51,2.21c10.07,9.43,28.09,8.93,47.53.42-.67,5.41.65,9.89,3.89,11.51,5.07,2.54,12.91-2.84,17.51-12,2.51-5,3.53-10.11,3.13-14.13A143.85,143.85,0,0,0,159.56,236C185.1,211.29,197.4,181.57,191.34,163.17Z"/><path class="cls-5" d="M126.71,135.23l11.91-27.31q-1.44,1.78-2.85,3.75l-10.72,24.59Z"/><path class="cls-5" d="M86,225.9l-4.22,9.69c.23.39.47.77.71,1.14l3.89-8.91C86.21,227.18,86.08,226.54,86,225.9Z"/><path class="cls-5" d="M105.12,132.05,80.94,187.52c.26.32.52.64.79.95L106.36,132C105.94,132,105.53,132,105.12,132.05Z"/><path class="cls-6" d="M77,150.82a34.19,34.19,0,0,0,3.9,36.7l24.18-55.47A34.17,34.17,0,0,0,77,150.82Z"/><path class="cls-7" d="M151.7,125.06l14.51-33.29c-7.81-1.77-18.33,4.64-27.59,16.15l-11.91,27.31A86.72,86.72,0,0,1,151.7,125.06Z"/><path class="cls-7" d="M82.45,236.73a17.67,17.67,0,0,0,6.77,6.12,16.69,16.69,0,0,0,2.07.85,86.91,86.91,0,0,1-5-15.88Z"/><path class="cls-8" d="M175.1,122.85a65.89,65.89,0,0,0,1.09-6.82l-2.95,6.76Q174.17,122.81,175.1,122.85Z"/><path class="cls-9" d="M171.64,122.77l1.6,0,2.95-6.76c1.18-11.35-1.3-20.27-7.54-23.4a10.88,10.88,0,0,0-2.44-.86L151.7,125.06A87.32,87.32,0,0,1,171.64,122.77Z"/><path class="cls-10" d="M84.5,209.92a87.08,87.08,0,0,1,40.55-73.66l10.72-24.59c-1.68,2.36-3.31,4.88-4.86,7.56-9.56-1.5-18.61,2-22.37,9.52a15.93,15.93,0,0,0-1.19,3.21c-.33,0-.66,0-1,0L81.73,188.47a34.83,34.83,0,0,0,3.48,3.5c-.16.31-.33.62-.48.93-8,16-8.77,32.7-3,42.69L86,225.9A87.63,87.63,0,0,1,84.5,209.92Z"/><path class="cls-11" d="M185.33,192.11q1.23-2.56,2.21-5.07Z"/><path class="cls-11" d="M86,225.9c.12.64.25,1.28.38,1.92l40.37-92.59-1.66,1Z"/><path class="cls-11" d="M189.21,133.29l-52.5,120.42a4.65,4.65,0,0,0,1.11.22L190,134.26C189.75,133.94,189.48,133.61,189.21,133.29Z"/><path class="cls-7" d="M126.71,135.23,86.34,227.82a86.91,86.91,0,0,0,5,15.88,18.33,18.33,0,0,0,3.9.85,16.9,16.9,0,0,0,3.32,2.5l53.19-122A86.72,86.72,0,0,0,126.71,135.23Z"/><path class="cls-11" d="M126.71,135.23,86.34,227.82a86.91,86.91,0,0,0,5,15.88,18.33,18.33,0,0,0,3.9.85,16.9,16.9,0,0,0,3.32,2.5l53.19-122A86.72,86.72,0,0,0,126.71,135.23Z"/><path class="cls-8" d="M178,124.57c-1-.49-2-.93-3-1.33,0-.13,0-.26.08-.39q-.93,0-1.86-.06L118.16,249.12a64.78,64.78,0,0,0,15.07-5.1c-.64,4.5.34,8.18,2.9,9.46a4.66,4.66,0,0,0,.58.23l52.5-120.42A35.51,35.51,0,0,0,178,124.57Z"/><path class="cls-11" d="M178,124.57c-1-.49-2-.93-3-1.33,0-.13,0-.26.08-.39q-.93,0-1.86-.06L118.16,249.12a64.78,64.78,0,0,0,15.07-5.1c-.64,4.5.34,8.18,2.9,9.46a4.66,4.66,0,0,0,.58.23l52.5-120.42A35.51,35.51,0,0,0,178,124.57Z"/><path class="cls-12" d="M190.41,161.19a16.53,16.53,0,0,0,3.31-4.52c3.47-6.92,1.74-15.39-3.72-22.41L137.82,253.93c4,.3,9.2-4.05,12.55-10.73a23.47,23.47,0,0,0,2.76-11.75,124.57,124.57,0,0,0,10.51-9.4,111,111,0,0,0,21.69-29.94l2.21-5.07C191.39,177.24,192.5,168.18,190.41,161.19Z"/><path class="cls-11" d="M190.41,161.19a16.53,16.53,0,0,0,3.31-4.52c3.47-6.92,1.74-15.39-3.72-22.41L137.82,253.93c4,.3,9.2-4.05,12.55-10.73a23.47,23.47,0,0,0,2.76-11.75,124.57,124.57,0,0,0,10.51-9.4,111,111,0,0,0,21.69-29.94l2.21-5.07C191.39,177.24,192.5,168.18,190.41,161.19Z"/><path class="cls-9" d="M171.64,122.77a87.32,87.32,0,0,0-19.94,2.29l-53.19,122c5.11,3,11.94,3.57,19.65,2.07l55.08-126.33Z"/><path class="cls-11" d="M171.64,122.77a87.32,87.32,0,0,0-19.94,2.29l-53.19,122c5.11,3,11.94,3.57,19.65,2.07l55.08-126.33Z"/><path class="cls-10" d="M84.5,209.92a87.63,87.63,0,0,0,1.46,16l39.09-89.64A87.08,87.08,0,0,0,84.5,209.92Z"/><path class="cls-11" d="M84.5,209.92a87.63,87.63,0,0,0,1.46,16l39.09-89.64A87.08,87.08,0,0,0,84.5,209.92Z"/><circle class="cls-6" cx="332.35" cy="172.25" r="13.37"/><circle class="cls-6" cx="206.19" cy="297.51" r="7.58"/><circle class="cls-10" cx="298.47" cy="225.74" r="13.37"/><circle class="cls-12" cx="309.17" cy="254.27" r="9.81"/><circle class="cls-8" cx="298.02" cy="115.63" r="15.6"/><circle class="cls-9" cx="218.23" cy="268.53" r="9.81"/><circle class="cls-7" cx="206.19" cy="250.26" r="6.69"/><circle class="cls-13" cx="300.7" cy="112.07" r="4.01"/><circle class="cls-13" cx="333.24" cy="169.57" r="4.46"/><circle class="cls-13" cx="300.7" cy="219.95" r="4.01"/><circle class="cls-13" cx="309.17" cy="254.27" r="4.46"/><circle class="cls-13" cx="221.79" cy="261.4" r="2.67"/></g></svg>