<svg xmlns="http://www.w3.org/2000/svg" width="260" height="245" viewBox="0 0 260 245"><defs><style>.cls-1{fill:#e5d400;}.cls-2{fill:#e2870e;}.cls-3{fill:#ea3303;}</style></defs><title>rød sten</title><g id="Layer_10" data-name="Layer 10"><ellipse class="cls-1" cx="98.8" cy="84.86" rx="36.62" ry="77.99"/><ellipse class="cls-1" cx="32.68" cy="136.4" rx="30.18" ry="63.07"/><ellipse class="cls-1" cx="204.6" cy="94.36" rx="52.9" ry="94.27"/><ellipse class="cls-1" cx="151.7" cy="144.88" rx="52.9" ry="84.43"/><ellipse class="cls-2" cx="96.84" cy="106.99" rx="35.54" ry="74.35"/><ellipse class="cls-2" cx="32.67" cy="156.13" rx="29.29" ry="60.13"/><ellipse class="cls-2" cx="199.51" cy="116.04" rx="51.34" ry="89.87"/><ellipse class="cls-2" cx="148.18" cy="156.52" rx="51.34" ry="72.8"/><ellipse class="cls-3" cx="85.88" cy="141.15" rx="34.65" ry="77.99"/><ellipse class="cls-3" cx="199.53" cy="145.9" rx="50.05" ry="94.27"/><ellipse class="cls-3" cx="135.92" cy="178.11" rx="50.05" ry="61.38"/><rect class="cls-3" x="5.21" y="156.75" width="244.15" height="88.16" rx="12"/><ellipse class="cls-3" cx="32.3" cy="178.61" rx="28.2" ry="62.3"/><ellipse class="cls-1" cx="107.34" cy="159.41" rx="42.47" ry="70.45"/><ellipse class="cls-2" cx="109.28" cy="172.95" rx="41.22" ry="56.96"/><ellipse class="cls-3" cx="109.32" cy="191.9" rx="40.18" ry="47.01"/></g></svg>