<svg xmlns="http://www.w3.org/2000/svg" width="740" height="720" viewBox="0 0 740 720"><defs><style>.cls-1{fill:#2f71a8;}.cls-2{fill:#079b11;}.cls-3{fill:#e5d400;}</style></defs><title>settings win loose</title><g id="Layer_14" data-name="Layer 14"><path class="cls-1" d="M337.69,303.64c-.56.48-1.13,1-1.72,1.43l3.61.62c1-.26,2-.5,3-.75C341,304.52,339.31,304.08,337.69,303.64Z"/><path class="cls-1" d="M239,616c-.95,1.37-2,2.7-3.06,4,2.87-.39,5.82-.77,8.83-1.14C242.83,617.88,240.9,616.92,239,616Z"/><path class="cls-1" d="M727.64,491.48c0-16.32-43-29.7-97.56-31C645.94,449,655.25,435,655.25,419.89c0-16-10.39-30.71-27.92-42.57,17.41-10.38,27.92-23.82,27.92-38.5,0-18.29-16.3-34.65-41.93-45.57,26.25-11.21,41.93-25.37,41.93-40.77,0-36.34-87.29-65.8-195-65.8h3.1c62,0,112.22-12,112.22-26.85S525.37,133,463.39,133h-.51c0-32-80.57-57.9-180-57.9S103,101,103,133c0,12.56,12.43,24.18,33.53,33.67C116.05,171.86,103,179.84,103,188.79c0,15,36.61,27.23,83.09,28.34a1,1,0,0,0,0,.1l-4.52,0C87.89,217.21,12,245,12,279.33c0,24.77,39.6,46.16,96.87,56.13-3.81,4.25-5.86,8.73-5.86,13.36,0,27.33,71.08,49.48,158.76,49.48,6.85,0,13.61-.13,20.23-.4.76.69,1.54,1.36,2.34,2-17.31-1.06-35.64-1.63-54.63-1.63-105.39,0-190.82,17.44-190.82,39,0,13.9,35.7,26.11,89.4,33a15.3,15.3,0,0,0-1.89,3.77c-31.07,8.38-50.28,20-50.28,32.72,0,13.92,22.83,26.4,59,34.9C115.69,551.85,103,569.19,103,588.87c0,27.26,24.45,50,57.06,55.56a5.71,5.71,0,0,0-.17,1.29c0,9.85,27.27,18.74,71.07,25.07-23.5,4.26-38,10.09-38,16.52,0,13.08,60,23.69,133.94,23.69s133.93-10.61,133.93-23.69c0-2.84-2.84-5.57-8-8.1,97.67-4.06,169.38-17.51,169.38-33.49,0-11.59-37.76-21.85-95.8-28.16,21.3-10.52,36.8-23.41,44.27-37.69C648.93,576.12,709,554.24,709,527.8c0-5.54-2.65-10.88-7.55-15.89C717.77,506.45,727.64,499.3,727.64,491.48ZM336,305.07c.59-.47,1.16-.95,1.72-1.43,1.62.44,3.26.88,4.91,1.3-1,.25-2,.49-3,.75ZM239,616c1.87,1,3.8,1.93,5.77,2.86-3,.37-6,.75-8.83,1.14C237.05,618.65,238.08,617.32,239,616Z"/><path class="cls-2" d="M337.69,283.64c-.56.48-1.13,1-1.72,1.43l3.61.61,3-.74Q340.13,284.29,337.69,283.64Z"/><path class="cls-2" d="M239,596c-.95,1.37-2,2.7-3.06,4,2.87-.39,5.82-.77,8.83-1.14C242.83,597.87,240.9,596.92,239,596Z"/><path class="cls-2" d="M727.64,471.48c0-16.32-43-29.7-97.56-31C645.94,429,655.25,415,655.25,399.88c0-16-10.39-30.7-27.92-42.57,17.41-10.37,27.92-23.81,27.92-38.5,0-18.29-16.3-34.65-41.93-45.56,26.25-11.21,41.93-25.37,41.93-40.77,0-36.34-87.29-65.8-195-65.8h-.39v0l3.49,0c62,0,112.22-12,112.22-26.85S525.37,113,463.39,113h-.51c0-32-80.57-57.91-180-57.91S103,81,103,113c0,12.56,12.43,24.18,33.53,33.67C116.05,151.86,103,159.84,103,168.78c0,15,36.61,27.23,83.09,28.35l0,.1-4.52,0C87.89,197.21,12,225,12,259.33c0,24.77,39.6,46.15,96.87,56.12C105,319.7,103,324.19,103,328.81c0,27.33,71.08,49.49,158.76,49.49,6.85,0,13.61-.14,20.23-.4.76.68,1.54,1.35,2.34,2-17.31-1.05-35.64-1.62-54.63-1.62-105.39,0-190.82,17.44-190.82,38.95,0,13.91,35.7,26.11,89.4,33a15.3,15.3,0,0,0-1.89,3.77C95.28,462.41,76.07,474,76.07,486.74c0,13.92,22.83,26.41,59,34.9C115.69,531.85,103,549.19,103,568.86c0,27.27,24.45,50,57.06,55.57a5.71,5.71,0,0,0-.17,1.29c0,9.85,27.27,18.74,71.07,25.06-23.5,4.27-38,10.1-38,16.53,0,13.08,60,23.69,133.94,23.69s133.93-10.61,133.93-23.69c0-2.85-2.84-5.58-8-8.1,97.67-4.07,169.38-17.52,169.38-33.49,0-11.59-37.76-21.85-95.8-28.17,21.3-10.51,36.8-23.41,44.27-37.68C648.93,556.11,709,534.23,709,507.8c0-5.54-2.65-10.88-7.55-15.9C717.77,486.44,727.64,479.3,727.64,471.48ZM336,285.07c.59-.47,1.16-.95,1.72-1.43q2.43.66,4.91,1.3l-3,.74ZM239,596c1.87,1,3.8,1.92,5.77,2.86-3,.37-6,.75-8.83,1.14C237.05,598.65,238.08,597.32,239,596Z"/><path class="cls-3" d="M337.69,259.42c-.56.48-1.13,1-1.72,1.43l3.61.62c1-.26,2-.5,3-.75C341,260.3,339.31,259.86,337.69,259.42Z"/><path class="cls-3" d="M239,571.73c-.95,1.37-2,2.7-3.06,4,2.87-.39,5.82-.77,8.83-1.14C242.83,573.66,240.9,572.71,239,571.73Z"/><path class="cls-3" d="M727.64,447.26c0-16.32-43-29.7-97.56-31,15.86-11.52,25.17-25.52,25.17-40.63,0-16-10.39-30.71-27.92-42.57,17.41-10.38,27.92-23.82,27.92-38.5,0-18.29-16.3-34.65-41.93-45.57,26.25-11.21,41.93-25.37,41.93-40.77,0-36.34-87.29-65.8-195-65.8h3.1c62,0,112.22-12,112.22-26.85S525.37,88.76,463.39,88.76h-.51c0-32-80.57-57.9-180-57.9S103,56.78,103,88.76c0,12.56,12.43,24.18,33.53,33.67C116.05,127.64,103,135.62,103,144.57c0,15,36.61,27.23,83.09,28.34a1,1,0,0,0,0,.1l-4.52,0C87.89,173,12,200.8,12,235.11c0,24.77,39.6,46.16,96.87,56.13C105,295.49,103,300,103,304.6c0,27.33,71.08,49.48,158.76,49.48,6.85,0,13.61-.13,20.23-.4.76.69,1.54,1.36,2.34,2-17.31-1.06-35.64-1.63-54.63-1.63-105.39,0-190.82,17.44-190.82,39,0,13.9,35.7,26.11,89.4,33a15.3,15.3,0,0,0-1.89,3.77c-31.07,8.38-50.28,19.95-50.28,32.72,0,13.92,22.83,26.4,59,34.9C115.69,507.63,103,525,103,544.65c0,27.26,24.45,50,57.06,55.56a5.71,5.71,0,0,0-.17,1.29c0,9.85,27.27,18.74,71.07,25.07-23.5,4.26-38,10.09-38,16.52,0,13.08,60,23.69,133.94,23.69s133.93-10.61,133.93-23.69c0-2.84-2.84-5.57-8-8.1,97.67-4.06,169.38-17.51,169.38-33.49,0-11.59-37.76-21.85-95.8-28.16,21.3-10.52,36.8-23.41,44.27-37.69C648.93,531.9,709,510,709,483.58c0-5.54-2.65-10.88-7.55-15.89C717.77,462.23,727.64,455.08,727.64,447.26ZM336,260.85c.59-.47,1.16-1,1.72-1.43,1.62.44,3.26.88,4.91,1.3-1,.25-2,.49-3,.75ZM239,571.73c1.87,1,3.8,1.93,5.77,2.86-3,.37-6,.75-8.83,1.14C237.05,574.43,238.08,573.1,239,571.73Z"/><path d="M347,238.37c-.56.48-1.13.95-1.72,1.43l3.6.61,3-.74C350.25,239.24,348.62,238.81,347,238.37Z"/><path d="M248.34,550.68c-1,1.37-2,2.7-3.07,4,2.88-.4,5.83-.78,8.83-1.14C252.14,552.6,250.21,551.65,248.34,550.68Z"/><path d="M737,426.2c0-16.32-43-29.7-97.56-31,15.86-11.51,25.16-25.52,25.16-40.63,0-16-10.38-30.7-27.91-42.57,17.41-10.37,27.91-23.81,27.91-38.5,0-18.29-16.29-34.65-41.92-45.56,26.25-11.21,41.92-25.38,41.92-40.77,0-36.35-87.28-65.81-194.95-65.81h3.1c62,0,112.22-12,112.22-26.84S534.68,67.71,472.7,67.71h-.51c0-32-80.57-57.91-180-57.91s-180,25.93-180,57.91c0,12.55,12.43,24.18,33.53,33.66-20.45,5.21-33.53,13.19-33.53,22.14,0,15,36.61,27.23,83.08,28.34a.54.54,0,0,1,.05.11c-1.5,0-3,0-4.53,0-93.67,0-169.61,27.81-169.61,62.11,0,24.78,39.6,46.16,96.87,56.13-3.81,4.25-5.86,8.73-5.86,13.36C112.27,310.87,183.35,333,271,333c6.85,0,13.61-.14,20.23-.4.76.68,1.54,1.35,2.34,2C276.29,333.6,258,333,239,333c-105.39,0-190.82,17.44-190.82,39,0,13.91,35.7,26.11,89.4,33a15.59,15.59,0,0,0-1.9,3.78c-31.06,8.38-50.27,19.94-50.27,32.71,0,13.92,22.83,26.41,59,34.9-19.35,10.21-32.08,27.55-32.08,47.22,0,27.27,24.45,50,57.06,55.57a5.57,5.57,0,0,0-.18,1.29c0,9.85,27.28,18.74,71.08,25.06-23.5,4.27-38,10.1-38,16.52,0,13.09,60,23.69,133.93,23.69S470.12,635.12,470.12,622c0-2.84-2.84-5.57-8-8.1,97.67-4.06,169.38-17.51,169.38-33.48,0-11.59-37.77-21.86-95.8-28.17,21.3-10.52,36.8-23.41,44.26-37.68,78.32-3.76,138.41-25.64,138.41-52.07,0-5.54-2.64-10.88-7.54-15.9C727.08,441.17,737,434,737,426.2ZM345.28,239.8c.59-.48,1.16-1,1.72-1.43,1.62.44,3.25.87,4.91,1.3l-3,.74ZM248.34,550.68c1.87,1,3.8,1.92,5.76,2.86-3,.36-5.95.74-8.83,1.14C246.36,553.38,247.39,552.05,248.34,550.68Z"/></g></svg>