<svg xmlns="http://www.w3.org/2000/svg" width="421.73" height="467.78" viewBox="0 0 421.73 467.78"><defs><style>.cls-1{fill:#d1d1d1;}.cls-2{fill:#848484;}.cls-3{fill:#1c1c1c;}.cls-4{fill:#3a3a3a;}.cls-5{fill:#a0a0a0;}.cls-6{fill:#b2b2b2;}.cls-7{fill:#595959;}.cls-8{fill:none;}.cls-9{fill:#686868;}.cls-10{fill:#4f4f4f;}.cls-11{fill:#757575;}.cls-12{fill:#919191;}.cls-13{fill:#494949;}.cls-14{fill:#fff;}</style></defs><title>skorpion</title><g id="Layer_6" data-name="Layer 6"><rect class="cls-1" x="266.49" y="218.58" width="16.47" height="122.27" transform="translate(616.19 472.36) rotate(163.91)"/><rect class="cls-1" x="289.4" y="333.13" width="16.47" height="79.04" transform="translate(652.51 691.28) rotate(170.53)"/><circle class="cls-1" cx="303.8" cy="423.67" r="24.18"/><path class="cls-1" d="M327.42,431.74c3.66,7.83,10.39,9.8,8,15.86-2.7,6.94-16.44,9.68-19.2,0-2.36-8.85-1.11-17.63-.18-22.34C317.92,420.09,323.52,424,327.42,431.74Z"/><path class="cls-1" d="M312,449.71c2.48,4.17,2.4,12.4-4.72,17.59-7.43,4.31-10.76-5.49-8.7-14.2,1.43-8.55,1.88-17,5.31-17.3C307.43,435.82,309.89,444.82,312,449.71Z"/><path class="cls-1" d="M292.76,443.14c-1,9.31-10.77,21.58-15.78,17.05-4.49-4.21,1.9-14,4.67-24.08,2.77-10.86,6.34-15.24,9.28-10.37C293.29,430.84,294.09,434.67,292.76,443.14Z"/><path class="cls-1" d="M277.77,431.9c6.78-6.76,6.47-10.06,6-12.52-.88-2.72-6-4.75-10.45.11-3.45,5-11.2,11.83-14.29,15.49C256.32,439.28,270.62,438.71,277.77,431.9Z"/><rect class="cls-2" x="174.9" y="239.44" width="16.47" height="122.27" transform="matrix(0.91, 0.42, -0.42, 0.91, 141.69, -48.95)"/><rect class="cls-2" x="173.34" y="336.56" width="16.47" height="79.04" transform="translate(-203.3 213.98) rotate(-41.39)"/><circle class="cls-2" cx="217.25" cy="413.07" r="24.18"/><path class="cls-2" d="M210,439.12c-2.06,10.23,1.64,21.67,9.45,16.55,7.48-6.12,7.38-15.41,4.65-20.29-2.38-5.75-5-16.38-8.71-16.37C211.82,419.43,211.43,429.13,210,439.12Z"/><path class="cls-2" d="M231.46,440.16c2.3,8.35,14.58,5.77,17.1-.69,2.29-5.7-3.22-7.65-6.31-14.34-3.33-6.69-8.33-9.83-10.13-4.94C231.17,424.68,229.54,432.53,231.46,440.16Z"/><path class="cls-2" d="M238.73,420.43c11.58,1.65,22-5.5,17.74-8.32-3.73-2.7-8.8-7.64-14.21-11.45-6.41-3.39-10.41-.4-10.84,4.83C230.48,410.31,227.67,418.28,238.73,420.43Z"/><path class="cls-2" d="M239.66,398.44c-8.39,5.92-22.12,5.33-18.28,1.11,4-3.7,10.74-10.14,14.43-14.14,4.71-3.86,9.83-1.39,10.61,1.2C247,388.93,247.5,392.44,239.66,398.44Z"/><rect x="256.15" y="196.87" width="87.91" height="15.46" transform="translate(95.51 504.71) rotate(-90)"/><rect x="219.93" y="160.64" width="87.91" height="13.52"/><path d="M324.66,265.94H294.77a7.3,7.3,0,0,1-7-9.24l4.17-15.23a7.3,7.3,0,0,1,10.77-4.35l25.71,15.22A7.31,7.31,0,0,1,324.66,265.94Z"/><rect class="cls-3" x="278.37" y="223.92" width="87.91" height="15.46" transform="translate(90.68 553.97) rotate(-90)"/><rect class="cls-3" x="242.15" y="187.69" width="87.91" height="13.52"/><path class="cls-3" d="M346.88,293H317a7.31,7.31,0,0,1-7.05-9.24l4.17-15.23a7.32,7.32,0,0,1,10.78-4.36l25.71,15.23A7.31,7.31,0,0,1,346.88,293Z"/><rect class="cls-4" x="287.07" y="259.66" width="87.91" height="15.46" transform="translate(63.63 598.41) rotate(-90)"/><rect class="cls-4" x="250.84" y="223.43" width="87.91" height="13.52"/><path class="cls-4" d="M355.57,328.73H325.69a7.3,7.3,0,0,1-7.05-9.24l4.17-15.23a7.3,7.3,0,0,1,10.77-4.35l25.72,15.22A7.31,7.31,0,0,1,355.57,328.73Z"/><path class="cls-5" d="M223.48,30.05a3.39,3.39,0,0,0,.19-5.87L188.54,2.47V2.32l-.14.07-.34-.21,0,.4L151.42,21.65a3.38,3.38,0,0,0-.24,5.86l35.4,22.33v-.15Z"/><polygon class="cls-6" points="164.27 104.39 180.79 60.19 180.94 60.16 180.85 60.04 180.99 59.66 180.59 59.73 151.07 22.91 133.95 67.48 134.1 67.45 164.27 104.39"/><polygon class="cls-2" points="205.24 68.16 224.47 24.46 252.53 63.09 205.24 68.16"/><polygon class="cls-2" points="205.36 68.1 233.77 106.47 252.6 62.6 205.36 68.1"/><rect x="115.77" y="196.87" width="87.91" height="15.46" transform="translate(-44.87 364.32) rotate(-90)"/><rect x="152" y="160.64" width="87.91" height="13.52" transform="translate(391.9 334.81) rotate(-180)"/><path d="M135.17,265.94h29.89a7.31,7.31,0,0,0,7.05-9.24l-4.17-15.23a7.31,7.31,0,0,0-10.77-4.35l-25.72,15.22A7.31,7.31,0,0,0,135.17,265.94Z"/><rect class="cls-3" x="93.55" y="223.92" width="87.91" height="15.46" transform="translate(-94.14 369.15) rotate(-90)"/><rect class="cls-3" x="129.78" y="187.69" width="87.91" height="13.52" transform="translate(347.47 388.91) rotate(-180)"/><path class="cls-3" d="M113,293h29.89a7.31,7.31,0,0,0,7-9.24l-4.17-15.23A7.31,7.31,0,0,0,135,264.16l-25.72,15.23A7.31,7.31,0,0,0,113,293Z"/><rect class="cls-4" x="84.86" y="259.66" width="87.91" height="15.46" transform="translate(-138.57 396.2) rotate(-90)"/><rect class="cls-4" x="121.09" y="223.43" width="87.91" height="13.52" transform="translate(330.08 460.39) rotate(-180)"/><path class="cls-4" d="M104.26,328.73h29.89a7.31,7.31,0,0,0,7-9.24L137,304.26a7.3,7.3,0,0,0-10.77-4.35l-25.71,15.22A7.31,7.31,0,0,0,104.26,328.73Z"/><path class="cls-4" d="M223.29,343.41l-44.06-97.5a7.34,7.34,0,0,1,6.69-10.36H274a7.34,7.34,0,0,1,6.69,10.36l-44.06,97.5A7.35,7.35,0,0,1,223.29,343.41Z"/><rect class="cls-4" x="179.69" y="164.72" width="101.62" height="80.06"/><path class="cls-4" d="M239.94,85.8l40,74.4A10.73,10.73,0,0,1,270.53,176H190.46A10.72,10.72,0,0,1,181,160.2l40-74.4A10.72,10.72,0,0,1,239.94,85.8Z"/><path class="cls-7" d="M224.74,381l-49.3-82.07a9.63,9.63,0,0,1,8.09-14.58l95.72-1.65A9.62,9.62,0,0,1,287.83,297L241.4,380.67A9.62,9.62,0,0,1,224.74,381Z"/><ellipse class="cls-3" cx="232" cy="203.49" rx="35.26" ry="54.19"/><path class="cls-8" d="M232,219.36,221.87,255a23.65,23.65,0,0,0,20.18,0Z"/><path class="cls-8" d="M227.39,203.23l-.45.46.29-1-.29-1,.45.47,1.7-6L204,170.27a74.49,74.49,0,0,0-7.21,32.83c0,12.61,2.81,24.21,7.51,33.42l25.21-25.92Z"/><path class="cls-8" d="M241.83,151.06a23.64,23.64,0,0,0-20.19.23l10.06,35.57Z"/><path class="cls-8" d="M236.4,203.47l.06-.06,0,.14,0,.14-.06-.06-1.7,6,25.43,26.14a74.62,74.62,0,0,0,7.13-32.67c0-12.53-2.77-24.06-7.42-33.24l-25.52,26.25Z"/><polygon class="cls-8" points="227.94 202.67 232.56 207.42 236.33 203.55 231.7 198.8 227.94 202.67"/><polygon class="cls-9" points="227.39 203.23 229.47 210.6 232.56 207.42 227.94 202.67 227.39 203.23"/><path class="cls-10" d="M232,219.36,242.05,255c7.29-3.33,13.6-10.17,18.08-19.27L234.7,209.63Z"/><polygon class="cls-9" points="226.94 201.65 227.23 202.67 227.39 202.11 226.94 201.65"/><polygon class="cls-9" points="236.46 203.41 236.4 203.47 236.42 203.55 236.46 203.41"/><path class="cls-6" d="M234.7,209.63l1.7-6-.07-.08-3.77,3.87-3.09,3.18-25.21,25.92c4.44,8.68,10.56,15.23,17.61,18.48L232,219.36Z"/><polygon class="cls-9" points="236.42 203.55 236.4 203.47 234.32 196.11 231.7 198.8 236.33 203.55 236.4 203.63 236.46 203.69 236.42 203.55"/><path class="cls-11" d="M231.7,186.86l-10.06-35.57c-7.12,3.36-13.27,10.09-17.68,19l25.13,25.84Z"/><path class="cls-12" d="M229.09,196.11l-1.7,6-.16.56-.29,1,.45-.46.55-.56,3.76-3.87,2.62-2.69,25.52-26.25c-4.5-8.9-10.78-15.58-18-18.8l-10.13,35.8Z"/><ellipse class="cls-13" cx="232" cy="202.32" rx="19.39" ry="29.8"/><circle class="cls-14" cx="217.02" cy="223.79" r="4.41"/><circle class="cls-1" cx="176.46" cy="130.7" r="33.81"/><polygon class="cls-1" points="210.27 194.29 179.11 132.17 210.27 124.8 210.27 194.29"/></g></svg>
