<svg xmlns="http://www.w3.org/2000/svg" width="421.73" height="467.78" viewBox="0 0 421.73 467.78"><defs><style>.cls-1{fill:#5b5b5b;}.cls-2{fill:#9a9b9a;}.cls-3{fill:#fcfcfc;}.cls-4{fill:#282828;}.cls-5{fill:none;}.cls-6{fill:#fff;}</style></defs><title>slange</title><g id="Layer_5" data-name="Layer 5"><ellipse class="cls-1" cx="250.13" cy="61.08" rx="7.91" ry="12.52" transform="translate(187.83 310.9) rotate(-89.72)"/><ellipse class="cls-2" cx="250.14" cy="58.32" rx="3.68" ry="8.84" transform="translate(190.59 308.18) rotate(-89.72)"/><ellipse class="cls-1" cx="131.71" cy="190.26" rx="7.91" ry="12.52" transform="translate(-2.56 1.8) rotate(-0.77)"/><ellipse class="cls-2" cx="128.96" cy="190.3" rx="3.68" ry="8.84" transform="translate(-2.56 1.76) rotate(-0.77)"/><circle class="cls-3" cx="39.25" cy="62.06" r="2.69"/><rect x="230.22" y="316.31" width="54.66" height="101.02" transform="translate(117.42 -58.92) rotate(16.85)"/><polygon points="394.27 361.87 326.46 403.17 314.88 361.87 394.27 361.87"/><rect x="220.64" y="60.45" width="47.37" height="156.1"/><rect x="137.75" y="170.25" width="130.26" height="46.29"/><rect x="132.37" y="170.25" width="55.98" height="173.32"/><rect x="147.44" y="60.45" width="120.57" height="40.91"/><polygon points="309.56 289.75 132.37 289.75 132.37 343.57 292.38 343.57 309.56 289.75"/><rect x="302.46" y="361.87" width="34.45" height="71.05"/><polygon points="220.35 394.17 208.25 434 337.99 434 337.99 394.17 220.35 394.17"/><rect x="69.93" y="43.22" width="85.05" height="72.13"/><polygon points="230.56 79.35 154.99 115.28 155.12 43.16 230.56 79.35"/><path d="M21.19,83.91,65.63,114.1A6.19,6.19,0,0,0,75.3,109l-.11-60.54a6.19,6.19,0,0,0-9.68-5.1L21.17,73.68A6.19,6.19,0,0,0,21.19,83.91Z"/><rect class="cls-4" x="170.05" y="60.45" width="97.96" height="21.53"/><rect class="cls-4" x="56.48" y="246.15" width="173.32" height="21.53" transform="translate(400.05 113.78) rotate(90)"/><rect class="cls-4" x="287.39" y="376.94" width="51.67" height="21.53" transform="translate(700.94 74.48) rotate(90)"/><polygon class="cls-4" points="309.07 289.75 188.35 289.75 188.35 311.28 303.12 311.28 309.07 289.75"/><polygon class="cls-5" points="315.42 383.42 321.37 403.17 357.59 382.65 315.42 383.42"/><polygon class="cls-5" points="308.92 361.87 309 362.15 324.21 361.87 308.92 361.87"/><polygon class="cls-4" points="394.27 361.87 324.21 361.87 309 362.15 315.42 383.42 357.59 382.65 394.27 361.87"/><polygon class="cls-4" points="277.61 393.09 272.9 413.55 318.61 413.55 318.61 393.09 277.61 393.09"/><rect class="cls-4" x="64.55" y="42.15" width="95.81" height="49.52" rx="6.63"/><path class="cls-4" d="M64,42.61,19.8,75.69a3.44,3.44,0,0,0,1.42,6.13l49.35,9.37a3.43,3.43,0,0,0,4.06-3l4.23-43.46a2.32,2.32,0,0,0-2.31-2.54H65.34A2.32,2.32,0,0,0,64,42.61Z"/><polygon class="cls-4" points="196.82 65.07 156.98 90.67 154.73 43.37 196.82 65.07"/><rect class="cls-4" x="129.14" y="78.75" width="27.99" height="10.77"/><ellipse class="cls-1" cx="132.09" cy="229.46" rx="11.56" ry="18.3"/><ellipse class="cls-2" cx="128.06" cy="229.46" rx="5.38" ry="12.92"/><circle class="cls-6" cx="132.37" cy="225.16" r="4.31"/><ellipse class="cls-1" cx="214.98" cy="60.45" rx="11.56" ry="18.3" transform="translate(153.48 275.13) rotate(-89.72)"/><ellipse class="cls-2" cx="215" cy="56.42" rx="5.38" ry="12.92" transform="translate(157.52 271.14) rotate(-89.72)"/><circle class="cls-6" cx="208.8" cy="58.29" r="4.31"/><circle class="cls-6" cx="135.6" cy="229.46" r="2.15"/><circle class="cls-6" cx="213.11" cy="62.6" r="2.15"/><ellipse class="cls-1" cx="278.49" cy="289.75" rx="11.56" ry="18.3" transform="translate(-12.61 566.82) rotate(-89.72)"/><ellipse class="cls-2" cx="278.51" cy="285.72" rx="5.38" ry="12.92" transform="translate(-8.57 562.83) rotate(-89.72)"/><circle class="cls-6" cx="269.09" cy="287.59" r="4.31"/><circle class="cls-6" cx="273.39" cy="291.9" r="2.15"/><ellipse class="cls-1" cx="143.55" cy="307.6" rx="7.91" ry="12.52" transform="translate(-4.14 1.97) rotate(-0.77)"/><ellipse class="cls-2" cx="140.8" cy="307.64" rx="3.68" ry="8.84" transform="translate(-4.14 1.93) rotate(-0.77)"/><circle class="cls-6" cx="143.37" cy="301.83" r="2.39"/><circle class="cls-6" cx="145.17" cy="303.62" r="1.2"/></g></svg>
