<svg xmlns="http://www.w3.org/2000/svg" width="370" height="370" viewBox="0 0 370 370"><defs><style>.cls-1{fill:#333;}.cls-2{fill:#f9eb70;}.cls-3{fill:#079b11;}.cls-4{fill:#e5d400;}.cls-5{fill:#e2870e;}.cls-6{fill:#eda65a;}.cls-7{fill:#6596b7;}.cls-8{fill:#ea3303;}.cls-9{fill:#2f71a8;}.cls-10{fill:#886daa;}.cls-11{fill:#6933a3;}.cls-12{fill:none;}.cls-13{fill:#fff;}</style></defs><title>spids krystal</title><g id="Layer_9" data-name="Layer 9"><polygon class="cls-1" points="232.32 63.83 232.19 63.6 232.19 60.85 230.53 60.85 195.28 2.34 162.94 60.85 133.71 60.85 133.71 183.16 232.19 183.16 232.19 63.83 232.32 63.83"/><polygon class="cls-2" points="317.17 317.21 317.17 71.97 252.04 71.97 252.04 354.81 317.17 317.21"/><polygon class="cls-3" points="252.91 60.85 223.7 60.95 183.27 297.11 183.37 316.55 254.43 355.46 252.91 60.85"/><polygon class="cls-4" points="298.11 71.97 254.43 71.97 254.43 354.81 298.11 329.59 298.11 71.97"/><rect class="cls-5" x="232.52" y="38.22" width="74.38" height="61.36" transform="translate(1.68 144.08) rotate(-30)"/><polygon class="cls-6" points="252.84 113.27 317.25 76.08 287.2 24.04 252.2 112.16 252.84 113.27"/><polygon class="cls-7" points="96.14 264.28 52.75 63.03 106.19 51.51 156.23 283.61 96.14 264.28"/><polygon class="cls-8" points="103.51 42.54 127.5 37.46 202.46 224.09 205.82 240.06 154.4 284.57 103.51 42.54"/><polygon class="cls-9" points="68.39 59.66 104.23 51.93 154.28 284.03 113.97 271.06 68.39 59.66"/><rect class="cls-10" x="59.94" y="26.36" width="62.44" height="51.5" transform="translate(161.97 129.64) rotate(-162.17)"/><polygon class="cls-11" points="112.84 85.54 53.41 66.42 68.86 18.4 113.17 84.52 112.84 85.54"/><rect class="cls-4" x="107.5" y="154.56" width="57.18" height="206.49" transform="translate(55.85 -22.45) rotate(11.85)"/><polygon class="cls-11" points="217.74 322.69 239.99 182.23 172.5 161.64 139.85 367.66 217.74 322.69"/><polygon class="cls-9" points="242.06 188.34 128.77 152.84 216.15 72.48 242.06 188.34"/><polygon class="cls-12" points="219.41 87.06 242.06 188.34 172.46 166.53 149.35 215.44 256.48 225.05 219.41 87.06"/><polygon class="cls-7" points="219.41 87.06 216 74.37 172.46 166.53 242.06 188.34 219.41 87.06"/><circle class="cls-13" cx="168.26" cy="163.7" r="7.54"/><rect class="cls-13" x="167.07" y="140.27" width="2.38" height="49.24"/><rect class="cls-13" x="166.84" y="142.76" width="2.42" height="42.46" transform="translate(0.04 328.04) rotate(-88.62)"/></g></svg>