<svg xmlns="http://www.w3.org/2000/svg" width="140" height="140" viewBox="0 0 140 140"><defs><style>.cls-1{fill:#fff;}</style></defs><title>tandhjul</title><g id="Layer_11" data-name="Layer 11"><path class="cls-1" d="M112.84,72l16.47,5.56a60.85,60.85,0,0,0,.41-7.06,59.75,59.75,0,0,0-1.17-11.82L114,65.14,107,49.3l15.64-7A59.47,59.47,0,0,0,113,29.19l-8.73,13L89.92,32.54l9.33-13.9a58.46,58.46,0,0,0-21.38-7v17.6H60.59V12.09A58.55,58.55,0,0,0,36.22,22.32l9.9,9.93L33.9,44.51,23.79,34.37a59,59,0,0,0-8.51,15.35l15.58,2.82L27.78,69.6,11.66,66.68q-.12,1.89-.12,3.81a59.81,59.81,0,0,0,1.69,14.13l10.88-8.18L34.48,90.31,20.05,101.16a59.64,59.64,0,0,0,10,12.41l8.35-12.46,14.34,9.68-8.53,12.72A58.63,58.63,0,0,0,66,129.58L64.9,112.79l17.24-1.14,1.11,16.75a58.78,58.78,0,0,0,20-8.52l-9.92-13.27,13.83-10.4,9,12a59.69,59.69,0,0,0,8.56-13.92l-17.44-5.9ZM70.63,104.22a33.73,33.73,0,1,1,33.64-33.73A33.68,33.68,0,0,1,70.63,104.22Z"/><ellipse cx="70.63" cy="70.49" rx="33.63" ry="33.73"/><polygon class="cls-1" points="38.4 101.11 30.05 113.56 24.06 122.49 38.4 132.17 44.21 123.51 52.74 110.79 38.4 101.11"/><polygon class="cls-1" points="30.86 52.54 15.28 49.72 5.57 47.96 2.5 65.02 11.66 66.68 27.78 69.6 30.86 52.54"/><polygon class="cls-1" points="77.87 29.27 77.87 11.67 77.87 3.5 60.59 3.5 60.59 12.09 60.59 29.27 77.87 29.27"/><polygon class="cls-1" points="64.9 112.79 66 129.58 66.59 138.5 83.84 137.36 83.25 128.4 82.14 111.64 64.9 112.79"/><polygon class="cls-1" points="104.27 42.22 113 29.19 118.61 20.84 104.27 11.16 99.25 18.64 89.92 32.54 104.27 42.22"/><polygon class="cls-1" points="114.02 65.14 128.55 58.67 137.5 54.67 130.48 38.83 122.64 42.33 107 49.3 114.02 65.14"/><polygon class="cls-1" points="46.12 32.25 36.22 22.32 27.95 14.03 15.73 26.29 23.79 34.37 33.9 44.51 46.12 32.25"/><polygon class="cls-1" points="24.11 76.44 13.23 84.62 3.55 91.9 13.92 105.77 20.05 101.16 34.48 90.31 24.11 76.44"/><polygon class="cls-1" points="112.84 71.99 107.32 88.41 124.76 94.31 131.66 96.64 137.18 80.21 129.31 77.55 112.84 71.99"/><polygon class="cls-1" points="93.38 106.61 103.3 119.88 108.8 127.23 122.62 116.83 116.2 108.23 107.21 96.21 93.38 106.61"/></g></svg>
