<svg xmlns="http://www.w3.org/2000/svg" width="577.99" height="576.32" viewBox="0 0 577.99 576.32"><title>tandhjul sort</title><g id="Layer_11" data-name="Layer 11"><path d="M473,292.4l70.76,23.91a257.18,257.18,0,0,0-3.26-81.14L478.13,263,448,195l67.18-30a255.28,255.28,0,0,0-41.39-56.45l-37.54,56L374.6,122.93l40.07-59.74a251.63,251.63,0,0,0-91.85-29.91v75.58H248.56V35.05A252.24,252.24,0,0,0,143.85,79l42.55,42.67-52.51,52.66L90.46,130.78a254.27,254.27,0,0,0-36.58,66l66.94,12.12-13.2,73.29L38.37,269.6C38,275,37.83,280.48,37.83,286a255.51,255.51,0,0,0,7.28,60.69l46.71-35.13,44.55,59.58-61.95,46.6A255.53,255.53,0,0,0,117.34,471l35.89-53.5,61.61,41.57-36.66,54.66a251.67,251.67,0,0,0,93.65,26.07l-4.76-72.13,74.1-4.92,4.75,72a251.84,251.84,0,0,0,86.15-36.6l-42.62-57,59.41-44.68,38.61,51.63a254.58,254.58,0,0,0,36.77-59.83L449.32,363ZM291.71,430.91c-79.81,0-144.5-64.89-144.5-144.92s64.69-144.92,144.5-144.92S436.21,206,436.21,286,371.52,430.91,291.71,430.91Z"/><polygon points="153.23 417.53 117.34 471.03 91.62 509.38 153.23 550.95 178.18 513.76 214.84 459.1 153.23 417.53"/><polygon points="120.82 208.86 53.88 196.74 12.19 189.19 -1 262.47 38.37 269.6 107.62 282.15 120.82 208.86"/><polygon points="322.82 108.86 322.82 33.28 322.82 -1.84 248.56 -1.84 248.56 35.05 248.56 108.86 322.82 108.86"/><polygon points="267.07 467.7 271.83 539.83 274.36 578.16 348.46 573.25 345.92 534.76 341.17 462.78 267.07 467.7"/><polygon points="436.21 164.5 473.75 108.54 497.82 72.65 436.21 31.08 414.67 63.19 374.6 122.94 436.21 164.5"/><polygon points="478.13 263 540.53 235.17 579 218.02 548.82 149.97 515.14 164.99 447.96 194.95 478.13 263"/><polygon points="186.4 121.67 143.85 79 108.35 43.39 55.84 96.05 90.46 130.78 133.89 174.33 186.4 121.67"/><polygon points="91.82 311.55 45.11 346.68 3.51 377.96 48.06 437.55 74.42 417.73 136.37 371.13 91.82 311.55"/><polygon points="473.03 292.4 449.32 362.98 524.24 388.29 553.93 398.32 577.64 327.75 543.79 316.31 473.03 292.4"/><polygon points="389.45 441.17 432.07 498.16 455.67 529.73 515.08 485.05 487.47 448.12 448.86 396.49 389.45 441.17"/></g></svg>