<svg xmlns="http://www.w3.org/2000/svg" width="210" height="360" viewBox="0 0 210 360"><defs><style>.cls-1{fill:#262626;}.cls-2{fill:#fff;}.cls-3{fill:#b2b2b2;}.cls-4{fill:#4c4b4c;}.cls-5{fill:#686868;}.cls-6{fill:#e5e5e5;}.cls-7{fill:#172827;}.cls-8{fill:#4c4c4c;}.cls-9{fill:#7c7c7c;}.cls-10{fill:#e5d400;}.cls-11{fill:#ea3303;}.cls-12{fill:#2f71a8;}.cls-13{fill:#079b11;}.cls-14{fill:#6933a3;}.cls-15{fill:#e2870e;}</style></defs><title>to stjerner</title><g id="Layer_13" data-name="Layer 13"><ellipse class="cls-1" cx="14.1" cy="107.91" rx="8.1" ry="9.07"/><polygon class="cls-1" points="20.06 98.36 13.77 41.65 13.77 5.56 39.04 5.56 39.04 65.34 23.74 116.98 13.77 116.98 13.77 99.06 20.06 98.36"/><path class="cls-1" d="M67.74,70.34c-5.72-1.25-10-5.5-10.22-10.72C57.25,53.18,63.26,47.71,71,47.39l1,23Z"/><polygon class="cls-2" points="40.79 146.54 44.75 144.76 48.46 147.02 48 142.7 51.29 139.86 47.04 138.97 45.36 134.97 43.2 138.74 38.87 139.09 41.79 142.31 40.79 146.54"/><rect class="cls-3" x="172.51" y="208.68" width="14.52" height="19.75" transform="translate(359.53 437.1) rotate(-180)"/><path class="cls-4" d="M49.1,99.06h73a52.47,52.47,0,0,1-36.5,90.19c-.94,0-1.88,0-2.82-.08l-7.33-14.49-4.55,12.46A52.47,52.47,0,0,1,49.1,99.06Z"/><path class="cls-3" d="M84.23,345.71A36.79,36.79,0,0,0,95,334.36c3.92-6.65,6.61-17.28-2.82-30.14-14-19,2.2-30.17,4.18-31.43,3.28-1.49,24.2-12.24,6.6-36.8-5.35-7.47-7-13.72-4.89-18.56,2.38-5.47,9-7.41,9-7.43l-3.46-6c-.4.11-10,2.81-13.47,10.92-2.85,6.55-1,14.52,5.6,23.69,14.83,20.7-3.38,28.35-4.16,28.66l-.28.12-.28.15c-.24.15-24.09,14.7-6,39.36,6.15,8.39,6.93,16.6,2.34,24.41a30.55,30.55,0,0,1-8.84,9.36Z"/><path class="cls-3" d="M149.62,345.92a37,37,0,0,1-10-11.89c-3.5-6.84-5.65-17.59,4-29.95,14.24-18.28-.87-30.22-2.73-31.57-3.1-1.66-22.82-13.47-4.84-37.08,5.47-7.19,7.31-13.34,5.48-18.28-2.07-5.58-8.32-7.86-8.38-7.88l3.58-5.81c.39.13,9.48,3.32,12.54,11.59,2.48,6.69.33,14.55-6.38,23.37-15.15,19.9,2.09,28.46,2.83,28.82l.27.13.25.17c.23.15,22.62,15.91,4.18,39.59-6.27,8.06-7.37,16.22-3.26,24.25a30.8,30.8,0,0,0,8.13,9.8Z"/><path class="cls-4" d="M144.56,210.21l39.14-67.92a28.84,28.84,0,0,0-25-43.23H80.44a28.83,28.83,0,0,0-25,43.23L94.6,210.21A28.83,28.83,0,0,0,144.56,210.21Z"/><circle class="cls-3" cx="119.36" cy="75.52" r="26.56"/><rect class="cls-1" x="146.57" y="54.79" width="16.84" height="15.55" transform="translate(309.99 125.13) rotate(-180)"/><rect class="cls-1" x="68.19" y="52.85" width="23.97" height="17.49" transform="translate(160.35 123.19) rotate(-180)"/><path class="cls-1" d="M161.8,70.34c7.69,0,13.92-5.08,13.92-11.34s-6.23-11.33-13.92-11.33"/><polygon class="cls-1" points="107.06 42.48 91.71 42.48 15.72 19.22 15.72 5.56 107.06 5.56 107.06 42.48"/><path class="cls-1" d="M144.88,68.49c-2.47-9-16.92-12.79-32.27-8.55-7.8,2.15-14.33,6-18.54,10.4H92.16V5.56h57V70.34h-3.95A9.84,9.84,0,0,0,144.88,68.49Z"/><ellipse class="cls-1" cx="161.02" cy="338.05" rx="30.34" ry="14.47"/><rect class="cls-1" x="130.69" y="324.14" width="38.41" height="28.39" rx="10.96" transform="translate(299.78 676.66) rotate(-180)"/><ellipse class="cls-1" cx="191.36" cy="345.33" rx="20.64" ry="7.19"/><rect class="cls-1" x="155.08" y="341.52" width="38.44" height="11.09" transform="translate(348.6 694.14) rotate(-180)"/><rect class="cls-1" x="136.6" y="308.26" width="13.31" height="20.7" transform="translate(286.51 637.22) rotate(-180)"/><ellipse class="cls-1" cx="74.48" cy="336.57" rx="30.34" ry="14.47"/><rect class="cls-1" x="66.41" y="322.66" width="38.41" height="28.39" rx="10.96"/><ellipse class="cls-1" cx="44.14" cy="343.85" rx="20.64" ry="7.19"/><rect class="cls-1" x="41.98" y="340.05" width="38.44" height="11.09"/><rect class="cls-1" x="85.59" y="306.78" width="13.31" height="20.7"/><rect x="91.51" y="127.15" width="11.83" height="237.29" rx="4.56" transform="translate(194.84 491.59) rotate(-180)"/><polygon class="cls-5" points="82.72 140.8 97.58 129.74 112.63 140.56 110.48 122.15 127.38 114.54 110.36 107.2 112.22 88.75 97.35 99.82 82.3 88.99 84.45 107.4 67.55 115.02 84.57 122.36 82.72 140.8"/><circle class="cls-6" cx="132.64" cy="77.79" r="4.86"/><circle class="cls-6" cx="109.97" cy="72.61" r="4.86"/><ellipse class="cls-7" cx="135.88" cy="78.44" rx="7.52" ry="3.01" transform="translate(16.51 180.25) rotate(-70.46)"/><ellipse class="cls-7" cx="114.51" cy="72.61" rx="7.52" ry="3.01" transform="translate(7.78 156.23) rotate(-70.46)"/><circle class="cls-2" cx="132.97" cy="78.11" r="2.59"/><circle class="cls-2" cx="110.3" cy="72.93" r="2.59"/><polygon class="cls-3" points="180.2 226.73 190.32 204.03 167.97 205.09 180.2 226.73"/><rect class="cls-4" x="161.69" y="99.06" width="31.11" height="110.14"/><polygon points="81.39 157.46 83.38 158.13 70.07 187.03 70.05 157.46 81.39 157.46"/><ellipse class="cls-3" cx="173.56" cy="231.38" rx="14.05" ry="16.26"/><ellipse class="cls-8" cx="161.36" cy="232.86" rx="6.28" ry="7.39"/><ellipse class="cls-9" cx="165.8" cy="238.4" rx="6.28" ry="8.5"/><ellipse class="cls-2" cx="171.71" cy="239.51" rx="7.02" ry="10.35" transform="translate(-86.39 97.26) rotate(-25.5)"/><ellipse class="cls-3" cx="172.08" cy="240.62" rx="6.65" ry="9.24" transform="translate(-94.41 112.19) rotate(-28.7)"/><ellipse class="cls-3" cx="179.46" cy="242.85" rx="5.47" ry="2.87" transform="translate(-119.16 198.03) rotate(-45)"/><ellipse class="cls-2" cx="186.13" cy="233.23" rx="5.91" ry="9.24" transform="translate(-50.02 50.81) rotate(-13.72)"/><ellipse class="cls-3" cx="186.87" cy="233.23" rx="5.91" ry="9.24" transform="translate(-50 50.99) rotate(-13.72)"/><rect class="cls-3" x="70.81" y="157.46" width="17" height="17" transform="translate(158.62 331.92) rotate(-180)"/><rect class="cls-3" x="72.82" y="160.14" width="29.66" height="19.87" rx="7.67" transform="translate(107.28 360.39) rotate(-158.62)"/><rect class="cls-3" x="74.84" y="152.69" width="20.88" height="19.57" rx="3.54" transform="translate(232.18 272.46) rotate(154.52)"/><ellipse class="cls-3" cx="96.68" cy="160.97" rx="11.83" ry="5.42"/><ellipse class="cls-3" cx="98.51" cy="169.36" rx="9.26" ry="5.42"/><ellipse class="cls-3" cx="98.51" cy="178.7" rx="9.26" ry="5.42"/><rect class="cls-3" x="178.53" y="220.53" width="7.63" height="10.35" transform="translate(419.82 392.43) rotate(164.01)"/><polygon class="cls-10" points="164.79 163.58 161.58 164.48 161.58 161.17 164.79 163.58"/><polygon class="cls-11" points="146.77 149.78 153.85 144.79 153.85 166.64 152.84 166.93 148.82 178.67 146.77 175.59 146.77 149.78"/><polygon class="cls-12" points="132.6 168.2 132.6 164.27 137.23 158.42 133.58 146.56 139.04 148.58 139.04 168.3 132.6 168.2"/><polygon class="cls-13" points="129.53 168.15 132.6 164.27 132.6 168.2 129.53 168.15"/><polygon class="cls-14" points="141.94 168.34 139.04 168.3 139.04 148.58 145.22 150.87 146.77 149.78 146.77 175.59 141.94 168.34"/><polygon class="cls-15" points="155.37 143.73 154.86 156.13 161.58 161.17 161.58 164.48 153.85 166.64 153.85 144.79 155.37 143.73"/><polygon class="cls-10" points="184.94 128.69 179.08 131.25 179.08 125.46 184.94 128.69"/><polygon class="cls-11" points="172.56 109.88 172.89 113.25 172.89 135.8 170.87 146.28 167.22 142.17 167.22 114.87 172.56 109.88"/><polygon class="cls-12" points="155.88 116.95 161.04 118.08 161.04 136.94 155.88 137.58 155.88 127.96 156.24 127.36 155.88 126.61 155.88 116.95"/><polygon class="cls-13" points="150.85 115.84 155.88 116.95 155.88 126.61 150.85 115.84"/><polygon class="cls-13" points="149.8 138.33 155.88 127.96 155.88 137.58 149.8 138.33"/><polygon class="cls-14" points="163.27 118.57 167.22 114.87 167.22 142.17 162.42 136.77 161.04 136.94 161.04 118.08 163.27 118.57"/><polygon class="cls-15" points="173.8 122.54 179.08 125.46 179.08 131.25 173.28 133.79 172.89 135.8 172.89 113.25 173.8 122.54"/></g></svg>