<svg xmlns="http://www.w3.org/2000/svg" width="210" height="360" viewBox="0 0 210 360"><defs><style>.cls-1{fill:#262626;}.cls-2{fill:#fff;}.cls-3{fill:#b2b2b2;}.cls-4{fill:#4c4b4c;}.cls-5{fill:#686868;}.cls-6{fill:#e5e5e5;}.cls-7{fill:#172827;}.cls-8{fill:#4c4c4c;}.cls-9{fill:#7c7c7c;}.cls-10{fill:#e5d400;}.cls-11{fill:#ea3303;}.cls-12{fill:#2f71a8;}.cls-13{fill:#079b11;}.cls-14{fill:#6933a3;}.cls-15{fill:#e2870e;}.cls-16{fill:none;}</style></defs><title>tre stjerner</title><g id="Layer_13" data-name="Layer 13"><ellipse class="cls-1" cx="10.1" cy="102.91" rx="8.1" ry="9.07"/><polygon class="cls-1" points="16.06 93.36 9.77 36.65 9.77 0.56 35.04 0.56 35.04 60.34 19.74 111.98 9.77 111.98 9.77 94.06 16.06 93.36"/><path class="cls-1" d="M63.74,65.34c-5.72-1.25-10-5.5-10.22-10.72C53.25,48.18,59.26,42.71,67,42.39l1,23Z"/><polygon class="cls-2" points="36.79 141.54 40.75 139.76 44.46 142.02 44 137.7 47.29 134.86 43.04 133.97 41.36 129.97 39.2 133.74 34.87 134.09 37.79 137.31 36.79 141.54"/><rect class="cls-3" x="168.51" y="203.68" width="14.52" height="19.75" transform="translate(351.53 427.1) rotate(-180)"/><path class="cls-4" d="M45.1,94.06h73a52.47,52.47,0,0,1-36.5,90.19c-.94,0-1.88,0-2.82-.08l-7.33-14.49-4.55,12.46A52.47,52.47,0,0,1,45.1,94.06Z"/><path class="cls-3" d="M80.23,340.71A36.79,36.79,0,0,0,91,329.36c3.92-6.65,6.61-17.28-2.82-30.14-14-19,2.2-30.17,4.18-31.43,3.28-1.49,24.2-12.24,6.6-36.8-5.35-7.47-7-13.72-4.89-18.56,2.38-5.47,9-7.41,9-7.43l-3.46-6c-.4.11-10,2.81-13.47,10.92-2.85,6.55-1,14.52,5.6,23.69,14.83,20.7-3.38,28.35-4.16,28.66l-.28.12-.28.15c-.24.15-24.09,14.7-6,39.36,6.15,8.39,6.93,16.6,2.34,24.41a30.55,30.55,0,0,1-8.84,9.36Z"/><path class="cls-3" d="M145.62,340.92a37,37,0,0,1-10-11.89c-3.5-6.84-5.65-17.59,4-29.95,14.24-18.28-.87-30.22-2.73-31.57-3.1-1.66-22.82-13.47-4.84-37.08,5.47-7.19,7.31-13.34,5.48-18.28-2.07-5.58-8.32-7.86-8.38-7.88l3.58-5.81c.39.13,9.48,3.32,12.54,11.59,2.48,6.69.33,14.55-6.38,23.37-15.15,19.9,2.09,28.46,2.83,28.82l.27.13.25.17c.23.15,22.62,15.91,4.18,39.59-6.27,8.06-7.37,16.22-3.26,24.25a30.8,30.8,0,0,0,8.13,9.8Z"/><path class="cls-4" d="M140.56,205.21l39.14-67.92a28.84,28.84,0,0,0-25-43.23H76.44a28.83,28.83,0,0,0-25,43.23L90.6,205.21A28.83,28.83,0,0,0,140.56,205.21Z"/><circle class="cls-3" cx="115.36" cy="70.52" r="26.56"/><rect class="cls-1" x="142.57" y="49.79" width="16.84" height="15.55" transform="translate(301.99 115.13) rotate(-180)"/><rect class="cls-1" x="64.19" y="47.85" width="23.97" height="17.49" transform="translate(152.35 113.19) rotate(-180)"/><path class="cls-1" d="M157.8,65.34c7.69,0,13.92-5.08,13.92-11.34s-6.23-11.33-13.92-11.33"/><polygon class="cls-1" points="103.06 37.48 87.71 37.48 11.72 14.22 11.72 0.56 103.06 0.56 103.06 37.48"/><path class="cls-1" d="M140.88,63.49c-2.47-9-16.92-12.79-32.27-8.55-7.8,2.15-14.33,6-18.54,10.4H88.16V.56h57V65.34h-3.95A9.84,9.84,0,0,0,140.88,63.49Z"/><ellipse class="cls-1" cx="157.02" cy="333.05" rx="30.34" ry="14.47"/><rect class="cls-1" x="126.69" y="319.14" width="38.41" height="28.39" rx="10.96" transform="translate(291.78 666.66) rotate(-180)"/><ellipse class="cls-1" cx="187.36" cy="340.33" rx="20.64" ry="7.19"/><rect class="cls-1" x="151.08" y="336.52" width="38.44" height="11.09" transform="translate(340.6 684.14) rotate(-180)"/><rect class="cls-1" x="132.6" y="303.26" width="13.31" height="20.7" transform="translate(278.51 627.22) rotate(-180)"/><ellipse class="cls-1" cx="70.48" cy="331.57" rx="30.34" ry="14.47"/><rect class="cls-1" x="62.41" y="317.66" width="38.41" height="28.39" rx="10.96"/><ellipse class="cls-1" cx="40.14" cy="338.85" rx="20.64" ry="7.19"/><rect class="cls-1" x="37.98" y="335.05" width="38.44" height="11.09"/><rect class="cls-1" x="81.59" y="301.78" width="13.31" height="20.7"/><rect x="87.51" y="122.15" width="11.83" height="237.29" rx="4.56" transform="translate(186.84 481.59) rotate(-180)"/><polygon class="cls-5" points="78.72 135.8 93.58 124.73 108.63 135.56 106.48 117.15 123.38 109.54 106.36 102.2 108.22 83.75 93.35 94.82 78.3 83.99 80.45 102.4 63.55 110.02 80.57 117.36 78.72 135.8"/><circle class="cls-6" cx="128.64" cy="72.79" r="4.86"/><circle class="cls-6" cx="105.97" cy="67.61" r="4.86"/><ellipse class="cls-7" cx="131.88" cy="73.44" rx="7.52" ry="3.01" transform="translate(18.56 173.16) rotate(-70.46)"/><ellipse class="cls-7" cx="110.51" cy="67.61" rx="7.52" ry="3.01" transform="translate(9.83 149.13) rotate(-70.46)"/><circle class="cls-2" cx="128.97" cy="73.11" r="2.59"/><circle class="cls-2" cx="106.3" cy="67.93" r="2.59"/><polygon class="cls-3" points="176.2 221.73 186.32 199.03 163.97 200.09 176.2 221.73"/><rect class="cls-4" x="157.69" y="94.06" width="31.11" height="110.14"/><polygon points="77.39 152.46 79.38 153.13 66.07 182.03 66.05 152.46 77.39 152.46"/><ellipse class="cls-3" cx="169.56" cy="226.38" rx="14.05" ry="16.26"/><ellipse class="cls-8" cx="157.36" cy="227.86" rx="6.28" ry="7.39"/><ellipse class="cls-9" cx="161.8" cy="233.4" rx="6.28" ry="8.5"/><ellipse class="cls-2" cx="167.71" cy="234.51" rx="7.02" ry="10.35" transform="translate(-84.62 95.05) rotate(-25.5)"/><ellipse class="cls-3" cx="168.08" cy="235.62" rx="6.65" ry="9.24" transform="translate(-92.5 109.65) rotate(-28.7)"/><ellipse class="cls-3" cx="175.46" cy="237.85" rx="5.47" ry="2.87" transform="translate(-116.79 193.73) rotate(-45)"/><ellipse class="cls-2" cx="182.13" cy="228.23" rx="5.91" ry="9.24" transform="translate(-48.94 49.72) rotate(-13.72)"/><ellipse class="cls-3" cx="182.87" cy="228.23" rx="5.91" ry="9.24" transform="translate(-48.92 49.9) rotate(-13.72)"/><rect class="cls-3" x="66.81" y="152.46" width="17" height="17" transform="translate(150.62 321.92) rotate(-180)"/><rect class="cls-3" x="68.82" y="155.14" width="29.66" height="19.87" rx="7.67" transform="translate(101.38 349.27) rotate(-158.62)"/><rect class="cls-3" x="70.84" y="147.69" width="20.88" height="19.57" rx="3.54" transform="translate(222.42 264.67) rotate(154.52)"/><ellipse class="cls-3" cx="92.68" cy="155.97" rx="11.83" ry="5.42"/><ellipse class="cls-3" cx="94.51" cy="164.36" rx="9.26" ry="5.42"/><ellipse class="cls-3" cx="94.51" cy="173.7" rx="9.26" ry="5.42"/><rect class="cls-3" x="174.53" y="215.53" width="7.63" height="10.35" transform="translate(410.6 383.72) rotate(164.01)"/><polygon class="cls-10" points="160.79 158.58 157.58 159.48 157.58 156.17 160.79 158.58"/><polygon class="cls-11" points="142.77 144.78 149.85 139.79 149.85 161.64 148.84 161.93 144.82 173.67 142.77 170.59 142.77 144.78"/><polygon class="cls-12" points="128.6 163.2 128.6 159.27 133.23 153.42 129.58 141.56 135.04 143.58 135.04 163.3 128.6 163.2"/><polygon class="cls-13" points="125.53 163.15 128.6 159.27 128.6 163.2 125.53 163.15"/><polygon class="cls-14" points="137.94 163.34 135.04 163.3 135.04 143.58 141.22 145.87 142.77 144.78 142.77 170.59 137.94 163.34"/><polygon class="cls-15" points="151.37 138.73 150.86 151.13 157.58 156.17 157.58 159.48 149.85 161.64 149.85 139.79 151.37 138.73"/><polygon class="cls-16" points="104.74 182.66 105.28 182.59 105.28 183.21 104.74 182.66"/><polygon class="cls-10" points="139.05 183.54 134.2 188.03 134.2 182.71 139.05 183.54"/><polygon class="cls-11" points="127.24 181.51 128.11 181.66 128.11 201.38 122.53 198.26 122.53 171.31 127.24 181.51"/><polygon class="cls-12" points="111.37 181.87 116.44 181.26 116.44 200.2 111.37 202.7 111.37 200 113.1 191.24 111.37 189.46 111.37 181.87"/><polygon class="cls-13" points="110.77 202.99 111.37 200 111.37 202.7 110.77 202.99"/><polygon class="cls-13" points="105.28 183.21 105.28 182.59 111.37 181.87 111.37 189.46 105.28 183.21"/><polygon class="cls-14" points="116.64 181.24 122.22 170.64 122.53 171.31 122.53 198.26 121.52 197.69 116.44 200.2 116.44 181.26 116.64 181.24"/><polygon class="cls-15" points="134.2 182.71 134.2 188.03 130.26 191.68 131.98 203.54 128.11 201.38 128.11 181.66 134.2 182.71"/><polygon class="cls-10" points="180.94 123.69 175.08 126.25 175.08 120.46 180.94 123.69"/><polygon class="cls-11" points="168.56 104.88 168.89 108.25 168.89 130.8 166.87 141.28 163.22 137.17 163.22 109.87 168.56 104.88"/><polygon class="cls-12" points="151.88 111.95 157.04 113.08 157.04 131.94 151.88 132.58 151.88 122.96 152.24 122.36 151.88 121.61 151.88 111.95"/><polygon class="cls-13" points="146.85 110.84 151.88 111.95 151.88 121.61 146.85 110.84"/><polygon class="cls-13" points="145.8 133.33 151.88 122.96 151.88 132.58 145.8 133.33"/><polygon class="cls-14" points="159.27 113.57 163.22 109.87 163.22 137.17 158.42 131.77 157.04 131.94 157.04 113.08 159.27 113.57"/><polygon class="cls-15" points="169.8 117.54 175.08 120.46 175.08 126.25 169.28 128.79 168.89 130.8 168.89 108.25 169.8 117.54"/></g></svg>