<svg xmlns="http://www.w3.org/2000/svg" width="285" height="495" viewBox="0 0 285 495"><defs><style>.cls-1{fill:#262626;}.cls-2{fill:#fff;}.cls-3{fill:#b2b2b2;}.cls-4{fill:#4c4b4c;}.cls-5{fill:#e5d400;}.cls-6{fill:#e2870e;}.cls-7{fill:#ea3303;}.cls-8{fill:#6933a3;}.cls-9{fill:#2f71a8;}.cls-10{fill:#079b11;}.cls-11{fill:#686868;}.cls-12{fill:#4c4c4c;}.cls-13{fill:#7c7c7c;}.cls-14{fill:none;}</style></defs><title>vundet</title><g id="Layer_15" data-name="Layer 15"><ellipse class="cls-1" cx="273.94" cy="142.13" rx="11.2" ry="12.34"/><polygon class="cls-1" points="265.69 129.13 274.38 51.97 274.38 2.88 239.43 2.88 239.43 84.21 260.59 154.46 274.38 154.46 274.38 130.08 265.69 129.13"/><path class="cls-1" d="M199.72,91c7.91-1.69,13.84-7.47,14.14-14.58.37-8.76-8-16.21-18.58-16.65L194,91Z"/><polygon class="cls-2" points="237.01 194.68 231.53 192.26 226.39 195.32 227.04 189.45 222.48 185.59 228.37 184.38 230.69 178.93 233.68 184.06 239.66 184.54 235.63 188.92 237.01 194.68"/><rect class="cls-3" x="34.69" y="279.21" width="20.09" height="26.86"/><path class="cls-4" d="M225.51,130.08h-101a70.63,70.63,0,0,0-22.12,51.29c0,39.44,32.51,71.41,72.61,71.41,1.31,0,2.61,0,3.9-.11L189.07,233l6.29,17c30.2-8.66,52.27-36.06,52.27-68.55A70.59,70.59,0,0,0,225.51,130.08Z"/><path class="cls-3" d="M176.91,465.64a50.58,50.58,0,0,1-15-15.44c-5.42-9.05-9.14-23.52,3.9-41,19.3-25.9-3-41-5.78-42.75-4.54-2-33.47-16.65-9.13-50.07,7.41-10.17,9.68-18.67,6.77-25.26-3.29-7.44-12.38-10.08-12.47-10.1l4.78-8.16c.56.15,13.77,3.83,18.65,14.85,3.94,8.92,1.33,19.76-7.75,32.23-20.52,28.17,4.67,38.57,5.75,39l.39.15.38.22c.34.19,33.33,20,8.33,53.54-8.51,11.41-9.6,22.59-3.24,33.21a42.05,42.05,0,0,0,12.22,12.73Z"/><path class="cls-3" d="M86.44,465.92a50.51,50.51,0,0,0,13.78-16.17c4.84-9.31,7.82-23.94-5.48-40.74-19.7-24.88,1.21-41.12,3.77-43,4.3-2.26,31.58-18.32,6.7-50.45-7.56-9.77-10.11-18.14-7.58-24.86,2.86-7.6,11.51-10.69,11.6-10.72l-5-7.9c-.53.17-13.11,4.52-17.35,15.77-3.42,9.1-.46,19.79,8.83,31.78,21,27.08-2.89,38.73-3.91,39.21l-.38.18-.35.23c-.31.21-31.29,21.64-5.78,53.86,8.68,11,10.2,22.07,4.52,33A42,42,0,0,1,78.6,459.47Z"/><path class="cls-4" d="M103.13,297.82,30.27,173.49a28.84,28.84,0,0,1,24.88-43.41H200.86a28.84,28.84,0,0,1,24.88,43.41L152.88,297.82A28.83,28.83,0,0,1,103.13,297.82Z"/><ellipse class="cls-5" cx="128.3" cy="98.06" rx="36.75" ry="36.13"/><ellipse class="cls-6" cx="128.22" cy="98.14" rx="31.58" ry="31.05"/><ellipse class="cls-7" cx="127.81" cy="98.54" rx="27.11" ry="26.66"/><ellipse class="cls-8" cx="127.15" cy="98.54" rx="23.39" ry="22.66"/><ellipse class="cls-9" cx="127.2" cy="98.04" rx="19.38" ry="19.15"/><ellipse class="cls-10" cx="127.2" cy="98.14" rx="17.34" ry="17.05"/><ellipse class="cls-5" cx="126.69" cy="98.64" rx="14.8" ry="14.55"/><rect class="cls-1" x="67.36" y="69.86" width="23.3" height="21.15"/><rect class="cls-1" x="165.94" y="67.22" width="33.16" height="23.8"/><path class="cls-1" d="M69.6,91C59,91,50.33,84.11,50.33,75.59S59,60.16,69.6,60.16"/><polygon class="cls-1" points="145.33 53.11 166.56 53.11 271.7 21.46 271.7 2.88 145.33 2.88 145.33 53.11"/><path class="cls-1" d="M93,88.5c3.43-12.2,23.42-17.41,44.65-11.64C148.44,79.79,157.47,85,163.29,91h2.65V2.88H87.07V91h5.48A13.62,13.62,0,0,1,93,88.5Z"/><ellipse class="cls-1" cx="70.67" cy="455.22" rx="41.97" ry="19.69"/><rect class="cls-1" x="59.5" y="436.29" width="53.14" height="38.62" rx="10.96"/><ellipse class="cls-1" cx="28.7" cy="465.12" rx="28.56" ry="9.79"/><rect class="cls-1" x="25.71" y="459.94" width="53.18" height="15.09"/><rect class="cls-1" x="86.05" y="414.69" width="18.41" height="28.16"/><ellipse class="cls-1" cx="190.4" cy="453.21" rx="41.97" ry="19.69"/><rect class="cls-1" x="148.43" y="434.28" width="53.14" height="38.62" rx="10.96" transform="translate(350 907.17) rotate(180)"/><ellipse class="cls-1" cx="232.37" cy="463.11" rx="28.56" ry="9.79"/><rect class="cls-1" x="182.18" y="457.93" width="53.18" height="15.09" transform="translate(417.54 930.95) rotate(-180)"/><rect class="cls-1" x="156.61" y="412.68" width="18.41" height="28.16" transform="translate(331.63 853.51) rotate(-180)"/><rect x="150.48" y="168.3" width="16.36" height="322.82" rx="4.56"/><polygon class="cls-11" points="179 186.87 158.43 171.81 137.62 186.55 140.6 161.5 117.21 151.14 140.76 141.15 138.19 116.06 158.76 131.12 179.57 116.39 176.6 141.44 199.98 151.79 176.44 161.78 179 186.87"/><polygon class="cls-3" points="44.14 303.77 30.13 272.89 61.05 274.34 44.14 303.77"/><rect class="cls-4" x="26.7" y="130.08" width="43.04" height="149.84"/><polygon points="180.84 209.53 178.09 210.44 196.5 249.76 196.52 209.53 180.84 209.53"/><ellipse class="cls-3" cx="53.32" cy="310.1" rx="19.43" ry="22.12"/><ellipse class="cls-12" cx="70.19" cy="312.11" rx="8.69" ry="10.06"/><ellipse class="cls-13" cx="64.06" cy="319.65" rx="8.69" ry="11.57"/><ellipse class="cls-2" cx="55.88" cy="321.16" rx="14.12" ry="9.68" transform="translate(-256.41 227.65) rotate(-63.46)"/><ellipse class="cls-3" cx="55.37" cy="322.67" rx="12.62" ry="9.17" transform="translate(-251.74 209.23) rotate(-59.99)"/><ellipse class="cls-3" cx="45.16" cy="325.7" rx="3.94" ry="7.51" transform="translate(-219.98 131.22) rotate(-45.85)"/><ellipse class="cls-2" cx="35.93" cy="312.61" rx="12.58" ry="8.17" transform="translate(-275.89 270.38) rotate(-75.73)"/><ellipse class="cls-3" cx="34.91" cy="312.61" rx="12.58" ry="8.17" transform="translate(-276.66 269.39) rotate(-75.73)"/><rect class="cls-3" x="171.95" y="209.53" width="23.52" height="23.13"/><path class="cls-3" d="M189,234.71l-23.69,9.12a7.84,7.84,0,0,1-10.1-4.34L150.9,228.6a7.64,7.64,0,0,1,4.42-9.94L179,209.55a7.83,7.83,0,0,1,10.1,4.34l4.34,10.88A7.62,7.62,0,0,1,189,234.71Z"/><path class="cls-3" d="M179.42,233l-19.6-9.18a3.5,3.5,0,0,1-1.69-4.71l8.56-17.66a3.62,3.62,0,0,1,4.79-1.67l19.59,9.19a3.51,3.51,0,0,1,1.7,4.71l-8.56,17.65A3.62,3.62,0,0,1,179.42,233Z"/><ellipse class="cls-3" cx="159.68" cy="214.31" rx="16.36" ry="7.38"/><ellipse class="cls-3" cx="157.15" cy="225.73" rx="12.81" ry="7.38"/><ellipse class="cls-3" cx="157.15" cy="238.43" rx="12.81" ry="7.38"/><polygon class="cls-3" points="44.26 310.57 34.12 307.71 38.06 294.18 48.21 297.04 44.26 310.57"/><polygon class="cls-5" points="65.45 217.86 69.89 219.08 69.89 214.58 65.45 217.86"/><polygon class="cls-7" points="90.39 199.08 80.58 192.3 80.58 222.03 81.99 222.41 87.54 238.39 90.39 234.19 90.39 199.08"/><polygon class="cls-9" points="109.98 224.14 109.98 218.8 103.58 210.84 108.64 194.7 101.08 197.46 101.08 224.28 109.98 224.14"/><polygon class="cls-10" points="114.23 224.08 109.98 218.8 109.98 224.14 114.23 224.08"/><polygon class="cls-8" points="97.06 224.34 101.08 224.28 101.08 197.46 92.53 200.57 90.39 199.08 90.39 234.19 97.06 224.34"/><polygon class="cls-6" points="78.49 190.85 79.19 207.72 69.89 214.58 69.89 219.08 80.58 222.03 80.58 192.3 78.49 190.85"/><polygon class="cls-14" points="143 250.62 142.26 250.53 142.26 251.37 143 250.62"/><polygon class="cls-5" points="95.53 251.82 102.24 257.93 102.24 250.69 95.53 251.82"/><polygon class="cls-7" points="111.87 249.06 110.67 249.26 110.67 276.08 118.39 271.84 118.39 235.18 111.87 249.06"/><polygon class="cls-9" points="133.83 249.54 126.81 248.72 126.81 274.48 133.83 277.88 133.83 274.21 131.43 262.29 133.83 259.87 133.83 249.54"/><polygon class="cls-10" points="134.65 278.28 133.83 274.21 133.83 277.88 134.65 278.28"/><polygon class="cls-10" points="142.26 251.37 142.26 250.53 133.83 249.54 133.83 259.87 142.26 251.37"/><polygon class="cls-8" points="126.54 248.69 118.82 234.26 118.39 235.18 118.39 271.84 119.79 271.07 126.81 274.48 126.81 248.72 126.54 248.69"/><polygon class="cls-6" points="102.24 250.69 102.24 257.93 107.7 262.89 105.32 279.03 110.67 276.08 110.67 249.26 102.24 250.69"/><polygon class="cls-5" points="37.58 170.4 45.69 173.88 45.69 165.99 37.58 170.4"/><polygon class="cls-7" points="54.7 144.81 54.24 149.39 54.24 180.07 57.04 194.32 62.09 188.73 62.09 151.6 54.7 144.81"/><polygon class="cls-9" points="77.78 154.42 70.64 155.96 70.64 181.61 77.78 182.48 77.78 169.4 77.29 168.58 77.78 167.56 77.78 154.42"/><polygon class="cls-10" points="84.75 152.91 77.78 154.42 77.78 167.56 84.75 152.91"/><polygon class="cls-10" points="86.19 183.51 77.78 169.4 77.78 182.48 86.19 183.51"/><polygon class="cls-8" points="67.56 156.62 62.09 151.6 62.09 188.73 68.73 181.38 70.64 181.61 70.64 155.96 67.56 156.62"/><polygon class="cls-6" points="52.98 162.03 45.69 165.99 45.69 173.88 53.71 177.33 54.24 180.07 54.24 149.39 52.98 162.03"/></g></svg>
